<?xml version="1.0" encoding="UTF-8" standalone="no"?>
<!DOCTYPE svg  PUBLIC '-//W3C//DTD SVG 1.1//EN'  'http://www.w3.org/Graphics/SVG/1.1/DTD/svg11.dtd'>
<svg width="280pt" xmlns="http://www.w3.org/2000/svg" viewBox="0 0 280 180" version="1.1" height="180pt">
 <g id="#fefefeff">
  <path d="m0 0h280v180h-280v-180m131.51 13.96c1.81 2.52 4.12 4.61 6.7 6.3 2.27-0.85 4.91-1.38 6.42-3.48 0.9-1.74 1.12-3.74 1.69-5.6 1.48 0.06 2.97 0.12 4.46 0.15 0.33 1.57 1.34 3.3 0.38 4.85-3.18 6.24-10.05 9.58-16.59 11.14-3.53 0.42-7.66 0.98-10.75-1.17-0.75-1.93-1.07-3.99-1.55-6-1.22 2.42-3 4.93-2.16 7.78 1.25 7.44-1.85 14.55-2.66 21.84-3.39 7.46-5.43 16.02-3.15 24.1 0.88 3.41 2.26 7.34 0.09 10.56-1.88 2.75-6.23 4.54-5.48 8.49 1.16 4.58 0.16 9.25 0.39 13.89 0.11 3.2 1.6 6.1 2.58 9.09-3.4 3.94-3.76 9.07-3.62 14.03-2 3.9-7.33 3.97-9.76 7.54-4.66 5.09-4.37 12.33-3.63 18.73 0.59 0.02 1.18 0.05 1.77 0.08-0.26-4.06-0.62-8.37 1.54-12.04 2.44-5.57 10.33-5.39 12.81-10.93 1.1-3.52-0.32-7.46 1.21-10.91 0.81-1.93 2.39-4.25 4.8-3.78 4.63 0.4 8.08 3.98 11.65 6.6-0.01-1.29-0.01-2.58-0.02-3.87-4.79-3.82-10.85-6.25-14.54-11.31-3.04-5.53-1.44-12.21-0.11-18.02 0.82-4.19 4.8-6.9 5.68-11.02-0.91-4-3.01-7.75-2.96-11.98-0.78-7.85 4.76-14.13 7.08-21.18 1.99-5.04-1.7-10.37 0.83-15.33 3.96 0.35 7.93 0.22 11.9 0.02-0.21 4.35-1.28 9.9 2.86 12.83 0.17-5.27 0.13-10.54 0.18-15.81 3.87-1.24 6.21 3.01 6.02 6.34-0.15 5.02-2.47 9.58-3.58 14.39 0.53 0.17 1.6 0.49 2.13 0.65-0.67-6.78 5.11-12.12 4.58-18.88 0.11-3.83-1.77-9.1 2.46-11.4 1.35-1.46 3.05 1.02 2.68 2.41 0.09 6.94-0.62 14.02-3.34 20.48-0.75 2.12-2.07 4.13-2.19 6.42 0.47 4.06 2.8 7.81 2.28 12-0.02 2.43-1.75 4.31-2.9 6.31-0.04-3.15 0.04-6.31-0.48-9.43-2.43 4.87-2.34 11.85-8.02 14.32 0-2.96 1.95-5.37 2.42-8.19-0.73-4.36-2.36-8.53-3.41-12.82-2.81 4.14-1.65 9.12-1.85 13.78-1.87 4.83-6.55 8.01-8.06 13.06 6.5-0.72 12.53-4.79 19.26-3.58 3.54 2.5 5.65 6.53 6.75 10.64 1.04 7.79-3.49 15.52-0.74 23.22 0.68 0.25 2.06 0.77 2.75 1.03-0.45-7.8 1.44-15.45 1.58-23.2 0.09-5.59-4.22-9.61-6.5-14.28-0.88-4.68 5.48-4.99 5.92-9.02 0.36-1.89 0.5-3.83 0.27-5.74-0.62-2.25-3.39-3.52-3.17-6.07-0.81-4.54 0.26-8.97 2.04-13.13-0.3-3.67-0.04-7.32 0.98-10.87-0.24-3.99-1.33-7.9-1.6-11.9-0.21-4.18-3.57-8.62-7.96-8.72-6.34-0.75-10.52 5.19-16.36 6.59m-27.26 59.38c-2.55 0.89-5.64 1.2-7.34 3.56-2.72 3.68-3.38 8.36-4.83 12.6-3.98-0.49-8-1.52-12.02-0.86-4.67 2.72-4.33 8.98-7.59 12.83-2.66 4.17-8.02 4.41-12.01 6.66 3.77 0.42 8.24 1.52 11.44-1.18 4.77-3.19 4.69-10.3 9.7-13.16 3.16 0.35 6.41 1.59 9.57 0.57 4.59-3.04 5.06-9.04 7.85-13.38 4.17-2.78 7.54 3.14 11.74 1.82-0.19-3.08-1.32-5.96-1.98-8.95-0.45-3.08-0.26-6.22-0.54-9.32-1.35 2.92-2.61 5.89-3.99 8.81m50.96-3.24c-1.26 7.75 7.93 11.57 7.94 18.97-0.37 4.37-1.56 8.61-2.35 12.92-0.89 4.62-0.06 9.31-0.2 13.97-2.23-1.78-4.18-3.87-6.26-5.82-0.28 5.23 3.76 9.17 7.19 12.56 2.61 2.09 5.13-1.52 5.8-3.8 0.35-3.29-2.56-5.88-2.69-9.14-0.23-7.42 0.05-14.98 2.19-22.14 0.89-2.98 1.37-6.99-1.93-8.67-3.92-2.18-6.28-6.08-9.69-8.85m-26.81 17.23c0.52 1.49 1.06 2.96 1.52 4.47-2.24 3.28-4.92 6.91-4.51 11.11 1.32 4.37 4.61 7.7 6.77 11.63 1.04 2.32 1.11 4.92 1.7 7.36 2.45-1.15 1.66-4.22 1.88-6.38 0.15-5.91-5.23-9.97-6.21-15.51 0.73-3.9 1.79-7.75 2.58-11.64 0.75-2.81 4.41-1.55 6.51-1.94-0.09 2.28-0.17 4.56-0.24 6.85 1.01-1.47 2-2.96 3.05-4.4 0.79 6.21-0.46 12.41 0.11 18.62 1.68 1.26 3.4 2.48 5.04 3.79 0.22 3.75-0.01 7.5-1.12 11.11-1.41 4.8 5.62 6.86 5.18 11.56-0.09 5.05 0.16 10.16-0.8 15.15-0.83 5.01-1.15 10.23 0.74 15.05-2.15 1.31-4.34 2.57-6.62 3.65-1.13-1.29-2.31-2.55-3.26-3.97-1.06-4.3 2.48-8.2 1.89-12.51-0.96-2.61-2.9-4.74-3.86-7.35-0.26-2.27-0.14-4.57-0.43-6.83-1.07-5.1-5.37-8.77-10.3-9.99 1.71 5.58 3.67 11.21 6.96 16.09 3.13 4.49 3.36 10.4 1.73 15.48 0.62 2.7 1.42 5.41 2.75 7.84 1.31 2.38 4.24 2.83 6.46 4.01 2.97-2.21 6.58-4.18 7.86-7.9 2.32-6.26 3.26-13.02 2.86-19.68-0.27-3.06-2.42-5.77-2-8.92 0.15-2.64 0.96-5.31 0.43-7.95-0.99-2.93-3.24-5.22-4.36-8.09-0.05-2.32 0.78-4.6 0.48-6.91-1.14-3.99-2.83-7.79-4.52-11.56-1.75-3.85 1.43-7.65 0.9-11.59-0.26-2.62 0.72-5.08 1.28-7.59-7.22 0.26-15.5 0.99-20.45 6.94m67-1.45c0.15 3.1 2.6 7.33-0.44 9.59-5.04 0.52-6.63-4.94-9.57-7.8-1.85-0.38-4.02-1.51-5.65-0.03-3.52 2.56-7.58 4.11-11.78 5.11 0.67 1.27 1.32 2.55 1.95 3.85 5.16 0.69 7.61-5.94 12.59-5.19 2.92 2.59 4.4 7.05 8.67 7.88 3.11-0.24 5.48-2.47 7.22-4.88 0.32-1.98 0.16-4 0.15-5.99-1.05-0.85-2.09-1.69-3.14-2.54m-99.9 16.53c-2.94 3.12-7.49 4.47-9.76 8.28-0.58 2.55-0.13 5.19 0.03 7.76 1.5-2.68 2.54-5.69 4.63-7.99 3.35-2.35 7.98-3.27 10.01-7.21 0.84-3.83 0.11-7.82-1.53-11.35-1.14 3.48-1.26 7.42-3.38 10.51m10.15 38.93c1.04 5.72-5.29 9.57-4.06 15.23 2.61 4.93 9.08 1.62 13.34 3.15 1.71 1.44 3.06 3.23 4.48 4.94-0.03-1.67 0.1-3.35-0.18-4.99-2.51-4.19-7.72-4.72-12.08-5.38-0.3-4.3 1.79-8.3 1.43-12.6-0.98-0.11-1.96-0.23-2.93-0.35z" fill="#fefefe"/>
 </g>
 <g id="#083f8aff" fill="#083f8a">
  <path d="m131.51 13.96c5.84-1.4 10.02-7.34 16.36-6.59 4.39 0.1 7.75 4.54 7.96 8.72 0.27 4 1.36 7.91 1.6 11.9-1.02 3.55-1.28 7.2-0.98 10.87-1.78 4.16-2.85 8.59-2.04 13.13-0.22 2.55 2.55 3.82 3.17 6.07 0.23 1.91 0.09 3.85-0.27 5.74-0.44 4.03-6.8 4.34-5.92 9.02 2.28 4.67 6.59 8.69 6.5 14.28-0.14 7.75-2.03 15.4-1.58 23.2-0.69-0.26-2.07-0.78-2.75-1.03-2.75-7.7 1.78-15.43 0.74-23.22-1.1-4.11-3.21-8.14-6.75-10.64-6.73-1.21-12.76 2.86-19.26 3.58 1.51-5.05 6.19-8.23 8.06-13.06 0.2-4.66-0.96-9.64 1.85-13.78 1.05 4.29 2.68 8.46 3.41 12.82-0.47 2.82-2.42 5.23-2.42 8.19 5.68-2.47 5.59-9.45 8.02-14.32 0.52 3.12 0.44 6.28 0.48 9.43 1.15-2 2.88-3.88 2.9-6.31 0.52-4.19-1.81-7.94-2.28-12 0.12-2.29 1.44-4.3 2.19-6.42 2.72-6.46 3.43-13.54 3.34-20.48 0.37-1.39-1.33-3.87-2.68-2.41-4.23 2.3-2.35 7.57-2.46 11.4 0.53 6.76-5.25 12.1-4.58 18.88-0.53-0.16-1.6-0.48-2.13-0.65 1.11-4.81 3.43-9.37 3.58-14.39 0.19-3.33-2.15-7.58-6.02-6.34-0.05 5.27-0.01 10.54-0.18 15.81-4.14-2.93-3.07-8.48-2.86-12.83-3.97 0.2-7.94 0.33-11.9-0.02-2.53 4.96 1.16 10.29-0.83 15.33-2.32 7.05-7.86 13.33-7.08 21.18-0.05 4.23 2.05 7.98 2.96 11.98-0.88 4.12-4.86 6.83-5.68 11.02-1.33 5.81-2.93 12.49 0.11 18.02 3.69 5.06 9.75 7.49 14.54 11.31 0.01 1.29 0.01 2.58 0.02 3.87-3.57-2.62-7.02-6.2-11.65-6.6-2.41-0.47-3.99 1.85-4.8 3.78-1.53 3.45-0.11 7.39-1.21 10.91-2.48 5.54-10.37 5.36-12.81 10.93-2.16 3.67-1.8 7.98-1.54 12.04-0.59-0.03-1.18-0.06-1.77-0.08-0.74-6.4-1.03-13.64 3.63-18.73 2.43-3.57 7.76-3.64 9.76-7.54-0.14-4.96 0.22-10.09 3.62-14.03-0.98-2.99-2.47-5.89-2.58-9.09-0.23-4.64 0.77-9.31-0.39-13.89-0.75-3.95 3.6-5.74 5.48-8.49 2.17-3.22 0.79-7.15-0.09-10.56-2.28-8.08-0.24-16.64 3.15-24.1 0.81-7.29 3.91-14.4 2.66-21.84-0.84-2.85 0.94-5.36 2.16-7.78 0.48 2.01 0.8 4.07 1.55 6 3.09 2.15 7.22 1.59 10.75 1.17 6.54-1.56 13.41-4.9 16.59-11.14 0.96-1.55-0.05-3.28-0.38-4.85-1.49-0.03-2.98-0.09-4.46-0.15-0.57 1.86-0.79 3.86-1.69 5.6-1.51 2.1-4.15 2.63-6.42 3.48-2.58-1.69-4.89-3.78-6.7-6.3z"/>
  <path d="m104.25 73.34c1.38-2.92 2.64-5.89 3.99-8.81 0.28 3.1 0.09 6.24 0.54 9.32 0.66 2.99 1.79 5.87 1.98 8.95-4.2 1.32-7.57-4.6-11.74-1.82-2.79 4.34-3.26 10.34-7.85 13.38-3.16 1.02-6.41-0.22-9.57-0.57-5.01 2.86-4.93 9.97-9.7 13.16-3.2 2.7-7.67 1.6-11.44 1.18 3.99-2.25 9.35-2.49 12.01-6.66 3.26-3.85 2.92-10.11 7.59-12.83 4.02-0.66 8.04 0.37 12.02 0.86 1.45-4.24 2.11-8.92 4.83-12.6 1.7-2.36 4.79-2.67 7.34-3.56z"/>
  <path d="m155.21 70.1c3.41 2.77 5.77 6.67 9.69 8.85 3.3 1.68 2.82 5.69 1.93 8.67-2.14 7.16-2.42 14.72-2.19 22.14 0.13 3.26 3.04 5.85 2.69 9.14-0.67 2.28-3.19 5.89-5.8 3.8-3.43-3.39-7.47-7.33-7.19-12.56 2.08 1.95 4.03 4.04 6.26 5.82 0.14-4.66-0.69-9.35 0.2-13.97 0.79-4.31 1.98-8.55 2.35-12.92-0.01-7.4-9.2-11.22-7.94-18.97z"/>
  <path d="m128.4 87.33c4.95-5.95 13.23-6.68 20.45-6.94-0.56 2.51-1.54 4.97-1.28 7.59 0.53 3.94-2.65 7.74-0.9 11.59 1.69 3.77 3.38 7.57 4.52 11.56 0.3 2.31-0.53 4.59-0.48 6.91 1.12 2.87 3.37 5.16 4.36 8.09 0.53 2.64-0.28 5.31-0.43 7.95-0.42 3.15 1.73 5.86 2 8.92 0.4 6.66-0.54 13.42-2.86 19.68-1.28 3.72-4.89 5.69-7.86 7.9-2.22-1.18-5.15-1.63-6.46-4.01-1.33-2.43-2.13-5.14-2.75-7.84 1.63-5.08 1.4-10.99-1.73-15.48-3.29-4.88-5.25-10.51-6.96-16.09 4.93 1.22 9.23 4.89 10.3 9.99 0.29 2.26 0.17 4.56 0.43 6.83 0.96 2.61 2.9 4.74 3.86 7.35 0.59 4.31-2.95 8.21-1.89 12.51 0.95 1.42 2.13 2.68 3.26 3.97 2.28-1.08 4.47-2.34 6.62-3.65-1.89-4.82-1.57-10.04-0.74-15.05 0.96-4.99 0.71-10.1 0.8-15.15 0.44-4.7-6.59-6.76-5.18-11.56 1.11-3.61 1.34-7.36 1.12-11.11-1.64-1.31-3.36-2.53-5.04-3.79-0.57-6.21 0.68-12.41-0.11-18.62-1.05 1.44-2.04 2.93-3.05 4.4 0.07-2.29 0.15-4.57 0.24-6.85-2.1 0.39-5.76-0.87-6.51 1.94-0.79 3.89-1.85 7.74-2.58 11.64 0.98 5.54 6.36 9.6 6.21 15.51-0.22 2.16 0.57 5.23-1.88 6.38-0.59-2.44-0.66-5.04-1.7-7.36-2.16-3.93-5.45-7.26-6.77-11.63-0.41-4.2 2.27-7.83 4.51-11.11-0.46-1.51-1-2.98-1.52-4.47z"/>
  <path d="m195.4 85.88c1.05 0.85 2.09 1.69 3.14 2.54 0.01 1.99 0.17 4.01-0.15 5.99-1.74 2.41-4.11 4.64-7.22 4.88-4.27-0.83-5.75-5.29-8.67-7.88-4.98-0.75-7.43 5.88-12.59 5.19-0.63-1.3-1.28-2.58-1.95-3.85 4.2-1 8.26-2.55 11.78-5.11 1.63-1.48 3.8-0.35 5.65 0.03 2.94 2.86 4.53 8.32 9.57 7.8 3.04-2.26 0.59-6.49 0.44-9.59z"/>
  <path d="m95.5 102.41c2.12-3.09 2.24-7.03 3.38-10.51 1.64 3.53 2.37 7.52 1.53 11.35-2.03 3.94-6.66 4.86-10.01 7.21-2.09 2.3-3.13 5.31-4.63 7.99-0.16-2.57-0.61-5.21-0.03-7.76 2.27-3.81 6.82-5.16 9.76-8.28z"/>
  <path d="m105.65 141.34c0.97 0.12 1.95 0.24 2.93 0.35 0.36 4.3-1.73 8.3-1.43 12.6 4.36 0.66 9.57 1.19 12.08 5.38 0.28 1.64 0.15 3.32 0.18 4.99-1.42-1.71-2.77-3.5-4.48-4.94-4.26-1.53-10.73 1.78-13.34-3.15-1.23-5.66 5.1-9.51 4.06-15.23z"/>
 </g>
</svg>
