<svg clip-rule="evenodd" fill-rule="evenodd" viewBox="0 0 280 180" xmlns="http://www.w3.org/2000/svg"><g fill="#054a91"><path d="M115.224 20.003c2.9-5.446 9.259-6.789 14.351-9.342 3.65-2.038 7.367-5.13 11.846-4.384 4.537.44 6.976 4.802 8.83 8.441 1.137 2.232 1.075 9.132-2.19 26.187-1.49 4.591-.604 9.453-.317 14.154 4.586-2.145 6.772-.765 3.14 2.488-.225 4.538-2.685 9.224-.423 13.633 1.49 5.394 10.424 5.677 9.441 12.13-1.453 7.851-3.465 15.711-3.403 23.757-.007 3.568 1.892 6.72 3.376 9.837-1.314 2.125-2.41 6.242-5.693 4.84-3.76-2.446-6.141-6.764-7.978-10.779-3.268-9.23 2.52-18.747.164-28.065-1.011-3.487-3.528-6.247-5.744-9.022-3.142-.041-6.332-.045-9.366.836-3.53.855-6.862 2.765-10.565 2.647 1.728-3.994 5.014-6.96 7.326-10.582 2.6-3.788.094-8.552 1.691-12.622.581-1.369 1.535-2.544 2.321-3.791.07 2.079-.032 4.164.118 6.233.476 2.664 2.608 4.799 2.763 7.555-.241 1.701-1.643 2.914-2.605 4.244-.148 1.179-.29 2.366-.332 3.552 5.716-2.738 5.82-9.704 7.875-14.875 2.218 3.69.209 7.91.278 11.859 1.42-2.945 3.159-5.931 3.158-9.293.197-3.913-1.201-7.647-2.562-11.232 3.944-6.865 6.188-14.6 6.972-22.458.237-2.601-.284-5.193-1.281-7.586-2.109 1.472-5.044 3.031-4.955 6.012.019 3.536 1.073 7.179-.244 10.624-1.738 4.942-4.415 9.655-4.254 15.066-.528-.729-1.816-1.171-1.653-2.247.422-4.825 3.255-9.066 3.81-13.865.023-2.602-2.12-4.454-3.601-6.343-1.07.46-2.104.967-3.121 1.512.24 5.25-.472 10.52 1.033 15.653-1.556-1.657-3.131-3.387-3.9-5.577-.397-2.396.163-4.803.385-7.192-.205-.321-.595-.967-.786-1.286-3.77.936-7.692.859-11.363-.475-1.142 3.262-1.295 6.703-.53 10.063 1.037 6.039-2.852 11.206-5.296 16.358-3.12 5.901-3.628 13.212-.952 19.377.465 1.342 1.25 2.692 1.061 4.165-1.645 3.442-4.931 6.044-5.614 9.961-1.409 6.187-4.128 13.529.302 19.143 4.728 4.849 10.929 7.967 15.621 12.868-.446.338-1.341 1.028-1.781 1.375-3.174-2.815-6.447-6.357-10.963-6.637-1.891-.311-4.03.444-4.855 2.286-2.392 4.046-.726 8.993-2.403 13.238-1.528 2.073-3.984 3.169-5.836 4.898.96 1.218 2.195 2.202 3.041 3.517 1.851 3.767-3.05 8.146-.025 11.525 3.12 1.387 7.241 1.062 9.471 4.039 1.812 2.028 1.677 4.928 1.351 7.446-1.1-1.965-1.569-4.256-2.94-6.066-4.602-1.619-9.851 1.09-14.151-1.937-.149-2.233-.76-4.744.709-6.697 1.328-2.751 4.831-5.48 2.999-8.809-.555-.483-1.675-1.466-2.228-1.963-1.327-1.04-2.395 1.012-3.468 1.549-4.477 3.58-3.152 9.816-2.816 14.78-4.405-5.119-2.414-13.088 1.085-18.174 2.247-3.973 6.94-4.982 10.456-7.395 1.355-3.096.194-6.533.822-9.744.578-2.119 2.274-3.655 3.564-5.347-1.103-2.351-2.251-4.743-2.54-7.36-.631-4.277.872-8.602-.127-12.852-.486-2.429-1.212-5.756 1.256-7.4 2.626-1.651 5.23-4.076 5.53-7.339-.144-3.767-1.703-7.316-2-11.068-.591-6.428.626-13.034 3.628-18.758 1.394-2.549.579-5.595 1.526-8.27 1.141-3.148 2.493-6.38 2.002-9.81-.442-3.78-.985-7.973 1.559-11.206m.922 3.254c1.631 1.688 3.622 3.14 6.068 3.156 7.719.337 15.092-3.33 20.876-8.214.817-2.15 2.478-4.412 1.775-6.815-.667-2.204-3.191-2.074-5.042-2.001-.624 2.969-.558 6.633-3.913 7.983-3.286 2.502-7.389.216-8.678-3.273-1.517.383-3.025.76-4.547 1.086-1.581 1.11-3.111 2.269-4.631 3.459-.607 1.551-1.253 3.082-1.908 4.619m27.685 48.843c2.962 3.628 5.794 7.73 6.27 12.514.727 7.666-2.435 15.068-2.217 22.707-.017 2.76 1.285 5.224 2.968 7.311 3.209-1.741 1.182-5.312 1.526-8.119.514-6.889 4.134-13.471 2.932-20.489-.77-4.824-5.669-7.498-6.842-12.142-.9-2.944-.943-6.048-1.602-9.037-1.241 2.32-2.111 4.799-3.035 7.255"/><path d="M97.522 71.055c1.38-2.915 1.86-6.19 3.45-9.025.477 3.163-.133 6.348.266 9.508.68 2.885 1.754 5.66 2.308 8.577-.805.51-1.633.974-2.479 1.414-2.796-1.67-6.485-4.784-9.75-2.336-2.839 3.87-2.824 9.668-7.273 12.374-3.558 2.457-7.944-.467-11.698.821-3.236 3.744-4.063 9.326-8.519 12.088-3.708 2.922-8.789 1.929-12.797.248 4.651-.55 10.018-.753 13.221-4.722 4.134-3.735 2.932-10.967 8.418-13.53 3.722-1.264 7.632.453 11.264 1.289 3.077-3.623 2.296-8.991 5.378-12.656 1.736-3.009 5.566-2.473 8.211-4.05zM88.52 99.279c2.221-3.377 1.391-7.553 1.666-11.362 2.218 4.103 3.909 9.233 2.16 13.795-2.396 4.488-8.509 4.302-11.746 7.796-.905 2.316-.949 4.859-1.509 7.265-1.486-2.474-2.071-5.632-.732-8.302 2.295-4.173 7.825-5.039 10.161-9.192zM119.483 88.001c5.183-7.201 14.387-8.78 22.636-9.384-1.309 2.66-2.439 5.474-1.978 8.499.527 3.842-3.074 7.336-1.446 11.108 3.032 5.607 6.199 12.089 3.805 18.533 1.579 3.409 4.731 6.427 4.551 10.428.005 3.534-1.595 7.218.146 10.591 2.299 5.271 1.044 11.116.069 16.534-.932 3.805-1.452 8.202-4.81 10.758-2.17 1.707-4.709 4.597-7.761 3.384-3.753-1.674-4.951-5.922-5.899-9.557l-1.555-1.307c3.599-3.629 2.052-8.982 1.055-13.345-2.573-4.273-6.082-8.59-5.986-13.845-1.515-1.801-3.354-3.268-5.276-4.596.175-.133.54-.397.721-.522l.568.286c4.314.808 8.726 2.973 10.657 7.144 1.994 2.98.528 6.625 1.262 9.895.547 2.974 3.386 4.95 3.983 7.873.002 3.812-2.679 7.161-2.362 11.024.221 2.279 2.21 3.695 3.657 5.258 2.252-1.217 4.446-2.528 6.545-3.98-.707-2.589-1.915-5.161-1.517-7.897.738-7.107 1.745-14.206 2.038-21.354.462-4.39-4.108-6.862-5.54-10.607.768-4.17 2.691-8.437 1.18-12.7-.18-2.059-2.514-2.374-3.936-3.291-1.039-4.169-1.132-8.614.802-12.552-.444-.404-1.324-1.217-1.76-1.627.779-1.97 1.18-4.056 1.398-6.153-1.186 1.664-2.325 3.355-3.479 5.045-.482-2.358.558-5.291-1.279-7.186-4.054-.316-6.476 3.84-10.489 3.543zM117.835 100.366c.249-4.756 3.571-8.502 5.986-12.352.234.375.692 1.145.917 1.526-1.586 3.272-3.216 6.916-2.566 10.638 1.295 4.276 5.022 7.638 5.181 12.285.163 3.941-.102 7.881-.435 11.796-1.515-2.628-2.015-5.624-2.132-8.609-.163-5.961-6.873-9.271-6.951-15.284zM158.9 92.287c3.463-1.607 7.527-1.425 10.769-3.555 2.314-1.251 4.987-3.502 7.719-1.934 2.911 1.972 3.97 5.687 6.358 8.193 2.507-.118 5.587-.971 5.949-3.905-.484-1.516-1.217-2.93-1.868-4.369.31-.171.922-.522 1.225-.702 1.003 1.837 2.832 3.588 2.425 5.866-.615 3.841-4.594 6.655-8.41 6.272-4.37-.503-5.605-5.477-8.284-8.252-3.531.655-6.147 3.114-9.006 5.054-2.633 1.343-4.964-1.27-6.877-2.668z"/></g></svg>