<svg height="180pt" viewBox="0 0 280 180" width="280pt" xmlns="http://www.w3.org/2000/svg"><g fill="#fefefe"><path d="M0 0h280v180h-280zm80.66 32.46c2.33 3.4 4.12 7.1 5.76 10.87 3.16.82 6.46 2.06 8.36 4.88 3.39 4.79 6.58 10.71 4.9 16.74-2.73.93-5.21 2.43-7.02 4.71-.29 2.15-.31 4.5-1.69 6.3-2.3 3.34-6.6 4.01-9.73 6.27-8.15 5.68-14.5 13.99-17.59 23.45-2.1 5.52-1.11 11.53-1.76 17.28-.45 3.7.61 7.35 2.78 10.35 1.98 2.62.81 6.48 3.11 8.9 5.66 6.25 12.32 12 20.26 15.06 4.44 1.93 9.45-.11 13.84 1.88 3.26-1.59 6.57-.17 9.82.49 3.88-1.72 7.8-3.32 11.92-4.4 4.5-3.17 8.78-6.69 13.22-9.97 3.08 4.92 4.78 10.72 8.95 14.93 2.43 2.9 6.03 4.3 9.42 5.73 3.48 1.4 5.97 4.69 9.72 5.45 3.98.56 8.01.21 12.01.6 6.61.73 12.7-2.42 19.02-3.74 5.38-.73 8.36-5.77 12.01-9.2 3.65-3.39 4.8-8.34 5.51-13.08.77-5.65 3.31-11.14 2.44-16.92-1.01-6.1-4.06-11.58-7.38-16.7-1.56-2.12-1.26-4.81-1.23-7.28.13-3.95-.49-7.96-2.01-11.61-3.88-6.64-10.37-11.9-18.09-13.18-8.87-3.45-18.51-5.98-28.02-3.68l-.11 2.31c6.8-1.5 13.91-.76 20.43 1.58 7.9 2.49 16.58 5.16 21.58 12.3 2.94 3.86 3.06 8.91 2.6 13.53-2.76-2.52-5.01-5.85-8.6-7.28-3.45-1.48-6.72-3.31-10.02-5.07-3.64-2.08-7.99-2.13-12.07-2.1-4.38-.01-8.04 2.74-12.06 4.08-1.39-1.68-2.74-3.4-4.05-5.14 6.73-1.34 13.59-3.8 18.63-8.63-5.36-.51-9.35 3.86-14.44 4.57-3.23.9-6.56.53-9.73-.36.29-4 3.67-6.19 7.15-7.26-.32-4.96 3.56-9.21 2.63-14.22-.98-7.54-6.18-13.45-11.19-18.75-5.6-4.23-11.89-7.82-18.86-9.15-9.24-2.22-19.28.76-26.29 7.04-4.07-1-7.92-2.95-11.1-5.67-2.98-2.63-3.44-6.94-6.08-9.8-2.53-2.11-8.86.08-6.95 3.89zM83.44 30.92c1.24-.1 2.48-.16 3.72-.23.14 1.44.28 2.88.43 4.33 5.03 5.06 10.55 9.76 14 16.14.03 1.17.05 2.34.07 3.51.57.62 1.14 1.25 1.7 1.88l.12 9.3 1.21-.53-.46 4.9-.67-2.85-1.1.28c.07-3.82.12-7.64.05-11.46l-1.86-1.62-.39-2.96c-1.71-2.23-3.23-4.63-5.2-6.66-1.73-1.79-4.19-2.52-6.15-3.99-1.69-2.21-2.27-5.02-2.77-7.7l-1.04.14.69-1.67c-.59-.21-1.76-.61-2.35-.81zM105.66 44.77c5.68-2.01 11.18-5.23 17.38-5.1 10.1-.43 20.3 3.73 27.06 11.29 5.46 4.91 9.56 12.82 6.64 20.14-1.74 4.68-4.37 10.03-9.57 11.52-1.25-1.33-2.55-2.61-3.87-3.87-1.18-1.03-2.37-2.05-3.58-3.04l-.11-2.71c3.84-1.53 8.01-2.93 10.58-6.39-4.21.97-8.07 2.97-12.22 4.05-3.21 1.02-5.24-2.23-7.41-3.94 5.12-1.58 10.26-3.15 15.11-5.46l-.29-1.91c-5.3 2.09-10.57 5.47-16.5 4.81-2.59-1-4.19-3.44-6.09-5.33 4.93-1.27 9.87-2.6 14.61-4.48 1.3-.41 2.21-1.44 3.15-2.36-6.66 1.26-13.05 4.41-19.96 4.2-2.18-.64-3.96-2.12-5.89-3.26 5.36-2.61 11.24-3.86 16.89-5.69l.08-1.83c-5.7.85-11.11 2.92-16.76 4.01-3.81.95-6.93-2.08-9.25-4.65zM99.74 46.27c1.37.23 2.96-.11 4.1.85 3.76 2.82 7.51 5.67 11.03 8.79-5.61-2.15-10.45-5.94-15.13-9.64zM105.67 54.1c7.32 4 11.78 11.29 15.97 18.2 2.66 4.38 3.64 9.48 5.86 14.05-3.37-3.42-7.27-6.48-9.38-10.92l-.67.15c.09-3.15.89-6.85-1.81-9.21-1.92-2.91-5.64-2.2-8.59-2.12-.75-2.86-.99-5.82-.94-8.77l-.44-1.38zM121.99 66.94c-2.18-2.01-1.16-5.18-1.38-7.75-.73 5.9 5.3 8.38 6.22 13.64.59-.21 1.77-.64 2.37-.86 1.31 2.47 2.72 4.88 4.3 7.19 1.34.35 2.66.76 3.98 1.18 2.58 2.83 5.74 5.1 8.13 8.1.91 3.01-3.24 4.58-5.52 5.18-4 1.13-6.18-2.86-8.33-5.41-1.95-1.99-1.77-4.96-2.51-7.47-3.86-3.79-3.67-9.8-7.26-13.8m11.51 12.41c1.53 3 2.73 7.44 6.9 7.32-.35-.32-1.05-.98-1.41-1.3-1.37-2.37-2.78-4.99-5.49-6.02zM124.29 63.95c1.94 1.66 3.88 3.32 5.66 5.15 2.88 2.88 6.03 5.51 9.42 7.8l.18.28c2.11 1.51 4.13 3.16 6.12 4.84l-.14 2.12c-2.04-1.83-4.25-3.46-6.51-5-3.37-2.25-5.83-5.53-8.98-8.03-1.08-1.34-2.11-2.71-3.15-4.08-.91-.65-1.83-1.28-2.75-1.91l.15-1.17zM108.47 65.5c2.27.58 4.34 1.67 6.16 3.15-1.15 2.95-2.39 5.88-3.37 8.9-.56 2.3-3.48 2.28-4.9 3.83-.73 1.06-.87 2.38-1.26 3.58 1.92-1.27 3.84-2.55 5.85-3.68 1.59-3.13 3.36-6.18 5.5-8.97.15 2.52-.12 5.03-.77 7.47 3.55 2.65 7.13 5.45 9.13 9.52 2.55.7 5.83.91 6.96 3.75 1.73 3.8 5.37 6.7 5.73 11.07.72 3.65.41 8.15-3.04 10.35-3 1.91-5.48 4.52-6.69 7.91.59.05 1.78.14 2.37.18 1.6-2.22 3.36-4.32 5.43-6.13 1.45 5.86-1.01 11.68-.89 17.56.05 4.42-.41 9.62-4.19 12.53-2.86 2.07-5.46 4.55-8.55 6.25-3.57 1.13-7.19 2.17-10.43 4.11-1.56-1.06-3.1-2.14-4.65-3.21-2.3 1.27-4.58 2.68-7.23 3.09 0-2.56.3-5.11.86-7.6 2.26-1.31 4.43-2.89 5.72-5.23-3.95.64-6.85 3.63-10.6 4.79.21.87.55 1.68 1.02 2.43 2.66.81 1.99 4.5-.64 4.57-5.46.28-12.13-1.14-15.26-6.06 4.48-.58 8.91.5 13.27 1.38 2.11-1.12-1.68-2.9-2.47-3.94-2.68 1.37-5.2.35-7.45-1.28-1.96.95-3.95 2.68-6.25 1.62-2.97-1.25-5.04-3.87-7.12-6.22-2.3-2.2-.32-5.49-.31-8.17-1.55-1.27-3.25-2.4-4.52-3.96-1.09-1.93-1.23-4.19-1.45-6.35 2.37 1.41 4 3.66 5.57 5.86l.74-.44c1.1-2.91 2.91-5.44 4.31-8.19 1.55-3.2-2.77-4.79-4.7-6.28.48 2.02 1.3 3.98 1.53 6.06-.82 1.59-2.01 2.94-3.06 4.37-1.79-3.48-2.59-7.35-3.38-11.15-.6-5.6 3.8-9.84 5.34-14.89 1.73-6.34 7.67-9.95 12.27-14.1 2.51-2.44 6.04-2.69 9.34-2.43l.37-4.15c2.68 1.25 5.29 3.28 8.44 2.76.14-1.95.38-3.89 1.14-5.71l3.39-.23c.72-1.7 1.5-3.37 2.34-5.02l.4-3.7m5.75 17.94c1.47 1.02 3.06-1.45 1.93-2.59-1.4-1.01-3.07 1.49-1.93 2.59m7.36 8.89c-.17 1.4-.51 4.19-.68 5.58l-.47-6.59-1.01 4.71-2.9-.42c.91 1.93 1.91 3.82 2.9 5.7 1.86.6 3.71 1.23 5.52 1.98 1.46.1 2.92.21 4.39.35-.64 1.72-1.26 3.45-1.84 5.2 2.35.56 4.8-1.36 4.43-3.85-.85-2.91-2.12-5.68-2.9-8.61l-2.3.02c-.07 1.37-.15 2.74-.23 4.12l-1.79.04c-.61-2.89-1.72-5.63-3.12-8.23m-39.03 3.39c-.31 2.78-.35 5.58-.06 8.35 2.73-.59 5.22-1.87 7.75-3.01.03-.91.07-2.72.09-3.62-2 .86-3.96 1.82-5.94 2.72-.61-1.48-1.21-2.96-1.84-4.44m17.37 4.86c1.58-.11 3.17-.23 4.75-.32 1.4 2.4 3.34 4.34 6.35 3.48-1.32-2.54-3.11-5.11-5.96-6.06-2.3-.49-3.64 1.6-5.14 2.9m-7.21 3.02c-.42 2.01-.84 4.01-1.24 6.02-4.66.5-8.73-2.65-11.9-5.69l.04 2.66-2.33.15c3.98.3 6.37 3.68 8.47 6.64 2.82-.93 5.76-1.39 8.69-1.84l-.1-4.39c.58-1.34 1.15-2.67 1.69-4.02-1.11.14-2.22.3-3.32.47m27.17 5.5c-.29 2.5 1.03 4.84 1.61 7.23l-1.72-2.9c-1.02 1.09-2.01 2.2-2.97 3.34-1.24 1.1-2.54 2.17-3.64 3.43.34 1.84 1.27 3.49 1.93 5.23l1.96.35c.7-1.76.46-4.29 2.39-5.28 2.41-1.28 4.56-2.98 6.06-5.28-1.41-2.83-2.06-5.92-2.35-9.05-1.12.94-2.32 1.81-3.27 2.93m-26.78 10.58c-1.96-1.38-3.84-3.31-6.44-3.2-1.1 1.59-1.17 3.55-1.42 5.39 1.3-.49 2.58-1.01 3.87-1.54 2.08 1.08 4.18 2.12 6.25 3.2.5-1.15.99-2.3 1.48-3.45 1.21-.6 2.42-1.21 3.62-1.82l-.32-2c-2.84-.14-4.93 1.83-7.04 3.42m-5.22 7.6c.62 2.02 1.46 3.95 2.43 5.82.01 1.51.01 3.03.01 4.55 3.93-.85 7.86-.18 11.76.45 2.62-1.09 5-2.73 7.76-3.51 1.58-.33 2.6-1.54 3.43-2.83-2.21-.08-4.42-.07-6.63-.03-2.08 1.84-4.32 3.5-6.85 4.68.46-1.93.96-3.84 1.52-5.74-4.73-.09-8.97-2.13-13.43-3.39m27.08 10.79c-.17.28-.51.85-.68 1.14.61.09 1.85.28 2.46.38l-.34-1.01 3.43-.4c-.04 2.03-.06 4.07-.06 6.12-3.37-.61-6.34 1.05-9.15 2.65l-.23 2.38c2.97-1.37 5.68-4.01 9.24-3.14-.18.86-.54 2.57-.71 3.43.7-.09 1.41-.18 2.12-.26 1.17-1.2 2.31-2.44 3.59-3.51-.84-.63-1.69-1.24-2.53-1.85-.3-4.43 1.66-8.58 1.54-12.99-2.47 2.86-5.08 5.65-8.68 7.06m13.4-5.45c-1.02 1.13-2.13 2.2-2.96 3.49-.39 2.7 1.17 5.7-.84 8.02.52.48 1.06.95 1.6 1.42 1.73-.91 3.48-1.78 5.27-2.58.02-.5.07-1.48.1-1.98l-2.64 1.68c-.42-.45-1.25-1.37-1.67-1.83.48-2.91 1.84-5.5 3.35-7.99l-2.21-.23m-51.16 2.19l-2.91-.1.18 2.74c1.65 1.19 3.39 2.24 5.23 3.11.13-2.71.11-5.42-.04-8.13-.83.79-1.65 1.58-2.46 2.38zM94.39 74.74c.86-2.57 2.15-4.97 4.36-6.63 1.07 1.05 2.14 2.1 3.21 3.16-.55 1.12-1.12 2.23-1.7 3.33-.28 1.2-.65 2.36-1.1 3.5-1.84-.74-3.31-2.06-4.77-3.36zM148.04 84.78c3.78 4.36 8.97 8.47 9.8 14.53-4.23-3.19-6.25-8.2-9.14-12.45-.17-.52-.5-1.56-.66-2.08zM148.83 93.64c2.29 2.22 4.44 4.6 5.96 7.43-2.8 1.59-5.67 3.07-8.72 4.11-.06-4.03 1.33-7.84 2.76-11.54zM173.21 96.2c8.56-.83 16.55 3.54 23.37 8.24 8.26 5.65 12.64 15.2 15.27 24.54 1.52 5.04-.4 10.16-1.63 15.03-2.02 6.38-4.15 13.34-9.61 17.65-2.67 2.27-6.09 3.29-9.43 4.08-5.27 1.36-10.62 3.29-16.14 2.7-5.51-.69-11.13-1.79-15.97-4.65-4.04-2.39-8.43-4.6-11.43-8.33-6.04-8.19-9.83-18.69-7.83-28.89 1.84-4.35 2.06-9.29 4.37-13.43 2.78-2.58 5.95-4.76 9.09-6.88 6.44-3.71 12.28-9.1 19.94-10.06m-13.41 8.54c-6.41 3.98-13.35 8.71-15.54 16.37-3.22 12.36-.03 26.45 9.12 35.57 4.37 4.81 10.49 7.62 16.66 9.3 5.01.71 10.07-.47 15-1.33 8.19-1.51 15.82-6.24 20.48-13.18 2.85-4.08 2.5-9.26 3.92-13.85 1.89-6.24-1.86-12.04-3.09-17.99-.57-3.8-3.68-6.26-6.26-8.77-3.31-3.09-5.39-7.73-9.97-9.22-4.9-2.45-10.45-1.33-15.43.2l-.15-1.44c-5.17.13-10.42 1.41-14.74 4.34zM163.18 105.04c3.74-2.04 8.11-2.72 12.34-2.57 1.16 7.64-.36 15.32-2.32 22.7-4.48-3.82-8.68-8.14-11.75-13.19-.34-2.34-1.04-5.83 1.73-6.94zM179.48 102.38c5.33.67 11.89 1.06 14.78 6.39-6.03 6.32-12.22 12.46-18.06 18.95.12-4.31 1.46-8.47 1.67-12.77.38-4.21-.05-8.58 1.61-12.57zM146.2 121.22c2.46-4.6 5.61-9.44 10.71-11.36 2.65 4.28 5.02 8.92 8.96 12.19 2.73 2.36 6.03 4.51 6.9 8.27-9.22-1.22-19.65-2.19-26.57-9.1zM179 129.13c5.73-5.51 9.91-12.41 15.75-17.8 2.41 1.49 5.17 2.72 6.84 5.12 1.12 2.17 1.78 4.55 2.45 6.9-7.97.44-15.2 4.22-22.84 6.17 8.35 1.14 15.95-3.54 23.73-5.8 1.47 4.52 3.32 9.15 2.66 14-6.78-.53-13.2-3.02-19.65-5-1.71-.49-3.41-1.09-4.9-2.06-1.33-.57-2.69-1.06-4.04-1.53zM148.65 143.76c-3.99-4.78-3.52-11.72-2.32-17.45 2.97.73 5.94 1.48 8.86 2.42 5.62 1.91 11.64 2.22 17.21 4.33-8.71 1.47-16.85 5.21-23.75 10.7zM180.97 133.27c7.15 2.91 14.78 4.25 22.09 6.64 5.19 2.02 1.99 8.91-1.58 10.93-6.21-6.57-13.71-11.67-20.51-17.57zM157.01 142.09c5.17-2.62 10.28-5.48 15.92-6.97-1.77 4.03-4.32 7.64-6.3 11.56-2.1 3.87-3.21 8.17-5 12.18-6.49.42-10.73-7.01-9.3-12.79.92-1.91 2.94-2.95 4.68-3.98zM177.55 135.27c3.43 2.25 5.7 5.87 9.25 7.96 3.93 2.29 7.53 5.14 10.75 8.35 1.24.96 1.62 3.08.18 4.05-2.93 2.83-6.49 6.02-10.81 5.86-3.05-1.55-3.33-5.25-4.17-8.17-1.24-6.17-4.63-11.72-5.2-18.05zM167.65 149.71c2.39-4.25 2.9-9.57 6.58-13.01 3.18 7.96 4.22 16.61 7.41 24.59-3.56 4.54-10.2 2.54-14.81.87-2.74-3.86-1.23-8.68.82-12.45z"/></g><g fill="#0b4b8f"><path d="M80.66 32.46c-1.91-3.81 4.42-6 6.95-3.89 2.64 2.86 3.1 7.17 6.08 9.8 3.18 2.72 7.03 4.67 11.1 5.67 7.01-6.28 17.05-9.26 26.29-7.04 6.97 1.33 13.26 4.92 18.86 9.15 5.01 5.3 10.21 11.21 11.19 18.75.93 5.01-2.95 9.26-2.63 14.22-3.48 1.07-6.86 3.26-7.15 7.26 3.17.89 6.5 1.26 9.73.36 5.09-.71 9.08-5.08 14.44-4.57-5.04 4.83-11.9 7.29-18.63 8.63 1.31 1.74 2.66 3.46 4.05 5.14 4.02-1.34 7.68-4.09 12.06-4.08 4.08-.03 8.43.02 12.07 2.1 3.3 1.76 6.57 3.59 10.02 5.07 3.59 1.43 5.84 4.76 8.6 7.28.46-4.62.34-9.67-2.6-13.53-5-7.14-13.68-9.81-21.58-12.3-6.52-2.34-13.63-3.08-20.43-1.58l.11-2.31c9.51-2.3 19.15.23 28.02 3.68 7.72 1.28 14.21 6.54 18.09 13.18 1.52 3.65 2.14 7.66 2.01 11.61-.03 2.47-.33 5.16 1.23 7.28 3.32 5.12 6.37 10.6 7.38 16.7.87 5.78-1.67 11.27-2.44 16.92-.71 4.74-1.86 9.69-5.51 13.08-3.65 3.43-6.63 8.47-12.01 9.2-6.32 1.32-12.41 4.47-19.02 3.74-4-.39-8.03-.04-12.01-.6-3.75-.76-6.24-4.05-9.72-5.45-3.39-1.43-6.99-2.83-9.42-5.73-4.17-4.21-5.87-10.01-8.95-14.93-4.44 3.28-8.72 6.8-13.22 9.97-4.12 1.08-8.04 2.68-11.92 4.4-3.25-.66-6.56-2.08-9.82-.49-4.39-1.99-9.4.05-13.84-1.88-7.94-3.06-14.6-8.81-20.26-15.06-2.3-2.42-1.13-6.28-3.11-8.9-2.17-3-3.23-6.65-2.78-10.35.65-5.75-.34-11.76 1.76-17.28 3.09-9.46 9.44-17.77 17.59-23.45 3.13-2.26 7.43-2.93 9.73-6.27 1.38-1.8 1.4-4.15 1.69-6.3 1.81-2.28 4.29-3.78 7.02-4.71 1.68-6.03-1.51-11.95-4.9-16.74-1.9-2.82-5.2-4.06-8.36-4.88-1.64-3.77-3.43-7.47-5.76-10.87m2.78-1.54c.59.2 1.76.6 2.35.81l-.69 1.67 1.04-.14c.5 2.68 1.08 5.49 2.77 7.7 1.96 1.47 4.42 2.2 6.15 3.99 1.97 2.03 3.49 4.43 5.2 6.66l.39 2.96 1.86 1.62c.07 3.82.02 7.64-.05 11.46l1.1-.28.67 2.85.46-4.9-1.21.53-.12-9.3c-.56-.63-1.13-1.26-1.7-1.88-.02-1.17-.04-2.34-.07-3.51-3.45-6.38-8.97-11.08-14-16.14-.15-1.45-.29-2.89-.43-4.33-1.24.07-2.48.13-3.72.23m22.22 13.85c2.32 2.57 5.44 5.6 9.25 4.65 5.65-1.09 11.06-3.16 16.76-4.01l-.08 1.83c-5.65 1.83-11.53 3.08-16.89 5.69 1.93 1.14 3.71 2.62 5.89 3.26 6.91.21 13.3-2.94 19.96-4.2-.94.92-1.85 1.95-3.15 2.36-4.74 1.88-9.68 3.21-14.61 4.48 1.9 1.89 3.5 4.33 6.09 5.33 5.93.66 11.2-2.72 16.5-4.81l.29 1.91c-4.85 2.31-9.99 3.88-15.11 5.46 2.17 1.71 4.2 4.96 7.41 3.94 4.15-1.08 8.01-3.08 12.22-4.05-2.57 3.46-6.74 4.86-10.58 6.39l.11 2.71c1.21.99 2.4 2.01 3.58 3.04 1.32 1.26 2.62 2.54 3.87 3.87 5.2-1.49 7.83-6.84 9.57-11.52 2.92-7.32-1.18-15.23-6.64-20.14-6.76-7.56-16.96-11.72-27.06-11.29-6.2-.13-11.7 3.09-17.38 5.1m-5.92 1.5c4.68 3.7 9.52 7.49 15.13 9.64-3.52-3.12-7.27-5.97-11.03-8.79-1.14-.96-2.73-.62-4.1-.85m5.93 7.83l.44 1.38c-.05 2.95.19 5.91.94 8.77 2.95-.08 6.67-.79 8.59 2.12 2.7 2.36 1.9 6.06 1.81 9.21l.67-.15c2.11 4.44 6.01 7.5 9.38 10.92-2.22-4.57-3.2-9.67-5.86-14.05-4.19-6.91-8.65-14.2-15.97-18.2m16.32 12.84c3.59 4 3.4 10.01 7.26 13.8.74 2.51.56 5.48 2.51 7.47 2.15 2.55 4.33 6.54 8.33 5.41 2.28-.6 6.43-2.17 5.52-5.18-2.39-3-5.55-5.27-8.13-8.1-1.32-.42-2.64-.83-3.98-1.18-1.58-2.31-2.99-4.72-4.3-7.19-.6.22-1.78.65-2.37.86-.92-5.26-6.95-7.74-6.22-13.64.22 2.57-.8 5.74 1.38 7.75m2.3-2.99l-.15 1.17c.92.63 1.84 1.26 2.75 1.91 1.04 1.37 2.07 2.74 3.15 4.08 3.15 2.5 5.61 5.78 8.98 8.03 2.26 1.54 4.47 3.17 6.51 5l.14-2.12c-1.99-1.68-4.01-3.33-6.12-4.84l-.18-.28c-3.39-2.29-6.54-4.92-9.42-7.8-1.78-1.83-3.72-3.49-5.66-5.15m-15.82 1.55l-.4 3.7c-.84 1.65-1.62 3.32-2.34 5.02l-3.39.23c-.76 1.82-1 3.76-1.14 5.71-3.15.52-5.76-1.51-8.44-2.76l-.37 4.15c-3.3-.26-6.83-.01-9.34 2.43-4.6 4.15-10.54 7.76-12.27 14.1-1.54 5.05-5.94 9.29-5.34 14.89.79 3.8 1.59 7.67 3.38 11.15 1.05-1.43 2.24-2.78 3.06-4.37-.23-2.08-1.05-4.04-1.53-6.06 1.93 1.49 6.25 3.08 4.7 6.28-1.4 2.75-3.21 5.28-4.31 8.19l-.74.44c-1.57-2.2-3.2-4.45-5.57-5.86.22 2.16.36 4.42 1.45 6.35 1.27 1.56 2.97 2.69 4.52 3.96-.01 2.68-1.99 5.97.31 8.17 2.08 2.35 4.15 4.97 7.12 6.22 2.3 1.06 4.29-.67 6.25-1.62 2.25 1.63 4.77 2.65 7.45 1.28.79 1.04 4.58 2.82 2.47 3.94-4.36-.88-8.79-1.96-13.27-1.38 3.13 4.92 9.8 6.34 15.26 6.06 2.63-.07 3.3-3.76.64-4.57-.47-.75-.81-1.56-1.02-2.43 3.75-1.16 6.65-4.15 10.6-4.79-1.29 2.34-3.46 3.92-5.72 5.23-.56 2.49-.86 5.04-.86 7.6 2.65-.41 4.93-1.82 7.23-3.09 1.55 1.07 3.09 2.15 4.65 3.21 3.24-1.94 6.86-2.98 10.43-4.11 3.09-1.7 5.69-4.18 8.55-6.25 3.78-2.91 4.24-8.11 4.19-12.53-.12-5.88 2.34-11.7.89-17.56-2.07 1.81-3.83 3.91-5.43 6.13-.59-.04-1.78-.13-2.37-.18 1.21-3.39 3.69-6 6.69-7.91 3.45-2.2 3.76-6.7 3.04-10.35-.36-4.37-4-7.27-5.73-11.07-1.13-2.84-4.41-3.05-6.96-3.75-2-4.07-5.58-6.87-9.13-9.52.65-2.44.92-4.95.77-7.47-2.14 2.79-3.91 5.84-5.5 8.97-2.01 1.13-3.93 2.41-5.85 3.68.39-1.2.53-2.52 1.26-3.58 1.42-1.55 4.34-1.53 4.9-3.83.98-3.02 2.22-5.95 3.37-8.9-1.82-1.48-3.89-2.57-6.16-3.15m-14.08 9.24c1.46 1.3 2.93 2.62 4.77 3.36.45-1.14.82-2.3 1.1-3.5.58-1.1 1.15-2.21 1.7-3.33-1.07-1.06-2.14-2.11-3.21-3.16-2.21 1.66-3.5 4.06-4.36 6.63m53.65 10.04c.16.52.49 1.56.66 2.08 2.89 4.25 4.91 9.26 9.14 12.45-.83-6.06-6.02-10.17-9.8-14.53m.79 8.86c-1.43 3.7-2.82 7.51-2.76 11.54 3.05-1.04 5.92-2.52 8.72-4.11-1.52-2.83-3.67-5.21-5.96-7.43m24.38 2.56c-7.66.96-13.5 6.35-19.94 10.06-3.14 2.12-6.31 4.3-9.09 6.88-2.31 4.14-2.53 9.08-4.37 13.43-2 10.2 1.79 20.7 7.83 28.89 3 3.73 7.39 5.94 11.43 8.33 4.84 2.86 10.46 3.96 15.97 4.65 5.52.59 10.87-1.34 16.14-2.7 3.34-.79 6.76-1.81 9.43-4.08 5.46-4.31 7.59-11.27 9.61-17.65 1.23-4.87 3.15-9.99 1.63-15.03-2.63-9.34-7.01-18.89-15.27-24.54-6.82-4.7-14.81-9.07-23.37-8.24zM133.5 79.35c2.71 1.03 4.12 3.65 5.49 6.02.36.32 1.06.98 1.41 1.3-4.17.12-5.37-4.32-6.9-7.32zM114.22 83.44c-1.14-1.1.53-3.6 1.93-2.59 1.13 1.14-.46 3.61-1.93 2.59zM121.58 92.33c1.4 2.6 2.51 5.34 3.12 8.23l1.79-.04c.08-1.38.16-2.75.23-4.12l2.3-.02c.78 2.93 2.05 5.7 2.9 8.61.37 2.49-2.08 4.41-4.43 3.85.58-1.75 1.2-3.48 1.84-5.2-1.47-.14-2.93-.25-4.39-.35-1.81-.75-3.66-1.38-5.52-1.98-.99-1.88-1.99-3.77-2.9-5.7l2.9.42 1.01-4.71.47 6.59c.17-1.39.51-4.18.68-5.58zM82.55 95.72c.63 1.48 1.23 2.96 1.84 4.44 1.98-.9 3.94-1.86 5.94-2.72-.02.9-.06 2.71-.09 3.62-2.53 1.14-5.02 2.42-7.75 3.01-.29-2.77-.25-5.57.06-8.35zM99.92 100.58c1.5-1.3 2.84-3.39 5.14-2.9 2.85.95 4.64 3.52 5.96 6.06-3.01.86-4.95-1.08-6.35-3.48-1.58.09-3.17.21-4.75.32zM159.8 104.74c4.32-2.93 9.57-4.21 14.74-4.34l.15 1.44c4.98-1.53 10.53-2.65 15.43-.2 4.58 1.49 6.66 6.13 9.97 9.22 2.58 2.51 5.69 4.97 6.26 8.77 1.23 5.95 4.98 11.75 3.09 17.99-1.42 4.59-1.07 9.77-3.92 13.85-4.66 6.94-12.29 11.67-20.48 13.18-4.93.86-9.99 2.04-15 1.33-6.17-1.68-12.29-4.49-16.66-9.3-9.15-9.12-12.34-23.21-9.12-35.57 2.19-7.66 9.13-12.39 15.54-16.37m3.38.3c-2.77 1.11-2.07 4.6-1.73 6.94 3.07 5.05 7.27 9.37 11.75 13.19 1.96-7.38 3.48-15.06 2.32-22.7-4.23-.15-8.6.53-12.34 2.57m16.3-2.66c-1.66 3.99-1.23 8.36-1.61 12.57-.21 4.3-1.55 8.46-1.67 12.77 5.84-6.49 12.03-12.63 18.06-18.95-2.89-5.33-9.45-5.72-14.78-6.39m-33.28 18.84c6.92 6.91 17.35 7.88 26.57 9.1-.87-3.76-4.17-5.91-6.9-8.27-3.94-3.27-6.31-7.91-8.96-12.19-5.1 1.92-8.25 6.76-10.71 11.36m32.8 7.91c1.35.47 2.71.96 4.04 1.53 1.49.97 3.19 1.57 4.9 2.06 6.45 1.98 12.87 4.47 19.65 5 .66-4.85-1.19-9.48-2.66-14-7.78 2.26-15.38 6.94-23.73 5.8 7.64-1.95 14.87-5.73 22.84-6.17-.67-2.35-1.33-4.73-2.45-6.9-1.67-2.4-4.43-3.63-6.84-5.12-5.84 5.39-10.02 12.29-15.75 17.8m-30.35 14.63c6.9-5.49 15.04-9.23 23.75-10.7-5.57-2.11-11.59-2.42-17.21-4.33-2.92-.94-5.89-1.69-8.86-2.42-1.2 5.73-1.67 12.67 2.32 17.45m32.32-10.49c6.8 5.9 14.3 11 20.51 17.57 3.57-2.02 6.77-8.91 1.58-10.93-7.31-2.39-14.94-3.73-22.09-6.64m-23.96 8.82c-1.74 1.03-3.76 2.07-4.68 3.98-1.43 5.78 2.81 13.21 9.3 12.79 1.79-4.01 2.9-8.31 5-12.18 1.98-3.92 4.53-7.53 6.3-11.56-5.64 1.49-10.75 4.35-15.92 6.97m20.54-6.82c.57 6.33 3.96 11.88 5.2 18.05.84 2.92 1.12 6.62 4.17 8.17 4.32.16 7.88-3.03 10.81-5.86 1.44-.97 1.06-3.09-.18-4.05-3.22-3.21-6.82-6.06-10.75-8.35-3.55-2.09-5.82-5.71-9.25-7.96m-9.9 14.44c-2.05 3.77-3.56 8.59-.82 12.45 4.61 1.67 11.25 3.67 14.81-.87-3.19-7.98-4.23-16.63-7.41-24.59-3.68 3.44-4.19 8.76-6.58 13.01zM92.71 103.6c1.1-.17 2.21-.33 3.32-.47-.54 1.35-1.11 2.68-1.69 4.02l.1 4.39c-2.93.45-5.87.91-8.69 1.84-2.1-2.96-4.49-6.34-8.47-6.64l2.33-.15-.04-2.66c3.17 3.04 7.24 6.19 11.9 5.69.4-2.01.82-4.01 1.24-6.02zM119.88 109.1c.95-1.12 2.15-1.99 3.27-2.93.29 3.13.94 6.22 2.35 9.05-1.5 2.3-3.65 4-6.06 5.28-1.93.99-1.69 3.52-2.39 5.28l-1.96-.35c-.66-1.74-1.59-3.39-1.93-5.23 1.1-1.26 2.4-2.33 3.64-3.43.96-1.14 1.95-2.25 2.97-3.34l1.72 2.9c-.58-2.39-1.9-4.73-1.61-7.23zM93.1 119.68c2.11-1.59 4.2-3.56 7.04-3.42l.32 2c-1.2.61-2.41 1.22-3.62 1.82-.49 1.15-.98 2.3-1.48 3.45-2.07-1.08-4.17-2.12-6.25-3.2-1.29.53-2.57 1.05-3.87 1.54.25-1.84.32-3.8 1.42-5.39 2.6-.11 4.48 1.82 6.44 3.2zM87.88 127.28c4.46 1.26 8.7 3.3 13.43 3.39-.56 1.9-1.06 3.81-1.52 5.74 2.53-1.18 4.77-2.84 6.85-4.68 2.21-.04 4.42-.05 6.63.03-.83 1.29-1.85 2.5-3.43 2.83-2.76.78-5.14 2.42-7.76 3.51-3.9-.63-7.83-1.3-11.76-.45 0-1.52 0-3.04-.01-4.55-.97-1.87-1.81-3.8-2.43-5.82zM114.96 138.07c3.6-1.41 6.21-4.2 8.68-7.06.12 4.41-1.84 8.56-1.54 12.99.84.61 1.69 1.22 2.53 1.85-1.28 1.07-2.42 2.31-3.59 3.51-.71.08-1.42.17-2.12.26.17-.86.53-2.57.71-3.43-3.56-.87-6.27 1.77-9.24 3.14l.23-2.38c2.81-1.6 5.78-3.26 9.15-2.65 0-2.05.02-4.09.06-6.12l-3.43.4.34 1.01c-.61-.1-1.85-.29-2.46-.38.17-.29.51-.86.68-1.14zM128.36 132.62l2.21.23c-1.51 2.49-2.87 5.08-3.35 7.99.42.46 1.25 1.38 1.67 1.83l2.64-1.68c-.03.5-.08 1.48-.1 1.98-1.79.8-3.54 1.67-5.27 2.58-.54-.47-1.08-.94-1.6-1.42 2.01-2.32.45-5.32.84-8.02.83-1.29 1.94-2.36 2.96-3.49zM77.2 134.81c.81-.8 1.63-1.59 2.46-2.38.15 2.71.17 5.42.04 8.13-1.84-.87-3.58-1.92-5.23-3.11l-.18-2.74 2.91.1z"/></g></svg>