<?xml version="1.0" encoding="UTF-8" standalone="no"?>
<!DOCTYPE svg  PUBLIC '-//W3C//DTD SVG 1.1//EN'  'http://www.w3.org/Graphics/SVG/1.1/DTD/svg11.dtd'>
<svg width="280pt" xmlns="http://www.w3.org/2000/svg" viewBox="0 0 280 180" version="1.1" height="180pt">
 <g id="#fefefeff" fill="#fefefe">
  <path d="m0 0h280v180h-280v-180m145.94 24.47c-1.2 2.11-2.73 4.02-5.22 4.58-3.01 0.76-3.84 3.95-4.63 6.54 2.07-0.4 4.09-1.07 5.94-2.08-1.89 2.52-3.63 5.32-3.86 8.56 4.27-1.78 7.63-5.26 8.7-9.82 3.27-0.5 6.58-0.68 9.89-0.61 0.03-0.24 0.07-0.72 0.1-0.96-3.12-1.11-6.32-1.99-9.57-2.64 0.04-1.18 0.09-2.36 0.13-3.54-0.37 0-1.11-0.02-1.48-0.03m-17.48 1.92c-0.6 7.23 1.37 14.41 4.26 20.98 0.98 1.99 1.91 4.36 4.38 4.91-0.78-2.76-1.74-5.52-1.78-8.42-0.16-6.41-2.65-12.65-6.86-17.47m-21.68 4.87c2.98 2.35 5.88 4.78 8.83 7.17 3.38 2.63 7.75 3.25 11.85 3.96-0.02-0.39-0.07-1.15-0.09-1.53-3.56-1.16-6.14-3.9-8.93-6.23-3.27-2.67-7.62-3.06-11.66-3.37m-9.55 14.67c-1.78-2.21-3.51-4.87-6.41-5.7-4.57-1.3-10.17-0.54-13.41 3.21-2.72 3.12-2.53 7.67-1.78 11.48 0.95 3.87 4.87 5.82 8.45 6.62 0.1 0.52 0.29 1.57 0.39 2.09-2.46 0.55-5.23 0.86-7.09 2.76-3.57 3.38-4.04 9.07-2.2 13.44 1.67 4.03 6.5 6.09 10.65 5.3 2.79-0.6 5.58-1.6 7.85-3.38 1.94-1.46 2.71-3.86 4.2-5.69 3.05-0.94 6.31-1.31 9.03-3.12 2.06-1.42 4.64-0.48 6.91-1.1 0.72-2-2.05-3.35-1.83-5.48 5.6 1.74 11.22 3.72 17.17 3.66 2.96 2.91 6.34 6.14 10.79 6.11 4.87 0.05 9.19 2.69 14 3.19 3.36 0.31 6.81 1.69 10.15 0.53 2.33-0.16 4.68-0.34 7.01-0.13 3.87 0.54 6.99 3.45 10.87 3.83 3.24-1.29 6.56-2.47 10.08-2.65 6.83-0.83 14.38 1.37 20.61-2.38 1.58-0.77 0.62-2.89 0.84-4.24-2.52-0.38-5.04-0.08-7.55 0.06-4.31-3.32-8.2-7.23-12.12-10.97-2.73-5.46-7.48-10.56-13.9-11.11 1.83 1.42 4.05 2.45 5.4 4.42 2.27 3.11 3.06 7.23 6.13 9.76 3.48 2.93 7.88 4.85 10.42 8.81-1.72 1.28-3.48 2.94-5.82 2.62-11.71-0.03-23.41 0.69-35.11 0.43-4.5-0.02-8.82-1.47-13.03-2.92 6.5-5.67 4.35-18.71-4.52-20.61-4.71-1.33-8.93 1.57-13.19 3.02-3.9-4.68-10.37-4.81-15.95-4.48 3.36 5.56 10.39 6.4 16.29 6.01-0.8 2.86-1.48 5.75-2.08 8.66-4.48 0.14-9.01-1.08-12.63-3.79-1.7-1.41-3.8-2.12-5.9-2.7-0.98-5.53-6.05-8.66-11.27-9.37 1.61-2.38 3.44-4.67 4.52-7.36 1.04-2.61 0.53-5.46 0.27-8.16-1.47 3.49-3.33 6.83-6.24 9.33m45.93 0.16c-0.92-1.03-4.32-3.33-3.82-0.15-0.04 0.67-0.11 2.01-0.14 2.68 8.04 2.11 12.6-6.77 20.03-7.69-2.25-0.88-4.6-1.86-7.06-1.35-3.94 0.43-6.41 3.92-9.01 6.51m-101.98-5.39c-0.89 3.94 3.53 4.37 6.28 5.07 3.62 2.61 6.87 5.8 10.89 7.81 4.4 2.22 9.45 1.83 14.22 1.75-3.23-1.69-6.8-2.48-10.26-3.49-3.79-1.07-7.19-3.13-10.84-4.57l-0.16-2.01c1.75-0.29 3.75-1.51 5.24 0.07 4.27 3.18 9.52 4.22 14.47 5.85 0.4 0.06 1.21 0.2 1.62 0.26-0.13-0.38-0.4-1.16-0.53-1.55-4.38-1.87-8.99-3.35-12.88-6.18-5.15-3.74-11.97-4.64-18.05-3.01m69.78 1.17c-0.19 0.31-0.57 0.92-0.76 1.23 3.19 1.15 6.03 3 8.9 4.77 3.68 2.32 8.16 2.24 12.35 2.43 0.02-0.47 0.08-1.42 0.11-1.9-4.4 0.43-7.56-2.93-11.03-5.02-2.85-1.8-6.34-1.56-9.57-1.51m80.87 8.26c2.85 3.7 8.2 3.34 11.61 6.27 2.66 2.35 5.12 4.99 8.25 6.74 1.42 0.94 3.15 1.53 4.25 2.89 1.24 3.15 0.56 7.17 3.44 9.54 2.62 3.09 6.68 4.02 10.03 5.98 2.98 3 5.33 6.57 7.86 9.95-5.03 0.32-10.52 3.15-15.3 0.48-3.75-2.72-3.27-7.97-5.37-11.72-6.02 2.81-11.62 6.46-18.01 8.42-3.45 1.74-8.3 1.88-10.14 5.77 3.8 0.11 6.9-2.35 10.35-3.53 3.81-1.55 8.01-1.68 12.06-1.41 4.98 0.46 9.04 4.22 11.17 8.56 1.22 2.39 1.62 5.44 4.26 6.78 0.51-2.39-0.73-4.41-1.93-6.34 2.95-3.97 8.44-3.06 12.73-2.66 3.94 0.27 6.91 3.15 8.97 6.29-1.13 1.39-1.98 3.48-4.02 3.64-2.87 0.48-5.13-1.73-7.2-3.34-2.74 0.12-5.5 0.1-8.24 0.2 4.62 5.88 12.93 6.93 19.65 4.52 2.02-1.04 4.63-2.67 3.86-5.35-0.74-4.24-4.46-6.84-7.55-9.39-3.23-2.57-5.46-6.12-7.24-9.79-6.03-3.71-11.23-8.77-15.68-14.25-3.16-5.08-6.96-9.98-12.23-13.01-4.34-2.71-9.86-3.45-13.47-7.28-2.1-1.9-2.37-4.87-3.04-7.44-0.6 3.13-1.33 6.83 0.93 9.48m-152-2.6c-1.01 6.38-0.38 13.14 3.27 18.62 0.96-1.88 1.7-3.9 1.36-6.06-0.42-4.42-1.2-9.38-4.63-12.56m6.8 7.12c-0.15 2.34-0.51 4.66-1.15 6.92l0.75-0.07c0.29 3.18 1.16 6.26 2.12 9.3 0.5-0.13 1.52-0.38 2.03-0.5 0.56-5.36-0.91-10.54-2.27-15.66-0.37 0.01-1.11 0.01-1.48 0.01m121.37 1.81c2.74 2.72 6.35 4.82 7.73 8.63 1.83 4.57 5.3 8.33 9.4 10.99-1.04-4.11-0.9-8.92-4.07-12.12-3.51-3.59-7.84-7.18-13.06-7.5m32.38 0.22c2.39 5.77 5.83 11.55 11.91 14.03 0.79-1.27 1.56-2.56 2.29-3.87-5.08-2.9-9.97-6.08-14.2-10.16m-178.69 3.44c6.34 5.09 13.81 10.01 22.31 9.47-3.58-2.9-7.15-6.31-11.89-7.1-3.51-0.61-6.92-1.65-10.42-2.37m30.89 16.04c2.38-1.02 4.39-2.88 4.81-5.54 0.6-3.71 1.73-7.27 3.47-10.61-6.77 2.14-9.09 9.72-8.28 16.15m105.09-13.2c2.15 0.87 4.65 1.23 6.38 2.9 2.48 2.39 4.24 5.49 7.11 7.5 0.1 0.55 0.3 1.64 0.4 2.19 1.65 0.33 3.3 0.61 4.97 0.83-1.1-3.23-4.29-4.99-5.82-7.94-1.45-2.5-2.21-5.9-5.22-7.01-2.64-1.75-5.46 0.31-7.82 1.53m-99.41 15.26c-0.67 0.61-1.33 1.23-2 1.84 0.92 1.35 1.86 2.68 2.81 4.01 4.45-5.19 6.96-11.75 12-16.49-5.87 0.77-10.52 5.38-12.81 10.64m-36.67-2.76c3.1-0.39 6.22-0.96 9.35-0.43 4.32 0.71 8.69-1.65 12.92 0.08 3.11 1.15 7.01 2.18 8.34 5.6-2.72-0.48-5.36-1.28-8.05-1.88-4.28-0.85-8.54 0.69-12.47 2.23 5.66 0.44 11.11 2.17 16.78 2.52l0.24-1.38c0.46 0.16 1.38 0.47 1.84 0.62l-0.24-1.13c1.32-0.62 2.65-1.24 3.98-1.86-0.33-0.11-0.97-0.34-1.29-0.45-1.71-3.08-4.1-5.78-6.89-7.91-3.08 1.13-6.23 0.68-9.28-0.28-5.45-1.66-11.12 0.7-15.23 4.27m94.31-3.78c-0.13 1.38-0.59 2.68-1.2 3.91-3.67 1.27-7.52 1.9-11.25 2.94-2.67 0.73-4.4 3.02-5.95 5.14 4.97-0.7 10.09 0.09 14.98-1.2 2.88-0.7 4.4-3.6 5.46-6.11 2.6 3.63 5.05 7.37 7.77 10.91 3.16 4.07 8.56 5.91 13.6 5.12-8.21-3.41-11.23-14.37-20.7-15.3-0.25-1.31-0.48-2.61-0.69-3.92 6.37-0.04 12.29 2.89 17.03 6.98 3.94 3.39 8.93 5.48 14.16 5.59-4.11 9.65-15.78 12.13-25.23 11.84-1.12-2.92-1.32-6.47-3.78-8.67-4.97-4-13.12-4.36-17.61 0.58-3.46 3.16-2.4 8.41-0.9 12.28-4.96 0.15-9.96 0.31-14.89-0.44-2.32-4.32-3.04-10.75-8.74-12.01-5.27-2.01-10.29 1.3-14.91 3.45-1.69-3.01-3.63-5.87-5.92-8.46-5.19-0.81-10.27 0.62-15.1 2.41l0.92 1.48c4.82 0.48 9.69-0.06 14.2-1.86 0.93 3.96 2.64 7.67 3.94 11.51-7.18-1.15-13.82-4.52-21.03-5.45 5.88 3.76 12.31 6.53 18.83 8.95 3.4 0.85 3.43 4.96 5.64 7.12 2.53 3.09 6.8 3.38 10.44 4.05 1.81 2.22 3.8 4.28 5.81 6.31 3.17-0.25 5.41-2.78 8.33-3.75 5.22-1.74 9.13-6.18 14.76-7.02-1.97 3.68-3.66 8.07-1.97 12.19 2.54 5.08 8.88 6.26 14.05 6.25 4.23 0.12 8.25-3.38 8.58-7.61 0.08-3.99-1.24-7.82-2.71-11.47 9.26-0.4 18.15-3.21 26.65-6.72l0.56 0.35c2.21 3.3 2.45 7.26 2.95 11.08 0.37 3.4 2.35 6.26 4.16 9.06 0.84 0.48 1.68 0.96 2.52 1.45-1.26-5.41-1.02-11.14-3.2-16.33-1.05-2.1-2.82-3.71-4.28-5.53-0.02-0.3-0.06-0.91-0.07-1.21 5.84-2.64 11.67-5.57 17.95-7.05 1.59-0.39 4.29-0.46 4.72 1.58-0.44 3.03-2.15 5.79-2.05 8.93 0.01 5.12 0.78 10.25-0.1 15.35 0.32-0.82 0.65-1.63 0.99-2.45 2.4-3.34 4.27-7.11 5.24-11.11 0.94-4.32-0.2-8.69-0.69-12.98 1.63-0.36 3.26-0.72 4.9-1.08 1.62 0.65 3.25 1.26 4.9 1.87-0.38-1.68 0.16-4.11-1.96-4.77-2.63-1.12-5.33 0.53-7.4 2.06-1.19-0.31-2.39-0.64-3.58-0.96-5.01 1.42-10.43-0.17-15.31 1.82-4.48 1.54-7.77 5.61-12.75 5.84-0.14 0.84-0.29 1.68-0.43 2.53-1.66 1.15-3.27 2.57-5.35 2.86-6.88 1.3-13.9 1.98-20.9 1.71 0.05-0.62 0.15-1.86 0.2-2.47 2.57-1.58 5.62-1.09 8.48-1.11 4.83 0.02 9.86-0.6 14.11-3.07 5.02-2.83 7.66-8.53 12.89-11.08 2.91-1.26 6.08-1.76 9.11-2.67-0.47-0.49-1.41-1.46-1.88-1.95-3.97 0.65-7.94 1.87-12.01 1.29-8.88-0.94-15.76-7.22-23.99-10.04-3.45-0.27-7.02 0.57-10.3-0.94m48.9 12.33c-2.28 0.35-1.62 5.2 0.85 3.93 3.44-1.24 6.99-2.12 10.57-2.87-3.37-2.24-7.64-1.58-11.42-1.06m12.45 29.51l-0.62 0.16c0.01 0.53 0.05 1.59 0.06 2.12 3.59-3.74 7.59-7.35 9.61-12.23 1.51-3.44 1.88-7.23 2.16-10.94-6.75 4.91-9.31 13.16-11.21 20.89m-39.05-7.54c3.9 4.31 1.58 10.54 4.27 15.4 1.82 3.09 2.74 6.83 5.46 9.31-0.37-5.98-0.55-12.17-2.83-17.8-1.58-2.86-3.23-6.52-6.9-6.91m-8.46 17.23c1.24 4.24 0.51 8.67 0.85 13.01 1.53-3.84 1.94-8.06 2.96-12.06 1.43-6.06-1.25-12.01-4.78-16.79-2.57 5.12-0.43 10.73 0.97 15.84m-66.63-9c0.12 0.41 0.38 1.24 0.51 1.66 1.65 0.59 3.32 1.16 4.91 1.94 3.23 1.6 4.78 5.45 8.36 6.49-0.75-2.96-1.63-6.07-3.84-8.31-2.66-2.55-6.63-1.55-9.94-1.78m-14.39 2.39c3.14 4.67 9.49 4.63 13.36 8.37 1.42 1.39 2.35 3.17 3.48 4.79 1.6-4.17-0.78-9.48-4.91-11.17-3.92-0.96-8-1.06-11.93-1.99m40.6 0.95c3.28 6.07 2.18 14.87 8.92 18.66-0.32-6.78-2.51-13.45-7.12-18.53-0.45-0.03-1.35-0.09-1.8-0.13m89.49 2.62c-3.44 0.81-5.13 4.07-7.33 6.47-2.99-1.44-5.93-3.79-9.47-3.12-5.67 0.28-10.07 6.09-9.39 11.61 1.02 7.39 10.88 12.09 17.06 7.65 1.88-1.1 2.67-3.2 3.25-5.19 3.22 2.33 6.89 4.58 10.99 4.58 5.67-1.46 9.65-7.62 8.22-13.39-1.04-5.91-7.45-10.39-13.33-8.61m-94.42 0.57c0.16 2.85 1.98 5.29 1.94 8.17 0.06 5.52 2.19 11.04 6.12 14.97-1.02-4.99-0.61-10.25-2.52-15.05-1.09-3.14-3.23-5.76-5.54-8.09m-43.47 1.66c6.86 3.37 12.87 10.25 21.35 8.02-3.23-1.52-6.07-3.63-9.05-5.55-3.65-2.34-8.11-2.42-12.3-2.47m30.99 4.12c-1.83 2.97-5.03 4.93-6.97 7.59 1.58 7.65 1.06 17.36 8.63 22.05-1.12-3.86-2.23-7.76-2.34-11.82 0.57-0.7 1.15-1.4 1.72-2.1 0.8 5.19 5.43 8.3 8.76 11.91-3-7.88-2.66-17.75-9.95-23.34 1.4-0.93 2.81-1.84 4.23-2.72 0.63 0.44 1.89 1.32 2.52 1.77 0.48 2.04 0.9 4.1 1.14 6.19 0.55 7.39 5.24 14.14 11.39 18.07-1.33-3.03-3.19-5.81-4.21-8.97-1.15-3.55-1.68-7.27-3.16-10.71-2.07-4.52-6.22-9.24-11.76-7.92m-39.98 4.26c-0.7-0.1-2.09-0.28-2.79-0.38 2.29 1.96 4.8 3.81 7.79 4.47 4.44 1.28 8.97-0.01 13.39-0.62 0.08 1.68 0.17 3.36 0.31 5.04-3.71 1.42-7.51 3.04-10.33 5.92-1.95 2-2.8 4.73-4.06 7.16 3.75-3.26 8.25-5.36 12.6-7.67 3.73-1.94 6.28-5.57 7.05-9.69-2.78-1.89-5.54-4.29-9.02-4.64-5.03-0.8-10.07 2.83-14.94 0.41m28.82 6.25c-3.99 6.44-3.92 14.37-2.18 21.51 1.93-2.47 1.96-5.77 2.88-8.65 0.87-4.09 2.43-8.73 0.39-12.69-0.27-0.04-0.82-0.13-1.09-0.17m110.31 6.94c-5.39 1.1-7.52 6.91-8.15 11.75-1.01 4.9 2.06 10.17 6.9 11.58 4.72 2.21 10-0.75 13.15-4.3 3.65-4.64 3.53-12.06-0.66-16.33-2.91-2.9-7.38-3.3-11.24-2.7z"/>
  <path d="m80.06 54.91c-3-2.76-1.88-7.15-1.52-10.7 0.73 1.31 1.43 2.63 2.15 3.94 1.25 0 2.5 0 3.75 0.01 0.52 1.09 1.04 2.18 1.55 3.28 0.81 0.16 1.62 0.32 2.44 0.48 0.05-1.93 0.1-3.85 0.17-5.77 2.14 0.11 4.8 0.12 5.68 2.52 0.4 7.03-9.28 10.29-14.22 6.24z"/>
  <path d="m89.79 62.17c0.56-3.14 3.4-5.27 6.24-6.27 3.06-0.68 5.64 1.47 8.03 3.02-0.71 1.33-1.79 2.35-3.03 3.18-0.59-1.27-1.18-2.55-1.77-3.82-0.94 0.02-1.87 0.03-2.81 0.05 0.02 1.14 0.03 2.27 0.04 3.4-2.22 0.44-4.19 1.45-4.19 3.99 1.58-0.01 3.15-0.03 4.73-0.08 1.14 0.85 2.32 1.65 3.53 2.41-0.82 0.76-1.65 1.52-2.47 2.28-3.25-0.78-6.49-2.14-8.45-4.99-0.64-1.42-2.62-1.08-3.37-2.16 0.67-1.29 2.35-0.72 3.52-1.01z"/>
  <path d="m140.13 57.14c1.48 0.52 2.94 1.1 4.42 1.64-0.29 1.55-0.55 3.09-0.78 4.64 1.31 0.57 2.7 0.68 4.18 0.34-0.24 1.86 0.16 4.14-1.63 5.39-1.24-2.44-3.39-4.39-6.23-3.27 0.57 1.99 1.28 3.94 1.8 5.96-2.33 0.19-4.3-0.85-5.83-2.53 0.67-0.65 2.01-1.96 2.68-2.61-1.43-0.63-2.87-1.22-4.32-1.79-0.05-1.69-0.03-3.37 0.05-5.06 1.97 1.4 3.47 3.78 6.04 4.08 0.16-2.27-0.21-4.53-0.38-6.79z"/>
  <path d="m101.91 63.8c1.43 0.88 2.8 1.87 4.06 3-1.7 1.27-3.49 2.43-5.37 3.41 0.5-2.13 0.98-4.26 1.31-6.41z"/>
  <path d="m79.79 67.82c1.71-1.63 4.1-2.2 6.4-2.03-0.15 1.56-0.35 3.1-0.59 4.64 1.99 0.88 4.27 1.36 5.87 2.91 0.51 2.16 0.64 5.72-2.02 6.48-1.29-1.1-2.71-2.04-4.38-2.45-0.69 1.83-1.37 3.66-2.02 5.5-1.8-1.96-3.54-3.99-5.3-5.98 0.38-2.99-0.82-7.04 2.04-9.07z"/>
  <path d="m105.95 90.99c2.54-3.09 7.1-2.62 10.52-1.51 2.24 3.22 2.42 7.95-1.13 10.39-0.1-2.03-0.15-4.06-0.16-6.09-1.11-0.48-2.23-0.97-3.34-1.44-0.57 1.6-1.13 3.2-1.68 4.8-2.39-0.12-4.42 0.59-5.15 3.08 1.54 0.26 3.1 0.54 4.63 0.88-1.4 0.19-2.8 0.37-4.2 0.53-2.18-3.19-2.18-7.74 0.51-10.64z"/>
  <path d="m65.56 103c-2.81-6.01 4.38-12.58 10.37-10.62 5.88 1.18 6.95 10.68 1.45 13.06-1.77 0.62-3.7 0.39-5.54 0.52 1.18-2.36 2.26-4.79 2.91-7.36-0.48-0.58-1.45-1.74-1.93-2.32-3.34 0.41-4.94 3.21-5.49 6.29-0.44 0.11-1.33 0.32-1.77 0.43z"/>
  <path d="m98.3 105.29l1.53-1.46c-1.08 2.2-3.21 3.73-5.39 4.73-4.14 1.95-7.96 4.5-11.54 7.33-0.52-0.19-1.54-0.58-2.05-0.77l-1.65-4.11c2.37-1.48 4.32-3.53 6.65-5.05 4.11-0.67 8.33-0.06 12.45-0.67z"/>
  <path d="m107.31 113.88c0.81-2.27 0.45-5.67 3.4-6.35 2.61-0.14 5.73 0.13 7.53 2.28 2.43 2.36 1.47 6.03 1.52 9.05-2.05-0.29-4.08-0.71-6.15-0.73-0.66 1.88-0.05 3.94-0.06 5.88-1.62-0.85-4.13-0.89-4.75-2.92-0.06-0.75-0.16-2.24-0.21-2.98-1.34 0.02-2.67 0.14-4.01 0.2-0.03-0.87-0.07-1.74-0.13-2.61 0.96-0.61 1.91-1.22 2.86-1.82m3.19-1.01c0.35 0.71 1.07 2.13 1.42 2.84 1.15-0.09 2.3-0.19 3.46-0.28-0.07-0.86-0.14-1.72-0.2-2.58-0.55-0.33-1.65-1.01-2.2-1.34l-2.48 1.36z"/>
  <path d="m175.32 126.13c2.97-3.1 8.76-3.53 11.31 0.28 2.45 2.96 1.97 7.05 0.48 10.33-2.69-0.11-3.13-2.66-4.3-4.52-2.08-1.81-4.65-0.15-6.32 1.36-0.98-2.37-1.35-4.9-1.17-7.45z"/>
  <path d="m159.8 127.27c2.15 0.14 4.78-0.42 6.38 1.44 2.32 2.32 2.03 5.81 1.51 8.77-2.12 1.43-4.63 3.11-7.26 1.84-3.14-0.76-4.26-3.93-5.09-6.67 1.48-0.42 2.96-0.87 4.45-1.26 0-1.38 0.01-2.75 0.01-4.12z"/>
  <path d="m67.73 134.6c1.27-1.05 2.55-2.1 3.83-3.16 0.25 3.07 0.61 6.13 1 9.19-0.52 0.75-1.04 1.5-1.57 2.25-0.49-2.97-1.56-5.79-3.26-8.28z"/>
  <path d="m167.55 150.5c2.46-3.08 6.83-2.55 10.31-2.19 2.93 0.82 4.49 3.84 4.01 6.77-0.71 0.13-1.42 0.26-2.13 0.4-0.15-1.1-0.29-2.19-0.44-3.29-0.69-0.48-2.09-1.46-2.78-1.94-0.59 1.85-0.88 3.77-1.04 5.71-0.38-0.1-1.13-0.29-1.51-0.39-1.09-1.64-2.19-3.37-4.02-4.26-3.08 3.23 2.21 6.44 0.38 9.93-1.14 0.71-2.36 1.24-3.67 1.59-1.05-3.95-1.98-8.91 0.89-12.33z"/>
  <path d="m173.9 159.69c0.47-0.1 1.42-0.31 1.9-0.41 0.03 0.75 0.09 2.24 0.12 2.99-0.88 0.11-1.77 0.22-2.65 0.33 0.21-0.97 0.42-1.94 0.63-2.91z"/>
 </g>
 <g id="#044991ff" fill="#044991">
  <path d="m145.94 24.47c0.37 0.01 1.11 0.03 1.48 0.03-0.04 1.18-0.09 2.36-0.13 3.54 3.25 0.65 6.45 1.53 9.57 2.64-0.03 0.24-0.07 0.72-0.1 0.96-3.31-0.07-6.62 0.11-9.89 0.61-1.07 4.56-4.43 8.04-8.7 9.82 0.23-3.24 1.97-6.04 3.86-8.56-1.85 1.01-3.87 1.68-5.94 2.08 0.79-2.59 1.62-5.78 4.63-6.54 2.49-0.56 4.02-2.47 5.22-4.58z"/>
  <path d="m128.46 26.39c4.21 4.82 6.7 11.06 6.86 17.47 0.04 2.9 1 5.66 1.78 8.42-2.47-0.55-3.4-2.92-4.38-4.91-2.89-6.57-4.86-13.75-4.26-20.98z"/>
  <path d="m106.78 31.26c4.04 0.31 8.39 0.7 11.66 3.37 2.79 2.33 5.37 5.07 8.93 6.23 0.02 0.38 0.07 1.14 0.09 1.53-4.1-0.71-8.47-1.33-11.85-3.96-2.95-2.39-5.85-4.82-8.83-7.17z"/>
  <path d="m97.23 45.93c2.91-2.5 4.77-5.84 6.24-9.33 0.26 2.7 0.77 5.55-0.27 8.16-1.08 2.69-2.91 4.98-4.52 7.36 5.22 0.71 10.29 3.84 11.27 9.37 2.1 0.58 4.2 1.29 5.9 2.7 3.62 2.71 8.15 3.93 12.63 3.79 0.6-2.91 1.28-5.8 2.08-8.66-5.9 0.39-12.93-0.45-16.29-6.01 5.58-0.33 12.05-0.2 15.95 4.48 4.26-1.45 8.48-4.35 13.19-3.02 8.87 1.9 11.02 14.94 4.52 20.61 4.21 1.45 8.53 2.9 13.03 2.92 11.7 0.26 23.4-0.46 35.11-0.43 2.34 0.32 4.1-1.34 5.82-2.62-2.54-3.96-6.94-5.88-10.42-8.81-3.07-2.53-3.86-6.65-6.13-9.76-1.35-1.97-3.57-3-5.4-4.42 6.42 0.55 11.17 5.65 13.9 11.11 3.92 3.74 7.81 7.65 12.12 10.97 2.51-0.14 5.03-0.44 7.55-0.06-0.22 1.35 0.74 3.47-0.84 4.24-6.23 3.75-13.78 1.55-20.61 2.38-3.52 0.18-6.84 1.36-10.08 2.65-3.88-0.38-7-3.29-10.87-3.83-2.33-0.21-4.68-0.03-7.01 0.13-3.34 1.16-6.79-0.22-10.15-0.53-4.81-0.5-9.13-3.14-14-3.19-4.45 0.03-7.83-3.2-10.79-6.11-5.95 0.06-11.57-1.92-17.17-3.66-0.22 2.13 2.55 3.48 1.83 5.48-2.27 0.62-4.85-0.32-6.91 1.1-2.72 1.81-5.98 2.18-9.03 3.12-1.49 1.83-2.26 4.23-4.2 5.69-2.27 1.78-5.06 2.78-7.85 3.38-4.15 0.79-8.98-1.27-10.65-5.3-1.84-4.37-1.37-10.06 2.2-13.44 1.86-1.9 4.63-2.21 7.09-2.76-0.1-0.52-0.29-1.57-0.39-2.09-3.58-0.8-7.5-2.75-8.45-6.62-0.75-3.81-0.94-8.36 1.78-11.48 3.24-3.75 8.84-4.51 13.41-3.21 2.9 0.83 4.63 3.49 6.41 5.7m-17.17 8.98c4.94 4.05 14.62 0.79 14.22-6.24-0.88-2.4-3.54-2.41-5.68-2.52-0.07 1.92-0.12 3.84-0.17 5.77-0.82-0.16-1.63-0.32-2.44-0.48-0.51-1.1-1.03-2.19-1.55-3.28-1.25-0.01-2.5-0.01-3.75-0.01-0.72-1.31-1.42-2.63-2.15-3.94-0.36 3.55-1.48 7.94 1.52 10.7m9.73 7.26c-1.17 0.29-2.85-0.28-3.52 1.01 0.75 1.08 2.73 0.74 3.37 2.16 1.96 2.85 5.2 4.21 8.45 4.99 0.82-0.76 1.65-1.52 2.47-2.28-1.21-0.76-2.39-1.56-3.53-2.41-1.58 0.05-3.15 0.07-4.73 0.08 0-2.54 1.97-3.55 4.19-3.99-0.01-1.13-0.02-2.26-0.04-3.4 0.94-0.02 1.87-0.03 2.81-0.05 0.59 1.27 1.18 2.55 1.77 3.82 1.24-0.83 2.32-1.85 3.03-3.18-2.39-1.55-4.97-3.7-8.03-3.02-2.84 1-5.68 3.13-6.24 6.27m50.34-5.03c0.17 2.26 0.54 4.52 0.38 6.79-2.57-0.3-4.07-2.68-6.04-4.08-0.08 1.69-0.1 3.37-0.05 5.06 1.45 0.57 2.89 1.16 4.32 1.79-0.67 0.65-2.01 1.96-2.68 2.61 1.53 1.68 3.5 2.72 5.83 2.53-0.52-2.02-1.23-3.97-1.8-5.96 2.84-1.12 4.99 0.83 6.23 3.27 1.79-1.25 1.39-3.53 1.63-5.39-1.48 0.34-2.87 0.23-4.18-0.34 0.23-1.55 0.49-3.09 0.78-4.64-1.48-0.54-2.94-1.12-4.42-1.64m-38.22 6.66c-0.33 2.15-0.81 4.28-1.31 6.41 1.88-0.98 3.67-2.14 5.37-3.41-1.26-1.13-2.63-2.12-4.06-3m-22.12 4.02c-2.86 2.03-1.66 6.08-2.04 9.07 1.76 1.99 3.5 4.02 5.3 5.98 0.65-1.84 1.33-3.67 2.02-5.5 1.67 0.41 3.09 1.35 4.38 2.45 2.66-0.76 2.53-4.32 2.02-6.48-1.6-1.55-3.88-2.03-5.87-2.91 0.24-1.54 0.44-3.08 0.59-4.64-2.3-0.17-4.69 0.4-6.4 2.03z"/>
  <path d="m143.16 46.09c2.6-2.59 5.07-6.08 9.01-6.51 2.46-0.51 4.81 0.47 7.06 1.35-7.43 0.92-11.99 9.8-20.03 7.69 0.03-0.67 0.1-2.01 0.14-2.68-0.5-3.18 2.9-0.88 3.82 0.15z"/>
  <path d="m41.18 40.7c6.08-1.63 12.9-0.73 18.05 3.01 3.89 2.83 8.5 4.31 12.88 6.18 0.13 0.39 0.4 1.17 0.53 1.55-0.41-0.06-1.22-0.2-1.62-0.26-4.95-1.63-10.2-2.67-14.47-5.85-1.49-1.58-3.49-0.36-5.24-0.07l0.16 2.01c3.65 1.44 7.05 3.5 10.84 4.57 3.46 1.01 7.03 1.8 10.26 3.49-4.77 0.08-9.82 0.47-14.22-1.75-4.02-2.01-7.27-5.2-10.89-7.81-2.75-0.7-7.17-1.13-6.28-5.07z"/>
  <path d="m110.96 41.87c3.23-0.05 6.72-0.29 9.57 1.51 3.47 2.09 6.63 5.45 11.03 5.02-0.03 0.48-0.09 1.43-0.11 1.9-4.19-0.19-8.67-0.11-12.35-2.43-2.87-1.77-5.71-3.62-8.9-4.77 0.19-0.31 0.57-0.92 0.76-1.23z"/>
  <path d="m191.83 50.13c-2.26-2.65-1.53-6.35-0.93-9.48 0.67 2.57 0.94 5.54 3.04 7.44 3.61 3.83 9.13 4.57 13.47 7.28 5.27 3.03 9.07 7.93 12.23 13.01 4.45 5.48 9.65 10.54 15.68 14.25 1.78 3.67 4.01 7.22 7.24 9.79 3.09 2.55 6.81 5.15 7.55 9.39 0.77 2.68-1.84 4.31-3.86 5.35-6.72 2.41-15.03 1.36-19.65-4.52 2.74-0.1 5.5-0.08 8.24-0.2 2.07 1.61 4.33 3.82 7.2 3.34 2.04-0.16 2.89-2.25 4.02-3.64-2.06-3.14-5.03-6.02-8.97-6.29-4.29-0.4-9.78-1.31-12.73 2.66 1.2 1.93 2.44 3.95 1.93 6.34-2.64-1.34-3.04-4.39-4.26-6.78-2.13-4.34-6.19-8.1-11.17-8.56-4.05-0.27-8.25-0.14-12.06 1.41-3.45 1.18-6.55 3.64-10.35 3.53 1.84-3.89 6.69-4.03 10.14-5.77 6.39-1.96 11.99-5.61 18.01-8.42 2.1 3.75 1.62 9 5.37 11.72 4.78 2.67 10.27-0.16 15.3-0.48-2.53-3.38-4.88-6.95-7.86-9.95-3.35-1.96-7.41-2.89-10.03-5.98-2.88-2.37-2.2-6.39-3.44-9.54-1.1-1.36-2.83-1.95-4.25-2.89-3.13-1.75-5.59-4.39-8.25-6.74-3.41-2.93-8.76-2.57-11.61-6.27z"/>
  <path d="m39.83 47.53c3.43 3.18 4.21 8.14 4.63 12.56 0.34 2.16-0.4 4.18-1.36 6.06-3.65-5.48-4.28-12.24-3.27-18.62z"/>
  <path d="m46.63 54.65c0.37 0 1.11 0 1.48-0.01 1.36 5.12 2.83 10.3 2.27 15.66-0.51 0.12-1.53 0.37-2.03 0.5-0.96-3.04-1.83-6.12-2.12-9.3l-0.75 0.07c0.64-2.26 1-4.58 1.15-6.92z"/>
  <path d="m168 56.46c5.22 0.32 9.55 3.91 13.06 7.5 3.17 3.2 3.03 8.01 4.07 12.12-4.1-2.66-7.57-6.42-9.4-10.99-1.38-3.81-4.99-5.91-7.73-8.63z"/>
  <path d="m200.38 56.68c4.23 4.08 9.12 7.26 14.2 10.16-0.73 1.31-1.5 2.6-2.29 3.87-6.08-2.48-9.52-8.26-11.91-14.03z"/>
  <path d="m21.69 60.12c3.5 0.72 6.91 1.76 10.42 2.37 4.74 0.79 8.31 4.2 11.89 7.1-8.5 0.54-15.97-4.38-22.31-9.47z"/>
  <path d="m52.58 76.16c-0.81-6.43 1.51-14.01 8.28-16.15-1.74 3.34-2.87 6.9-3.47 10.61-0.42 2.66-2.43 4.52-4.81 5.54z"/>
  <path d="m157.67 62.96c2.36-1.22 5.18-3.28 7.82-1.53 3.01 1.11 3.77 4.51 5.22 7.01 1.53 2.95 4.72 4.71 5.82 7.94-1.67-0.22-3.32-0.5-4.97-0.83-0.1-0.55-0.3-1.64-0.4-2.19-2.87-2.01-4.63-5.11-7.11-7.5-1.73-1.67-4.23-2.03-6.38-2.9z"/>
  <path d="m58.26 78.22c2.29-5.26 6.94-9.87 12.81-10.64-5.04 4.74-7.55 11.3-12 16.49-0.95-1.33-1.89-2.66-2.81-4.01 0.67-0.61 1.33-1.23 2-1.84z"/>
  <path d="m21.59 75.46c4.11-3.57 9.78-5.93 15.23-4.27 3.05 0.96 6.2 1.41 9.28 0.28 2.79 2.13 5.18 4.83 6.89 7.91 0.32 0.11 0.96 0.34 1.29 0.45-1.33 0.62-2.66 1.24-3.98 1.86l0.24 1.13c-0.46-0.15-1.38-0.46-1.84-0.62l-0.24 1.38c-5.67-0.35-11.12-2.08-16.78-2.52 3.93-1.54 8.19-3.08 12.47-2.23 2.69 0.6 5.33 1.4 8.05 1.88-1.33-3.42-5.23-4.45-8.34-5.6-4.23-1.73-8.6 0.63-12.92-0.08-3.13-0.53-6.25 0.04-9.35 0.43z"/>
  <path d="m115.9 71.68c3.28 1.51 6.85 0.67 10.3 0.94 8.23 2.82 15.11 9.1 23.99 10.04 4.07 0.58 8.04-0.64 12.01-1.29 0.47 0.49 1.41 1.46 1.88 1.95-3.03 0.91-6.2 1.41-9.11 2.67-5.23 2.55-7.87 8.25-12.89 11.08-4.25 2.47-9.28 3.09-14.11 3.07-2.86 0.02-5.91-0.47-8.48 1.11-0.05 0.61-0.15 1.85-0.2 2.47 7 0.27 14.02-0.41 20.9-1.71 2.08-0.29 3.69-1.71 5.35-2.86 0.14-0.85 0.29-1.69 0.43-2.53 4.98-0.23 8.27-4.3 12.75-5.84 4.88-1.99 10.3-0.4 15.31-1.82 1.19 0.32 2.39 0.65 3.58 0.96 2.07-1.53 4.77-3.18 7.4-2.06 2.12 0.66 1.58 3.09 1.96 4.77-1.65-0.61-3.28-1.22-4.9-1.87-1.64 0.36-3.27 0.72-4.9 1.08 0.49 4.29 1.63 8.66 0.69 12.98-0.97 4-2.84 7.77-5.24 11.11-0.34 0.82-0.67 1.63-0.99 2.45 0.88-5.1 0.11-10.23 0.1-15.35-0.1-3.14 1.61-5.9 2.05-8.93-0.43-2.04-3.13-1.97-4.72-1.58-6.28 1.48-12.11 4.41-17.95 7.05 0.01 0.3 0.05 0.91 0.07 1.21 1.46 1.82 3.23 3.43 4.28 5.53 2.18 5.19 1.94 10.92 3.2 16.33-0.84-0.49-1.68-0.97-2.52-1.45-1.81-2.8-3.79-5.66-4.16-9.06-0.5-3.82-0.74-7.78-2.95-11.08l-0.56-0.35c-8.5 3.51-17.39 6.32-26.65 6.72 1.47 3.65 2.79 7.48 2.71 11.47-0.33 4.23-4.35 7.73-8.58 7.61-5.17 0.01-11.51-1.17-14.05-6.25-1.69-4.12 0-8.51 1.97-12.19-5.63 0.84-9.54 5.28-14.76 7.02-2.92 0.97-5.16 3.5-8.33 3.75-2.01-2.03-4-4.09-5.81-6.31-3.64-0.67-7.91-0.96-10.44-4.05-2.21-2.16-2.24-6.27-5.64-7.12-6.52-2.42-12.95-5.19-18.83-8.95 7.21 0.93 13.85 4.3 21.03 5.45-1.3-3.84-3.01-7.55-3.94-11.51-4.51 1.8-9.38 2.34-14.2 1.86l-0.92-1.48c4.83-1.79 9.91-3.22 15.1-2.41 2.29 2.59 4.23 5.45 5.92 8.46 4.62-2.15 9.64-5.46 14.91-3.45 5.7 1.26 6.42 7.69 8.74 12.01 4.93 0.75 9.93 0.59 14.89 0.44-1.5-3.87-2.56-9.12 0.9-12.28 4.49-4.94 12.64-4.58 17.61-0.58 2.46 2.2 2.66 5.75 3.78 8.67 9.45 0.29 21.12-2.19 25.23-11.84-5.23-0.11-10.22-2.2-14.16-5.59-4.74-4.09-10.66-7.02-17.03-6.98 0.21 1.31 0.44 2.61 0.69 3.92 9.47 0.93 12.49 11.89 20.7 15.3-5.04 0.79-10.44-1.05-13.6-5.12-2.72-3.54-5.17-7.28-7.77-10.91-1.06 2.51-2.58 5.41-5.46 6.11-4.89 1.29-10.01 0.5-14.98 1.2 1.55-2.12 3.28-4.41 5.95-5.14 3.73-1.04 7.58-1.67 11.25-2.94 0.61-1.23 1.07-2.53 1.2-3.91m-9.95 19.31c-2.69 2.9-2.69 7.45-0.51 10.64 1.4-0.16 2.8-0.34 4.2-0.53-1.53-0.34-3.09-0.62-4.63-0.88 0.73-2.49 2.76-3.2 5.15-3.08 0.55-1.6 1.11-3.2 1.68-4.8 1.11 0.47 2.23 0.96 3.34 1.44 0.01 2.03 0.06 4.06 0.16 6.09 3.55-2.44 3.37-7.17 1.13-10.39-3.42-1.11-7.98-1.58-10.52 1.51m-40.39 12.01c0.44-0.11 1.33-0.32 1.77-0.43 0.55-3.08 2.15-5.88 5.49-6.29 0.48 0.58 1.45 1.74 1.93 2.32-0.65 2.57-1.73 5-2.91 7.36 1.84-0.13 3.77 0.1 5.54-0.52 5.5-2.38 4.43-11.88-1.45-13.06-5.99-1.96-13.18 4.61-10.37 10.62m32.74 2.29c-4.12 0.61-8.34 0-12.45 0.67-2.33 1.52-4.28 3.57-6.65 5.05l1.65 4.11c0.51 0.19 1.53 0.58 2.05 0.77 3.58-2.83 7.4-5.38 11.54-7.33 2.18-1 4.31-2.53 5.39-4.73l-1.53 1.46m9.01 8.59c-0.95 0.6-1.9 1.21-2.86 1.82 0.06 0.87 0.1 1.74 0.13 2.61 1.34-0.06 2.67-0.18 4.01-0.2 0.05 0.74 0.15 2.23 0.21 2.98 0.62 2.03 3.13 2.07 4.75 2.92 0.01-1.94-0.6-4 0.06-5.88 2.07 0.02 4.1 0.44 6.15 0.73-0.05-3.02 0.91-6.69-1.52-9.05-1.8-2.15-4.92-2.42-7.53-2.28-2.95 0.68-2.59 4.08-3.4 6.35z"/>
  <path d="m164.8 84.01c3.78-0.52 8.05-1.18 11.42 1.06-3.58 0.75-7.13 1.63-10.57 2.87-2.47 1.27-3.13-3.58-0.85-3.93z"/>
  <path d="m177.25 113.52c1.9-7.73 4.46-15.98 11.21-20.89-0.28 3.71-0.65 7.5-2.16 10.94-2.02 4.88-6.02 8.49-9.61 12.23-0.01-0.53-0.05-1.59-0.06-2.12l0.62-0.16z"/>
  <path d="m138.2 105.98c3.67 0.39 5.32 4.05 6.9 6.91 2.28 5.63 2.46 11.82 2.83 17.8-2.72-2.48-3.64-6.22-5.46-9.31-2.69-4.86-0.37-11.09-4.27-15.4z"/>
  <path d="m129.74 123.21c-1.4-5.11-3.54-10.72-0.97-15.84 3.53 4.78 6.21 10.73 4.78 16.79-1.02 4-1.43 8.22-2.96 12.06-0.34-4.34 0.39-8.77-0.85-13.01z"/>
  <path d="m110.5 112.87l2.48-1.36c0.55 0.33 1.65 1.01 2.2 1.34 0.06 0.86 0.13 1.72 0.2 2.58-1.16 0.09-2.31 0.19-3.46 0.28-0.35-0.71-1.07-2.13-1.42-2.84z"/>
  <path d="m63.11 114.21c3.31 0.23 7.28-0.77 9.94 1.78 2.21 2.24 3.09 5.35 3.84 8.31-3.58-1.04-5.13-4.89-8.36-6.49-1.59-0.78-3.26-1.35-4.91-1.94-0.13-0.42-0.39-1.25-0.51-1.66z"/>
  <path d="m48.72 116.6c3.93 0.93 8.01 1.03 11.93 1.99 4.13 1.69 6.51 7 4.91 11.17-1.13-1.62-2.06-3.4-3.48-4.79-3.87-3.74-10.22-3.7-13.36-8.37z"/>
  <path d="m89.32 117.55c0.45 0.04 1.35 0.1 1.8 0.13 4.61 5.08 6.8 11.75 7.12 18.53-6.74-3.79-5.64-12.59-8.92-18.66z"/>
  <path d="m178.81 120.17c5.88-1.78 12.29 2.7 13.33 8.61 1.43 5.77-2.55 11.93-8.22 13.39-4.1 0-7.77-2.25-10.99-4.58-0.58 1.99-1.37 4.09-3.25 5.19-6.18 4.44-16.04-0.26-17.06-7.65-0.68-5.52 3.72-11.33 9.39-11.61 3.54-0.67 6.48 1.68 9.47 3.12 2.2-2.4 3.89-5.66 7.33-6.47m-3.49 5.96c-0.18 2.55 0.19 5.08 1.17 7.45 1.67-1.51 4.24-3.17 6.32-1.36 1.17 1.86 1.61 4.41 4.3 4.52 1.49-3.28 1.97-7.37-0.48-10.33-2.55-3.81-8.34-3.38-11.31-0.28m-15.52 1.14c0 1.37-0.01 2.74-0.01 4.12-1.49 0.39-2.97 0.84-4.45 1.26 0.83 2.74 1.95 5.91 5.09 6.67 2.63 1.27 5.14-0.41 7.26-1.84 0.52-2.96 0.81-6.45-1.51-8.77-1.6-1.86-4.23-1.3-6.38-1.44z"/>
  <path d="m84.39 120.74c2.31 2.33 4.45 4.95 5.54 8.09 1.91 4.8 1.5 10.06 2.52 15.05-3.93-3.93-6.06-9.45-6.12-14.97 0.04-2.88-1.78-5.32-1.94-8.17z"/>
  <path d="m40.92 122.4c4.19 0.05 8.65 0.13 12.3 2.47 2.98 1.92 5.82 4.03 9.05 5.55-8.48 2.23-14.49-4.65-21.35-8.02z"/>
  <path d="m71.91 126.52c5.54-1.32 9.69 3.4 11.76 7.92 1.48 3.44 2.01 7.16 3.16 10.71 1.02 3.16 2.88 5.94 4.21 8.97-6.15-3.93-10.84-10.68-11.39-18.07-0.24-2.09-0.66-4.15-1.14-6.19-0.63-0.45-1.89-1.33-2.52-1.77-1.42 0.88-2.83 1.79-4.23 2.72 7.29 5.59 6.95 15.46 9.95 23.34-3.33-3.61-7.96-6.72-8.76-11.91-0.57 0.7-1.15 1.4-1.72 2.1 0.11 4.06 1.22 7.96 2.34 11.82-7.57-4.69-7.05-14.4-8.63-22.05 1.94-2.66 5.14-4.62 6.97-7.59m-4.18 8.08c1.7 2.49 2.77 5.31 3.26 8.28 0.53-0.75 1.05-1.5 1.57-2.25-0.39-3.06-0.75-6.12-1-9.19-1.28 1.06-2.56 2.11-3.83 3.16z"/>
  <path d="m31.93 130.78c4.87 2.42 9.91-1.21 14.94-0.41 3.48 0.35 6.24 2.75 9.02 4.64-0.77 4.12-3.32 7.75-7.05 9.69-4.35 2.31-8.85 4.41-12.6 7.67 1.26-2.43 2.11-5.16 4.06-7.16 2.82-2.88 6.62-4.5 10.33-5.92-0.14-1.68-0.23-3.36-0.31-5.04-4.42 0.61-8.95 1.9-13.39 0.62-2.99-0.66-5.5-2.51-7.79-4.47 0.7 0.1 2.09 0.28 2.79 0.38z"/>
  <path d="m60.75 137.03c0.27 0.04 0.82 0.13 1.09 0.17 2.04 3.96 0.48 8.6-0.39 12.69-0.92 2.88-0.95 6.18-2.88 8.65-1.74-7.14-1.81-15.07 2.18-21.51z"/>
  <path d="m171.06 143.97c3.86-0.6 8.33-0.2 11.24 2.7 4.19 4.27 4.31 11.69 0.66 16.33-3.15 3.55-8.43 6.51-13.15 4.3-4.84-1.41-7.91-6.68-6.9-11.58 0.63-4.84 2.76-10.65 8.15-11.75m-3.51 6.53c-2.87 3.42-1.94 8.38-0.89 12.33 1.31-0.35 2.53-0.88 3.67-1.59 1.83-3.49-3.46-6.7-0.38-9.93 1.83 0.89 2.93 2.62 4.02 4.26 0.38 0.1 1.13 0.29 1.51 0.39 0.16-1.94 0.45-3.86 1.04-5.71 0.69 0.48 2.09 1.46 2.78 1.94 0.15 1.1 0.29 2.19 0.44 3.29 0.71-0.14 1.42-0.27 2.13-0.4 0.48-2.93-1.08-5.95-4.01-6.77-3.48-0.36-7.85-0.89-10.31 2.19m6.35 9.19c-0.21 0.97-0.42 1.94-0.63 2.91 0.88-0.11 1.77-0.22 2.65-0.33-0.03-0.75-0.09-2.24-0.12-2.99-0.48 0.1-1.43 0.31-1.9 0.41z"/>
 </g>
</svg>
