<svg height="180pt" viewBox="0 0 280 180" width="280pt" xmlns="http://www.w3.org/2000/svg"><g fill="#fefefe"><path d="m0 0h280v180h-280zm135.39 20.56c-3.73 1.46-5.57 5.72-5.54 9.52.22 5.65 6.62 10.28 12 7.84 5.22-1.72 5.93-8.42 4.06-12.86-1.45-4.11-6.52-6.4-10.52-4.5m-22.2 11.73c-3.68 1.33-4.17 5.96-3.45 9.26.96 3.14 4.34 4.61 7.32 5.14-1.06 2.56-2.05 5.52-.88 8.22 1.4 2.46 3.77 4.46 6.51 5.23 5.89 1.2 11.28-5.56 9.13-11.08-1.35-4.11-6.17-5.17-9.98-5.5.59-1.15 1.22-2.29 1.66-3.51.56-5.27-5.35-9.91-10.31-7.76m39.88 16.6c1.94 2.35 5.13 2.52 7.94 2.53 2.16-1.22 4.59-2.34 5.84-4.62 3.77-6.03-1.38-15.92-8.92-14.57-7.17 1.41-10 11.6-4.86 16.66m-57.95-2.73c-2.47 5.1 1.46 11.49 6.93 12 2.76-.15 5.01-3.4 7.84-2 2.88 1.04 5.04 3.32 7.16 5.43-3.24.59-4.83-3.44-8.04-3.25-4.03-.65-7.77 2.43-8 6.48-1.81-.03-3.82-.21-5.08-1.7-2.09-2.07-3.38-5.74-6.93-5.45-7.69-.18-15.35 1-22.88 2.45-6.88 1.41-13.8-4.11-20.37-.26-.06 1.17-.1 2.34-.12 3.51 3.87 1.94 8.04 3.72 10.93 7.07 2.07 2.73 2.77 6.29 5.08 8.86 2.81 2.53 6.43 4.53 7.79 8.28 1.42 3.69 3.66 6.98 6.32 9.88-7.46.34-13.57 4.97-20.56 6.99-3.99 1.66-8.7 1.84-12.14 4.66-2.14 1.9-1.19 5.34 1.43 6.23 5.28 1.88 11.6 1.17 16.08 5.06 4.56 3.36 5.16 9.97 10.18 12.84 8.36 5.25 18.55 4.85 28.02 5.54-1.27.63-3.82 1.89-5.09 2.51.86.09 2.59.26 3.45.35 3.12-2.4 6.8-4.06 9.53-6.96 2.49-2.6 4.67-5.79 8.22-7.05 4.47-2.01 9.45-1.28 14.19-1.64 4.45-.25 8.52-2.61 13.03-2.37 7.86-.13 16.84 2.13 21.28 9.21-.85 2.24-.35 4.44.18 6.67l-.97-1.53c-3.1-1.09-6.06-3.21-9.49-2.8-3.32.28-5.9 2.78-9.12 3.36-4.79.08-9.25-2.14-14.01-2.28-4.41.09-8.42 2.16-12.47 3.69.04.55.12 1.66.16 2.22.28-.41.83-1.22 1.1-1.63 4.13-1.03 8.19.28 12.18 1.22 5.13 1.3 10.43.16 15.36-1.43 5.25-1.81 10.95-.59 15.93 1.49 2.76 1.12 4.45 4.39 7.69 4.36 1.75.42 4.21-.37 5.18 1.61 1.56 2.2 2.56 5.55.43 7.74-4.25 3.57-10.13 4.34-15.5 4.37-3.67.07-7.22-2.19-10.89-.92-4 .94-7.2 3.7-11.01 5.08-3.73.19-7.76.12-11.01-1.96-7.57-4.49-17.43 2.01-24.61-3.63-6.15-4.61-14.25-4.51-21.55-3.92-.95.54-1.91 1.06-2.88 1.55l.72-3.3c2.09-1.48 4.6-1.38 7.03-1.34 4.93-1.33 8.7-5.85 14.04-5.91 4.92-.13 10.34.15 14.51-2.95-3.58-.3-6.99-1.61-10.56-1.91-5.23.11-8.59 4.79-13.4 6.09.04.3.13.91.17 1.21-.83-.11-2.48-.32-3.31-.42l.39-1.8c1.36-.04 2.71-.11 4.07-.22-.15-.43-.46-1.3-.62-1.74 1.57-.11 3.18-.23 4.48-1.22-1.24-.08-2.48-.13-3.72-.14-5.28 3.51-11.23 6.15-15.87 10.56-1.52 1.38-.96 4.46 1.26 4.68 4.23-.03 8.53-.99 12.71.13 4.86 1.06 9.07 4.33 14.14 4.58 2.98.11 5.97.12 8.95.32 5.51.85 10.08 5.49 15.87 4.49 5.63-.52 11.1-2.1 16.26-4.37 2.23-1.29 4.67-.1 6.9.5 6.33 2.09 13.42 1.03 19.23-2.1 3.78-1.86 7.28-4.82 8.07-9.16-.73-1.85-1.19-3.79-1.49-5.75 3.94-1.25 8.22-.73 12.1.49 5.08 2.02 8.56 6.52 11.41 10.98 1.51 2.92 5.22 1.84 7.76 3 3.14 1.62 5.35 4.48 7.95 6.8 4.26-.02 8.55.83 12.79-.02.56-3.16-2.07-4.71-4.51-5.89-2.16.73-4.36 1.46-6.62 1.79-2.18-1.6-3.91-3.71-6.06-5.34-1.97-1.41-5.06.03-6.72-1.97-4.48-4.91-9.91-9.47-12.03-15.99 6.93 6.97 15.53 11.88 23.82 17.03 2 1.29 4.16 2.37 6.56 2.67-.01-.5-.04-1.52-.05-2.03-3.22-1.47-6.78-2.33-9.58-4.59-3.45-2.54-6.08-5.95-8.56-9.39-1.56-.13-3.18.09-4.68-.4-2.51-2.13-4.94-4.41-7.17-6.83.01-3.98 1.08-8.72-2.29-11.76-2.93-3.47-7.74-2.66-11.67-1.98-.71-2.35-.79-4.79.07-7.12 3.57 1.36 7.75 3.11 11.13.31.25 2.37.08 4.95 1.38 7.05 2.84 5.16 11.55 5.04 14.52.13 1.74-3.97.73-9.28-2.93-11.85-2.86-2.31-6.93-1.89-10.01-.26-.18-3.47-.65-7.74-4.18-9.46-3.52-2.34-8.38-.13-10.11 3.41-1.55 2.94-.73 6.34-.36 9.45-1.31.06-2.62.1-3.94.13-1.58-3.22-2.06-6.75-2.44-10.27-1.69-1.6-3.77-2.78-5.17-4.68-3.28-4.35-7.73-7.62-11.16-11.83 2.9-.63 6.31-1.75 7.21-4.96.68-3.16.82-7.16-1.87-9.46-1.86-2.13-5.01-1.87-7.53-1.48-3.52.94-4.57 4.81-4.76 8.01-4.31-2.73-8.78-5.29-12.46-8.87 3.55-1.62 7.28-4.94 6.24-9.28-.69-5.43-7.07-8.27-11.93-6.41-3.63 3.03-5.98 8.5-2.17 12.42-4.72-.26-7.02-5-11.07-6.62-.68-.58-1.35-1.17-2.01-1.76-1.63-3.67-5.84-5.56-6.86-9.54-.8-2.26-1.28-5.02-3.55-6.32-3.48-2.68-9.67-1.97-11.27 2.53m92.29-1.59c-3.73 1.44-5.59 5.64-5.55 9.43.17 5.71 6.64 10.59 12.08 7.91 5.09-1.84 5.81-8.39 3.99-12.81-1.42-4.1-6.54-6.46-10.52-4.53m-22.98 9.01c-3.41 1.06-5.47 4.18-7.53 6.86-2.04-.45-4.05-1.02-5.98-1.83 1.37 1.83 2.51 3.82 3.6 5.82 1.13-.11 2.27-.25 3.41-.24 1.77 1.5 3.08 3.49 5.04 4.77 3.31 1.97 7.88 1.39 10.75-1.14 2.61-2.27 2.99-6.32 1.64-9.37-1.98-3.85-6.71-6.17-10.93-4.87m23.83 12.68c-6.48 1.84-8.68 11.54-3.44 15.91 4.43 4.85 14.06 1.74 13.95-5.15 1.1-5.89-4.12-12.96-10.51-10.76m-13.82 19.27c-5.96.72-7.57 8.97-4.31 13.22 2.34 3.65 7.56 5.04 11.26 2.64 3.79-2.69 3.64-8.16 2.14-12.09-1.51-3.43-5.73-4.28-9.09-3.77z"/><path d="m136.35 27.82c1.13-1.23 2.22-2.54 3.61-3.49 3 .54 6.27 4.39 3.13 6.88-2.76 2.77-6.19-.37-6.74-3.39z"/><path d="m115.6 35.67c.48-.03 1.43-.1 1.9-.13.51 1.37.99 2.75 1.43 4.15-1.85.43-3.71.53-5.54-.04.05-.56.16-1.67.21-2.22.67-.59 1.33-1.17 2-1.76z"/><path d="m158.99 43c-2.68-1.77-1.68-5.67 1.05-6.8 3.07-.37 4.97 2.7 4.9 5.44-1.62 1.26-4 3.2-5.95 1.36z"/><path d="m99.31 48.08c1.18-1.68 2.82-2.97 4.99-2.82 1.19 1.88 1.66 4.01 1.31 6.21-2.86.39-5.47-.38-6.3-3.39z"/><path d="m124.57 53.69c-1.39-1.9-1.03-3.87.26-5.69 1.36.56 2.71 1.15 4.05 1.74-.15 1.16-.32 2.32-.49 3.48-.95.12-2.87.35-3.82.47z"/><path d="m189.23 50.99c.77-1.06 1.74-1.96 2.65-2.9 1.96 1.18 4.72 2.31 4.56 5.09-.79 2.91-3.89 3.44-6.41 2.61-.48-1.55-1.22-3.15-.8-4.8z"/><path d="m166.24 57.3c2.7-.52 5.16.38 6.68 2.7-.12 1.4-.24 2.8-.38 4.2-.92.47-1.83.94-2.74 1.42-1.97-2.38-3.09-5.29-3.56-8.32z"/><path d="m136.35 59.45c1.15-.08 2.3-.16 3.45-.25.44 1.69.73 3.41.91 5.14-1.53.03-3.05 0-4.57-.07.04-1.61.11-3.22.21-4.82z"/><path d="m52.26 60.18c1.5.32 2.92.9 3.94 2.09 1.77.13 3.59.14 5.24.89-2.04.7-4.09 1.33-6.17 1.89 3.64.55 7.15 1.63 10.66 2.72 3.77 1.16 8.34.99 11.06 4.3 4.12 4.51 8.26 9.2 13.71 12.15 5.18 2.98 11.91 2.41 16.56 6.44 3.1 2.58 3.89 6.72 5.99 9.97 3.51 4.49 8.81 7.42 14.45 8.17-.06-.53-.2-1.59-.26-2.13-3.26-.62-6.39-2.03-8.54-4.62-3.92-3.62-3.71-9.94-8.19-13.07-3.85-2.85-8.9-2.74-13.15-4.68-5.59-2.27-9.9-6.73-13.36-11.55-4.94-6.1-13.39-7.45-20.78-6.49-.07-.44-.23-1.33-.3-1.77 4.55-.41 9.17-1 13.33-3.03 3.7-1.82 8.29-1.95 11.92.12 3.11 1.66 6.15 3.48 9.43 4.79 3.32 1.15 4.11 5.14 7 6.85 2.34 1.76 5.38.82 8.07 1.14 2.65.93 4.9 2.67 7.18 4.27.93 3.99 3.98 7.06 7.95 8.08 3.51 5.29 4.42 12.15 2.84 18.26-1.13 6.53-7.03 12.29-13.82 12.22-7-.21-12.93-4.27-19.08-7.1-6.77-3.11-13.02-7.74-17.07-14.08-2.48-3.75-5.06-7.46-8.06-10.83-2.29-2.54-5.78-3.52-8.1-6.03-3.35-3.22-4.17-8.2-7.63-11.34-2.1-2.25-5.57-4.01-4.82-7.63z"/><path d="m108.61 62.72c1.05-.27 2.1-.51 3.17-.72.76 1.62 1.78 3.2 1.74 5.07-1.38 1.14-3.14.62-4.74.47-.06-1.61-.12-3.21-.17-4.82z"/><path d="m117.14 64.85c.05.37.15 1.12.21 1.49 2.71.98 5.44 1.92 8.25 2.6l-.24 2.01c-1.77.7-3.21 1.93-4.45 3.35-1.79-1.03-3.59-2.02-5.42-2.98.64-2.13 1.15-4.3 1.65-6.47z"/><path d="m129.91 70.66c1.84-.12 3.68-.23 5.53-.31.12 1.06.26 2.12.4 3.18-1.85-1.19-3.86-2.12-5.93-2.87z"/><path d="m191.58 70.6c2.65-.45 6.47 3.56 4.01 6.05-1.61 2.83-6.52 1.58-6.49-1.69-.39-1.94.91-3.46 2.48-4.36z"/><path d="m128.47 74.56c1.11-.19 2.23-.35 3.35-.46.48 1.73 2.15 3.67.95 5.46-1.35.59-2.83.07-4.22-.03-.05-1.66-.08-3.31-.08-4.97z"/><path d="m155.08 79.2c.74-1.4.76-4.04 2.9-3.94 3.59-1.2 5.53 4.36 2.42 6.1-2.09 1.55-4-.75-5.32-2.16z"/><path d="m136.71 76.89c4.82 1.05 9 3.79 12.7 6.95 0 .55.01 1.65.01 2.2-.3-.38-.9-1.13-1.2-1.5-2.94-.24-6.55-.49-8.53 2.18-2.39 3.62-2 9.25 1.85 11.75 2.82 2.6 7.53 1.98 9.83-.98.98-3.49 1.89-7.08 1.31-10.72 1.47-.18 2.96-.33 4.44-.48-.68 1.54-1.36 3.07-2.07 4.59l-1.27-.93c-.04 1.32-.09 2.64-.15 3.96 5.1.13 10.1 3.06 11.72 8.07-.34.79-1.03 2.37-1.37 3.17 3.07 2.84 6.84 5.27 8.39 9.35 1.63 4.38 4.24 8.24 6.53 12.27-.53 1.59-1.02 3.19-1.48 4.8-2.71-2.98-6.51-3.58-10.35-3.06-2.43-2.04-4.51-5.2-8.06-5.16-2.42-.54-5.31.93-7.28-1.03-1.45-.92-3.22-.45-4.82-.5-5.85.99-11.87.43-17.69 1.89.02-.59.08-1.76.1-2.35 7.17-2.96 15.05-.39 22.53-1.09 2.35.73 4.61 1.7 6.95 2.47.94-1.9 3.55-3.35 5.49-2 4.07 2.17 7.51 5.37 11.74 7.27-2.35-4.93-7.37-7.6-11.54-10.76 4.11-6-1.79-15.33-9.05-13.62-6.23.79-7.44 8.2-6.68 13.31-2.44-.25-5.23.16-7.28-1.48-2.99-2.22-6.13-4.24-9.26-6.27 1.23-4.03 2.97-8.04 2.89-12.33-.17-3.85-1.25-7.6-2.71-11.15 2.6-2.27 4.61-5.19 4.31-8.82z"/><path d="m143.42 90.03c.67-2.95 4.62-2.84 5.96-.46 1.75 2.11-.75 4.04-2.19 5.35-2.07-.74-4.82-2.24-3.77-4.89z"/><path d="m174.19 93.96c-.62-2 .89-3.56 1.82-5.13 2.03.47 4.7.49 5.36 2.94 1.36 2.84-2.35 4.64-4.64 5.03-.87-.93-1.8-1.8-2.54-2.84z"/><path d="m62.8 103.58c9.55-3.66 22.36-2.02 28.23 7.03l-2.45-.32c.02.31.06.95.09 1.27-.69.01-2.05.02-2.74.03-.38.48-1.14 1.43-1.52 1.91 4.17-.33 8.42-.52 12.54.36 6.23 1.34 11.64 5.17 17.97 6.19 2.5.31 5.03.11 7.54.24-1.36 2.33-4.21 2.4-6.5 3.16-5.23 1.21-8.17 7.09-13.81 7.27-7.68.61-15.41 3.1-23.09 1.16-4.08-1.04-8.23-2.65-11.18-5.75-2.62-2.63-3.13-6.67-5.91-9.18-2.55-2.32-5.9-3.41-9.09-4.52l.97-1.23-1.44.58-.36-2.64c-.14.65-.42 1.93-.56 2.58-1.5-.04-3.03.09-4.5-.32-.17-.71-.53-2.14-.71-2.85 1.59-.18 3.18-.35 4.76-.53 3.74-1.94 7.93-2.73 11.76-4.44m-3.4 2.88c.03.47.09 1.39.13 1.85-2.55.01-5.11.11-7.63.52 2.24.72 4.6.82 6.93.58.45-.48 1.36-1.45 1.81-1.93 3.7.15 6.21 2.89 8.75 5.19 2.43 2.29 5.9 2.51 9.04 2.87l.28-1.65c-3.77-.51-6.06-3.6-8.35-6.27-2.77-3.25-7.37-1.38-10.96-1.16z"/><path d="m185.22 109.04c.49-1.26 1.01-2.52 1.55-3.76 2.96-.64 5.08 1.2 5.84 3.94-1.47 1.71-3.26 3.12-5.65 2.55-.43-.68-1.3-2.05-1.74-2.73z"/><path d="m155.97 107.99c1.08-.82 2.57-.74 3.83-1.12 1.7 1.91 3.14 4.09 3.13 6.75-2.27.78-4.65.82-6.94.13-.57-1.82-1.45-4.1-.02-5.76z"/><path d="m127.88 118.24c.24-2.57 1.54-6.94 4.95-6.04 2.55 1.46 4.71 3.52 7.04 5.29-3.99.33-8 .45-11.99.75z"/><path d="m198.68 114.78c.58-.36 1.74-1.08 2.33-1.44 1.29.87 2.58 1.76 3.87 2.64-.12 2.07-.49 4.13-1.77 5.82-2.16-1.2-4.2-2.65-5.56-4.76.29-.57.85-1.69 1.13-2.26z"/><path d="m184.27 129.98c-.73-2.97 3.5-5.23 5.47-2.72 2.62 1.61.95 4.6.36 6.82-2.29-.75-4.56-1.97-5.83-4.1z"/><path d="m169.2 134.52c.94-.79 1.87-1.58 2.81-2.36 1.41.8 2.94 1.49 4.11 2.65.64 2.01-.11 4.02-.59 5.96-3.17-.6-6.55-2.59-6.33-6.25z"/><path d="m180.52 136.75c.99.85 1.98 1.7 2.99 2.54 1.16.11 2.33.23 3.51.36 1.17 1.18 2.38 2.33 3.64 3.43-.08.34-.25 1.02-.33 1.36-3.67-.62-7.23-1.73-10.73-2.98.31-1.57.62-3.14.92-4.71z"/><path d="m84.49 148.12c2.96-2.69 2.98 4.52.01 1.8 0-.45-.01-1.35-.01-1.8z"/></g><g fill="#034991"><path d="m135.39 20.56c4-1.9 9.07.39 10.52 4.5 1.87 4.44 1.16 11.14-4.06 12.86-5.38 2.44-11.78-2.19-12-7.84-.03-3.8 1.81-8.06 5.54-9.52m.96 7.26c.55 3.02 3.98 6.16 6.74 3.39 3.14-2.49-.13-6.34-3.13-6.88-1.39.95-2.48 2.26-3.61 3.49z"/><path d="m113.19 32.29c4.96-2.15 10.87 2.49 10.31 7.76-.44 1.22-1.07 2.36-1.66 3.51 3.81.33 8.63 1.39 9.98 5.5 2.15 5.52-3.24 12.28-9.13 11.08-2.74-.77-5.11-2.77-6.51-5.23-1.17-2.7-.18-5.66.88-8.22-2.98-.53-6.36-2-7.32-5.14-.72-3.3-.23-7.93 3.45-9.26m2.41 3.38c-.67.59-1.33 1.17-2 1.76-.05.55-.16 1.66-.21 2.22 1.83.57 3.69.47 5.54.04-.44-1.4-.92-2.78-1.43-4.15-.47.03-1.42.1-1.9.13m8.97 18.02c.95-.12 2.87-.35 3.82-.47.17-1.16.34-2.32.49-3.48-1.34-.59-2.69-1.18-4.05-1.74-1.29 1.82-1.65 3.79-.26 5.69z"/><path d="m153.07 48.89c-5.14-5.06-2.31-15.25 4.86-16.66 7.54-1.35 12.69 8.54 8.92 14.57-1.25 2.28-3.68 3.4-5.84 4.62-2.81-.01-6-.18-7.94-2.53m5.92-5.89c1.95 1.84 4.33-.1 5.95-1.36.07-2.74-1.83-5.81-4.9-5.44-2.73 1.13-3.73 5.03-1.05 6.8z"/><path d="m95.12 46.16c1.6-4.5 7.79-5.21 11.27-2.53 2.27 1.3 2.75 4.06 3.55 6.32 1.02 3.98 5.23 5.87 6.86 9.54.66.59 1.33 1.18 2.01 1.76 4.05 1.62 6.35 6.36 11.07 6.62-3.81-3.92-1.46-9.39 2.17-12.42 4.86-1.86 11.24.98 11.93 6.41 1.04 4.34-2.69 7.66-6.24 9.28 3.68 3.58 8.15 6.14 12.46 8.87.19-3.2 1.24-7.07 4.76-8.01 2.52-.39 5.67-.65 7.53 1.48 2.69 2.3 2.55 6.3 1.87 9.46-.9 3.21-4.31 4.33-7.21 4.96 3.43 4.21 7.88 7.48 11.16 11.83 1.4 1.9 3.48 3.08 5.17 4.68.38 3.52.86 7.05 2.44 10.27 1.32-.03 2.63-.07 3.94-.13-.37-3.11-1.19-6.51.36-9.45 1.73-3.54 6.59-5.75 10.11-3.41 3.53 1.72 4 5.99 4.18 9.46 3.08-1.63 7.15-2.05 10.01.26 3.66 2.57 4.67 7.88 2.93 11.85-2.97 4.91-11.68 5.03-14.52-.13-1.3-2.1-1.13-4.68-1.38-7.05-3.38 2.8-7.56 1.05-11.13-.31-.86 2.33-.78 4.77-.07 7.12 3.93-.68 8.74-1.49 11.67 1.98 3.37 3.04 2.3 7.78 2.29 11.76 2.23 2.42 4.66 4.7 7.17 6.83 1.5.49 3.12.27 4.68.4 2.48 3.44 5.11 6.85 8.56 9.39 2.8 2.26 6.36 3.12 9.58 4.59.01.51.04 1.53.05 2.03-2.4-.3-4.56-1.38-6.56-2.67-8.29-5.15-16.89-10.06-23.82-17.03 2.12 6.52 7.55 11.08 12.03 15.99 1.66 2 4.75.56 6.72 1.97 2.15 1.63 3.88 3.74 6.06 5.34 2.26-.33 4.46-1.06 6.62-1.79 2.44 1.18 5.07 2.73 4.51 5.89-4.24.85-8.53 0-12.79.02-2.6-2.32-4.81-5.18-7.95-6.8-2.54-1.16-6.25-.08-7.76-3-2.85-4.46-6.33-8.96-11.41-10.98-3.88-1.22-8.16-1.74-12.1-.49.3 1.96.76 3.9 1.49 5.75-.79 4.34-4.29 7.3-8.07 9.16-5.81 3.13-12.9 4.19-19.23 2.1-2.23-.6-4.67-1.79-6.9-.5-5.16 2.27-10.63 3.85-16.26 4.37-5.79 1-10.36-3.64-15.87-4.49-2.98-.2-5.97-.21-8.95-.32-5.07-.25-9.28-3.52-14.14-4.58-4.18-1.12-8.48-.16-12.71-.13-2.22-.22-2.78-3.3-1.26-4.68 4.64-4.41 10.59-7.05 15.87-10.56 1.24.01 2.48.06 3.72.14-1.3.99-2.91 1.11-4.48 1.22.16.44.47 1.31.62 1.74-1.36.11-2.71.18-4.07.22l-.39 1.8c.83.1 2.48.31 3.31.42-.04-.3-.13-.91-.17-1.21 4.81-1.3 8.17-5.98 13.4-6.09 3.57.3 6.98 1.61 10.56 1.91-4.17 3.1-9.59 2.82-14.51 2.95-5.34.06-9.11 4.58-14.04 5.91-2.43-.04-4.94-.14-7.03 1.34l-.72 3.3c.97-.49 1.93-1.01 2.88-1.55 7.3-.59 15.4-.69 21.55 3.92 7.18 5.64 17.04-.86 24.61 3.63 3.25 2.08 7.28 2.15 11.01 1.96 3.81-1.38 7.01-4.14 11.01-5.08 3.67-1.27 7.22.99 10.89.92 5.37-.03 11.25-.8 15.5-4.37 2.13-2.19 1.13-5.54-.43-7.74-.97-1.98-3.43-1.19-5.18-1.61-3.24.03-4.93-3.24-7.69-4.36-4.98-2.08-10.68-3.3-15.93-1.49-4.93 1.59-10.23 2.73-15.36 1.43-3.99-.94-8.05-2.25-12.18-1.22-.27.41-.82 1.22-1.1 1.63-.04-.56-.12-1.67-.16-2.22 4.05-1.53 8.06-3.6 12.47-3.69 4.76.14 9.22 2.36 14.01 2.28 3.22-.58 5.8-3.08 9.12-3.36 3.43-.41 6.39 1.71 9.49 2.8l.97 1.53c-.53-2.23-1.03-4.43-.18-6.67-4.44-7.08-13.42-9.34-21.28-9.21-4.51-.24-8.58 2.12-13.03 2.37-4.74.36-9.72-.37-14.19 1.64-3.55 1.26-5.73 4.45-8.22 7.05-2.73 2.9-6.41 4.56-9.53 6.96-.86-.09-2.59-.26-3.45-.35 1.27-.62 3.82-1.88 5.09-2.51-9.47-.69-19.66-.29-28.02-5.54-5.02-2.87-5.62-9.48-10.18-12.84-4.48-3.89-10.8-3.18-16.08-5.06-2.62-.89-3.57-4.33-1.43-6.23 3.44-2.82 8.15-3 12.14-4.66 6.99-2.02 13.1-6.65 20.56-6.99-2.66-2.9-4.9-6.19-6.32-9.88-1.36-3.75-4.98-5.75-7.79-8.28-2.31-2.57-3.01-6.13-5.08-8.86-2.89-3.35-7.06-5.13-10.93-7.07.02-1.17.06-2.34.12-3.51 6.57-3.85 13.49 1.67 20.37.26 7.53-1.45 15.19-2.63 22.88-2.45 3.55-.29 4.84 3.38 6.93 5.45 1.26 1.49 3.27 1.67 5.08 1.7.23-4.05 3.97-7.13 8-6.48 3.21-.19 4.8 3.84 8.04 3.25-2.12-2.11-4.28-4.39-7.16-5.43-2.83-1.4-5.08 1.85-7.84 2-5.47-.51-9.4-6.9-6.93-12m4.19 1.92c.83 3.01 3.44 3.78 6.3 3.39.35-2.2-.12-4.33-1.31-6.21-2.17-.15-3.81 1.14-4.99 2.82m37.04 11.37c-.1 1.6-.17 3.21-.21 4.82 1.52.07 3.04.1 4.57.07-.18-1.73-.47-3.45-.91-5.14-1.15.09-2.3.17-3.45.25m-84.09.73c-.75 3.62 2.72 5.38 4.82 7.63 3.46 3.14 4.28 8.12 7.63 11.34 2.32 2.51 5.81 3.49 8.1 6.03 3 3.37 5.58 7.08 8.06 10.83 4.05 6.34 10.3 10.97 17.07 14.08 6.15 2.83 12.08 6.89 19.08 7.1 6.79.07 12.69-5.69 13.82-12.22 1.58-6.11.67-12.97-2.84-18.26-3.97-1.02-7.02-4.09-7.95-8.08-2.28-1.6-4.53-3.34-7.18-4.27-2.69-.32-5.73.62-8.07-1.14-2.89-1.71-3.68-5.7-7-6.85-3.28-1.31-6.32-3.13-9.43-4.79-3.63-2.07-8.22-1.94-11.92-.12-4.16 2.03-8.78 2.62-13.33 3.03.07.44.23 1.33.3 1.77 7.39-.96 15.84.39 20.78 6.49 3.46 4.82 7.77 9.28 13.36 11.55 4.25 1.94 9.3 1.83 13.15 4.68 4.48 3.13 4.27 9.45 8.19 13.07 2.15 2.59 5.28 4 8.54 4.62.06.54.2 1.6.26 2.13-5.64-.75-10.94-3.68-14.45-8.17-2.1-3.25-2.89-7.39-5.99-9.97-4.65-4.03-11.38-3.46-16.56-6.44-5.45-2.95-9.59-7.64-13.71-12.15-2.72-3.31-7.29-3.14-11.06-4.3-3.51-1.09-7.02-2.17-10.66-2.72 2.08-.56 4.13-1.19 6.17-1.89-1.65-.75-3.47-.76-5.24-.89-1.02-1.19-2.44-1.77-3.94-2.09m56.35 2.54c.05 1.61.11 3.21.17 4.82 1.6.15 3.36.67 4.74-.47.04-1.87-.98-3.45-1.74-5.07-1.07.21-2.12.45-3.17.72m8.53 2.13c-.5 2.17-1.01 4.34-1.65 6.47 1.83.96 3.63 1.95 5.42 2.98 1.24-1.42 2.68-2.65 4.45-3.35l.24-2.01c-2.81-.68-5.54-1.62-8.25-2.6-.06-.37-.16-1.12-.21-1.49m12.77 5.81c2.07.75 4.08 1.68 5.93 2.87-.14-1.06-.28-2.12-.4-3.18-1.85.08-3.69.19-5.53.31m-1.44 3.9c0 1.66.03 3.31.08 4.97 1.39.1 2.87.62 4.22.03 1.2-1.79-.47-3.73-.95-5.46-1.12.11-2.24.27-3.35.46m26.61 4.64c1.32 1.41 3.23 3.71 5.32 2.16 3.11-1.74 1.17-7.3-2.42-6.1-2.14-.1-2.16 2.54-2.9 3.94m-18.37-2.31c.3 3.63-1.71 6.55-4.31 8.82 1.46 3.55 2.54 7.3 2.71 11.15.08 4.29-1.66 8.3-2.89 12.33 3.13 2.03 6.27 4.05 9.26 6.27 2.05 1.64 4.84 1.23 7.28 1.48-.76-5.11.45-12.52 6.68-13.31 7.26-1.71 13.16 7.62 9.05 13.62 4.17 3.16 9.19 5.83 11.54 10.76-4.23-1.9-7.67-5.1-11.74-7.27-1.94-1.35-4.55.1-5.49 2-2.34-.77-4.6-1.74-6.95-2.47-7.48.7-15.36-1.87-22.53 1.09-.02.59-.08 1.76-.1 2.35 5.82-1.46 11.84-.9 17.69-1.89 1.6.05 3.37-.42 4.82.5 1.97 1.96 4.86.49 7.28 1.03 3.55-.04 5.63 3.12 8.06 5.16 3.84-.52 7.64.08 10.35 3.06.46-1.61.95-3.21 1.48-4.8-2.29-4.03-4.9-7.89-6.53-12.27-1.55-4.08-5.32-6.51-8.39-9.35.34-.8 1.03-2.38 1.37-3.17-1.62-5.01-6.62-7.94-11.72-8.07.06-1.32.11-2.64.15-3.96l1.27.93c.71-1.52 1.39-3.05 2.07-4.59-1.48.15-2.97.3-4.44.48.58 3.64-.33 7.23-1.31 10.72-2.3 2.96-7.01 3.58-9.83.98-3.85-2.5-4.24-8.13-1.85-11.75 1.98-2.67 5.59-2.42 8.53-2.18.3.37.9 1.12 1.2 1.5 0-.55-.01-1.65-.01-2.2-3.7-3.16-7.88-5.9-12.7-6.95m6.71 13.14c-1.05 2.65 1.7 4.15 3.77 4.89 1.44-1.31 3.94-3.24 2.19-5.35-1.34-2.38-5.29-2.49-5.96.46m-80.62 13.55c-3.83 1.71-8.02 2.5-11.76 4.44-1.58.18-3.17.35-4.76.53.18.71.54 2.14.71 2.85 1.47.41 3 .28 4.5.32.14-.65.42-1.93.56-2.58l.36 2.64 1.44-.58-.97 1.23c3.19 1.11 6.54 2.2 9.09 4.52 2.78 2.51 3.29 6.55 5.91 9.18 2.95 3.1 7.1 4.71 11.18 5.75 7.68 1.94 15.41-.55 23.09-1.16 5.64-.18 8.58-6.06 13.81-7.27 2.29-.76 5.14-.83 6.5-3.16-2.51-.13-5.04.07-7.54-.24-6.33-1.02-11.74-4.85-17.97-6.19-4.12-.88-8.37-.69-12.54-.36.38-.48 1.14-1.43 1.52-1.91.69-.01 2.05-.02 2.74-.03-.03-.32-.07-.96-.09-1.27l2.45.32c-5.87-9.05-18.68-10.69-28.23-7.03m122.42 5.46c.44.68 1.31 2.05 1.74 2.73 2.39.57 4.18-.84 5.65-2.55-.76-2.74-2.88-4.58-5.84-3.94-.54 1.24-1.06 2.5-1.55 3.76m-29.25-1.05c-1.43 1.66-.55 3.94.02 5.76 2.29.69 4.67.65 6.94-.13.01-2.66-1.43-4.84-3.13-6.75-1.26.38-2.75.3-3.83 1.12m-28.09 10.25c3.99-.3 8-.42 11.99-.75-2.33-1.77-4.49-3.83-7.04-5.29-3.41-.9-4.71 3.47-4.95 6.04m70.8-3.46c-.28.57-.84 1.69-1.13 2.26 1.36 2.11 3.4 3.56 5.56 4.76 1.28-1.69 1.65-3.75 1.77-5.82-1.29-.88-2.58-1.77-3.87-2.64-.59.36-1.75 1.08-2.33 1.44m-14.41 15.2c1.27 2.13 3.54 3.35 5.83 4.1.59-2.22 2.26-5.21-.36-6.82-1.97-2.51-6.2-.25-5.47 2.72m-15.07 4.54c-.22 3.66 3.16 5.65 6.33 6.25.48-1.94 1.23-3.95.59-5.96-1.17-1.16-2.7-1.85-4.11-2.65-.94.78-1.87 1.57-2.81 2.36m11.32 2.23c-.3 1.57-.61 3.14-.92 4.71 3.5 1.25 7.06 2.36 10.73 2.98.08-.34.25-1.02.33-1.36-1.26-1.1-2.47-2.25-3.64-3.43-1.18-.13-2.35-.25-3.51-.36-1.01-.84-2-1.69-2.99-2.54m-96.03 11.37c0 .45.01 1.35.01 1.8 2.97 2.72 2.95-4.49-.01-1.8z"/><path d="m187.41 44.57c3.98-1.93 9.1.43 10.52 4.53 1.82 4.42 1.1 10.97-3.99 12.81-5.44 2.68-11.91-2.2-12.08-7.91-.04-3.79 1.82-7.99 5.55-9.43m1.82 6.42c-.42 1.65.32 3.25.8 4.8 2.52.83 5.62.3 6.41-2.61.16-2.78-2.6-3.91-4.56-5.09-.91.94-1.88 1.84-2.65 2.9z"/><path d="m164.43 53.58c4.22-1.3 8.95 1.02 10.93 4.87 1.35 3.05.97 7.1-1.64 9.37-2.87 2.53-7.44 3.11-10.75 1.14-1.96-1.28-3.27-3.27-5.04-4.77-1.14-.01-2.28.13-3.41.24-1.09-2-2.23-3.99-3.6-5.82 1.93.81 3.94 1.38 5.98 1.83 2.06-2.68 4.12-5.8 7.53-6.86m1.81 3.72c.47 3.03 1.59 5.94 3.56 8.32.91-.48 1.82-.95 2.74-1.42.14-1.4.26-2.8.38-4.2-1.52-2.32-3.98-3.22-6.68-2.7z"/><path d="m188.26 66.26c6.39-2.2 11.61 4.87 10.51 10.76.11 6.89-9.52 10-13.95 5.15-5.24-4.37-3.04-14.07 3.44-15.91m3.32 4.34c-1.57.9-2.87 2.42-2.48 4.36-.03 3.27 4.88 4.52 6.49 1.69 2.46-2.49-1.36-6.5-4.01-6.05z"/><path d="m174.44 85.53c3.36-.51 7.58.34 9.09 3.77 1.5 3.93 1.65 9.4-2.14 12.09-3.7 2.4-8.92 1.01-11.26-2.64-3.26-4.25-1.65-12.5 4.31-13.22m-.25 8.43c.74 1.04 1.67 1.91 2.54 2.84 2.29-.39 6-2.19 4.64-5.03-.66-2.45-3.33-2.47-5.36-2.94-.93 1.57-2.44 3.13-1.82 5.13z"/><path d="m59.4 106.46c3.59-.22 8.19-2.09 10.96 1.16 2.29 2.67 4.58 5.76 8.35 6.27l-.28 1.65c-3.14-.36-6.61-.58-9.04-2.87-2.54-2.3-5.05-5.04-8.75-5.19-.45.48-1.36 1.45-1.81 1.93-2.33.24-4.69.14-6.93-.58 2.52-.41 5.08-.51 7.63-.52-.04-.46-.1-1.38-.13-1.85z"/></g></svg>