<?xml version="1.0" encoding="UTF-8" standalone="no"?>
<!DOCTYPE svg  PUBLIC '-//W3C//DTD SVG 1.1//EN'  'http://www.w3.org/Graphics/SVG/1.1/DTD/svg11.dtd'>
<svg width="280pt" xmlns="http://www.w3.org/2000/svg" viewBox="0 0 280 180" version="1.1" height="180pt">
 <g id="#fefefeff" fill="#fefefe">
  <path d="m0 0h280v180h-280v-180m226.99 16.12c-0.58-0.18-1.75-0.56-2.34-0.74-3.86 0.83-6.76 3.98-7.76 7.74-1.78 5.62-5.31 11.25-10.99 13.5-1.95-0.17-3.79-0.89-5.67-1.32l0.66-0.98-1 0.17c-2.98-4.68-8.24-8.16-13.94-7.83-5.2 0.05-9.9 2.75-13.64 6.19 3.69 3.6 6.04 8.32 7.35 13.26 1.82 6.93-0.88 14.64-6.22 19.31-4.08 3.59-8.91 6.32-12.45 10.52-3.38 3.68-5.76 8.62-10.52 10.75-5.29 2.29-10.98 3.73-15.92 6.77-4.89 3.14-9.38 6.85-14.19 10.1-2.1 1.46-4.6 2.17-7.15 2.27 0.07-4.14 2.99-7.24 4.41-10.91 4.03-10.24-3.24-21.83 2.57-31.65 5.18-10.03 18.41-12.93 22.3-23.84 2.26-5.98 5.54-12.79 12.23-14.67 3.88-1.46 8.1-0.04 10.94 2.81-0.15 1.9-0.05 4.07-1.62 5.45-2.6 2.13-6.18 3.03-8.17 5.9-4.05 5.55-1.97 13.33-6.12 18.83-2.42 3.19-5.97 5.24-8.86 7.96 7.33-1.25 14.09-6.84 14.9-14.53 0.52-8.51 6.61-16.02 14.83-18.28 0.88-4.85-3.3-8.55-7.36-10.23-6.49-2.51-13.93 0.16-18.74 4.84-2.72 2.39-4.26 5.79-6.79 8.35-2.72-0.06-4.99-2-7.69-2.28-8.11-1.12-16.16 2.16-22.7 6.73-5.91 4.27-8.09 11.53-10.95 17.87-2.06 5.04-7.58 7.44-9.83 12.37-4.21 7.46-3.22 16.36-5.4 24.38-1.9 7.12-8.32 11.36-13.52 15.97-0.11 0.83-0.21 1.66-0.31 2.5 0.71 0.24 2.11 0.71 2.81 0.95 3.95-1.78 7.6-4.28 11.83-5.41 5.2-1.6 10.73-1.34 15.98-2.73 4.89-0.96 9.36-3.2 13.92-5.1-1.2 2.22-3.23 5.19-1.11 7.51 5.83 0.58 10.59-3.69 15.34-6.43 6.27-4.71 14.13-6.08 21.3-8.8 5.56-3.3 9.46-8.78 14.97-12.18 2.73-1.5 4.44-4.13 6.1-6.67 3.03-4.42 8.54-6.13 11.75-10.37 3.78-4.44 5.24-10.54 4.25-16.24-0.63-5.72-4.13-10.43-7.26-15.04 3.19-1.9 6.88-3.66 10.66-2.43 5.64 1.87 10.16 7.6 10.03 13.63-1.28 6.83-6.15 12.23-10.7 17.2-2.12 1.99-1.29 5.12-1.37 7.69 0.59 6.62-2.43 13.21-7.31 17.61-7.37 6.91-17.12 10.47-26.73 12.99-4.03 1.13-8.42 1.08-12.18 3.11-4.83 2.83-10.41 3.87-15.69 5.56-16.44 4.72-32.94 9.27-49.55 13.37-4.38 1.12-8.91 1.64-13.43 1.67-2.08 1.55-4.38 2.82-6.27 4.62 2.05 0.46 4.09 1.01 6.1 1.62-0.12 0.43-0.37 1.3-0.5 1.74 2.19 0.39 4.88 2.22 6.6-0.16-1.98-1.42-4.2-2.47-6.62-2.87 0.08-0.39 0.25-1.17 0.34-1.56 6.18-0.45 12.84 0.55 18.48-2.58 5.66-2.73 11.73-4.53 17.86-5.83 1.79-0.56 2.82 1.37 4.01 2.28 5.08 0.36 9.96-1.63 14.06-4.48 3.74-2.36 7.49-5.38 12.05-5.78 2.57 1.32 2.51 4.58 2.76 7.06-0.59 0.83-1.17 1.66-1.74 2.5 3.98-3.87 6.13-9.13 9.15-13.71 0.07 0.48 0.21 1.43 0.28 1.91 4.49-0.78 8.13-3.77 12.49-4.95 5.43-1.6 11.03-3.69 16.78-2.66-3.64 4.92-6.62 10.34-8.01 16.34 3.33-2.33 6.51-5.44 10.81-5.65-1.34-0.35-2.37-1.11-3.09-2.28 3.16-1.08 6.25-2.35 9.36-3.56-0.11-0.47-0.32-1.42-0.43-1.89-2.78 1.06-5.51 2.71-8.61 2.11 4.71-5.02 11.09-7.91 16.87-11.48-0.74-1.33-3.95-3.73-1.19-4.32 3.69-1.58 7.54 1.16 11.29 0.11 8.38-1.92 15.14-7.5 22.63-11.4 4.22-2.21 8.66-4.69 13.59-4.37 0.11 4.57-3.55 7.6-5.67 11.23-1.31 1.9-0.76 4.23-0.47 6.34-2.22 1.93-4.39 4.11-7.33 4.86-6.15 1.85-10.32 6.97-15.1 10.87-8.33 1.73-16.87 2.99-24.83 6.13-6.82 3.21-14.03 5.93-21.62 6.48-5.83 0.2-10.85 3.71-15.26 7.2l2.18 0.43c2.95-2.02 6.13-3.76 9.63-4.6-0.07 0.55-0.21 1.66-0.28 2.22-6.4 3.87-14.07 4.75-20.74 8.09-2.45 1.57-5.62 0.31-7.96 2.06-6.3 3.73-12.69 7.54-19.83 9.42-4.22 1.18-8.25 2.94-12.19 4.86-5.82 2.55-10.64 6.84-16.43 9.43 1.98 1.13 4.4 3.87 6.67 1.72 5.16-4.84 11.55-8.27 18.53-9.54 0.38-1.14 0.77-2.27 1.17-3.39 0.89 0.66 1.75 1.36 2.61 2.09 5.17-4.13 11.22-6.92 17.28-9.48 7.42-2.99 14.98-5.79 22.86-7.31 0.53-0.97 1.07-1.94 1.61-2.91 0.72 0.45 1.45 0.91 2.18 1.36 6.45-0.01 10.6-5.26 16.05-7.69 1.68-1.06 3.35 0.01 4.92 0.68-1.52 7.79-11.48 8.44-14 15.55-1.4 3.39 0.9 6.59 1.73 9.79 1.07 3.06-1.66 5.46-2.71 8.09 4.34-1.55 7.87-6.24 6.91-10.96-0.06-2.07-1.49-4.75 0.77-6.21-0.87-0.6-1.74-1.2-2.62-1.78 3-4.11 8.2-5.66 11.32-9.63 2.02-2.55 2.7-5.85 4.5-8.53 2.02-2.91 5.36-4.51 8.68-5.46 6.64-1.95 13.39-3.86 20.36-4 4.47-5.71 10.6-11.17 18.25-11.33 2-4.1 5.45-7.61 9.97-8.77 0.03-0.53 0.07-1.59 0.09-2.12l-1 0.22c-0.6-0.4-1.81-1.2-2.41-1.6 0.52-4 4.87-6.16 8.58-5.66l1.28 1.92c-1.6 2.31-3.79 4.04-6.48 4.9 0.67 0.45 1.35 0.9 2.05 1.34 3.68-1.87 9.07-3.22 9.23-8.29-3.4-2.53-7.7-2.22-11.63-1.45 1.26-2.13 2.55-4.26 3.52-6.54-0.25-0.65-0.77-1.93-1.03-2.57-2.51-1.05-5.31-1.19-7.78 0.07-8.15 3.67-16.06 7.83-24.14 11.64-1.47 0.81-3.15 0.32-4.72 0.25l-0.64-2.44c1.6-5.98 4.13-11.61 6.94-17.1 4.24-9.52 13.24-15.44 20.44-22.51 0.71-2.35 0.54-4.93 1.69-7.15 2.05-4.21 5.42-7.54 8.58-10.92-0.1-0.38-0.31-1.13-0.41-1.51-3.33 3.16-6.63 6.38-9.43 10.03-2.93 3.81-6.54 7.21-8.37 11.74-2.63 5.95-8.57 9.23-13.64 12.82-0.03 2.72 0.06 5.54-1 8.1-1.34 3.79-4.48 6.47-7.26 9.19-0.02 3.54-0.04 7.48-2.47 10.32-1.45 1.64-3.73 1.71-5.73 1.98-0.25-5.12 1.92-9.93 4.13-14.41 1.35-2.85 5.16-4.54 4.78-8.08-0.18 0.48-0.54 1.44-0.72 1.92-1.46 0.18-2.92 0.34-4.37 0.5 0.81-4.44 4.57-7.32 7-10.88 2.96-3.61 4.84-8.04 5.26-12.71 8.14 1.05 13.25-6.81 16.49-13.07 1.06 0.32 2.12 0.65 3.18 1 1.27-2.06 2.35-4.39 4.4-5.82 3.75-2.64 8.4-3.86 11.88-6.91 0.23-1 0.42-2.01 0.56-3.03-3.77-1.11-7.81-0.83-10.99 1.59m-94.51 57.34c-2.96 3.11-2.91 7.63-3.91 11.54-0.38 2.68-2.64 4.41-4.26 6.37-0.93 0.7-1.86 1.4-2.8 2.09 3.33-1.56 7.39-2.17 9.71-5.3 2.66-4.04 1.74-9.44 4.59-13.39 1.73-2.71 4.46-4.5 7.09-6.23-4.01-0.07-7.69 2.15-10.42 4.92m85.72 7.66c-4.15 4.25-10.41 4.65-15.21 7.82-2.42 1.65-5.5 3.14-6.21 6.26 3.42-2.06 6.53-4.67 10.26-6.17 5.61-2.3 11.93-3.48 16.57-7.63 1.06-0.8 1.14-2.19 1.21-3.4-2.71-1.08-4.63 1.76-6.62 3.12m-39.59 25.78c-0.02 0.43-0.06 1.3-0.09 1.73 6.89-2.71 14.32-5.4 21.82-4.07 0.75-0.63 1.49-1.26 2.23-1.89 0.08-0.55 0.23-1.66 0.31-2.21-8.54-0.28-16.63 2.99-24.27 6.44m-70.73 22.04c-0.24-0.67-0.73-2.01-0.97-2.68-1.31 0.14-2.59 0.43-3.83 0.88-11.32 3.97-22.57 8.2-34.11 11.51-2.08-2.83-5.37-0.69-7.27 1.17-0.98-0.22-1.97-0.41-2.96-0.56 1.54-0.89 4.09-1.63 2.89-3.91-1.64 0.06-2.71 1.29-3.75 2.4-1.84-0.19-3.74-0.56-3.76-2.95-1.52 0.62-3.02 1.28-4.49 2 0.78 1.47 1.57 2.94 2.35 4.42 0.83 0.17 2.51 0.5 3.34 0.67-1.23 1.83-3.4 1.78-5.33 2.01-0.12 1.52-1.61 4.05 0.88 4.21 3.59-0.85 6.88-2.59 10.32-3.87 0.32 0.68 0.97 2.03 1.29 2.71-0.56 0.46-1.69 1.4-2.25 1.86 0.11 0.65 0.34 1.94 0.45 2.58-2.89 2.85-6.14 6.02-10.58 5.4-1.28-2.36-2.32-4.83-3.42-7.27-1.06 5.01 1.24 10.06 3.25 14.57 3.01 1.16 5.71 3.05 8.8 3.99 6.33 0.59 10.51-5.12 16.01-7.15-0.66-0.48-1.31-0.96-1.96-1.44-4.24 1.74-9.94-0.59-12.94 3.69-0.67 0.05-2.03 0.16-2.71 0.21-0.45-0.62-1.34-1.86-1.78-2.48 3.13-4.41 7.81-7.37 10.8-11.89 3.04-2.34 8.89-1.53 10.06-5.96-1.85 0.36-3.67 0.84-5.47 1.36-0.29 0.41-0.85 1.22-1.14 1.63 0.38-1.41 0.76-2.82 1.13-4.23 4.11-1.78 8.47-2.89 12.72-4.26 7.08-2.08 13.98-4.86 21.23-6.32 0.06-0.34 0.18-1.03 0.24-1.37 0.29 1.53 0.59 3.05 0.9 4.58 7.15-2.53 14.32-5.02 21.55-7.34 4.89-2.66 10.51-3.58 15.15-6.77-0.32-0.82-0.64-1.63-0.96-2.45-11.46 2.88-22.03 8.82-33.68 11.05m-67.36 4.9c-0.65 2.66 0.5 5.4 0.12 8.1-0.26 1.97-0.53 3.95-0.34 5.95 1.69-0.17 4.09 0.31 4.71-1.81 2.38-3.92-0.57-8.05-3.41-10.69 5.48 1.32 9.82-3.15 14.87-4.4-1.1-0.54-2.18-1.12-3.26-1.7-1.72 1.41-3.73 2.43-6.01 2.36-0.99-0.56-1.98-1.12-2.98-1.67-1.25 1.26-2.83 2.28-3.7 3.86m119.33 5.23c2.63 2 6.46-0.15 8.83 2.26 2.79 2.3 1.14 6.47 2.95 9.38 6.16 1.57 10.37-4.97 10.04-10.44-2.08 2.57-3.54 8.15-7.72 6.93-1.38-2.74 0.31-6.54-2.29-8.75-3.54-2.35-8.18-0.64-11.81 0.62m-77.04 7.76c-2.73 2.06-6.26 1.74-9.47 1.79 0.11 0.44 0.33 1.32 0.45 1.76 10.56 1.75 17.9-7.93 27.84-9.11 0.22-1.3 0.44-2.59 0.66-3.88-6.82 2.36-13.58 5.22-19.48 9.44z"/>
  <path d="m228.32 16.45c1.64-0.09 3.28-0.18 4.93-0.21-1.94 4.44-7.72 6.31-12.18 5.24 1.01-1.96 2.33-3.72 3.76-5.4 0.86 1.22 2.18 1.77 3.61 1.97l-0.12-1.6z"/>
  <path d="m115.3 38.19c3.76-2.28 8.38-2.53 12.63-1.8 3.77 0.97 5.83 5.3 4.35 8.88-2.59 5.76-8.45 8.99-12.06 14.01-4.98 6.41-6.02 14.86-5.56 22.73 0.33 7.25-4.53 13.61-10.61 17.04-6.97 4.46-15.49 4.79-22.97 7.98-2.93 1.17-5.7 2.67-8.65 3.79 0.01 0.46 0.03 1.37 0.05 1.82-0.94-0.58-1.87-1.16-2.81-1.74 2.48-1.62 4.98-3.21 7.6-4.6 5.15-2.7 9.47-6.74 14.68-9.34 3.01-1.53 6.23-2.9 8.6-5.4 5.79-5.48 5.09-14.81 11.47-19.91 0.67-0.35 1.33-0.71 1.98-1.07-3.95 0.88-7.86 2.66-10.45 5.88-4.12 4.78-3.37 12.4-8.66 16.35-4.52 3.09-9.64 5.23-13.9 8.74-0.17-0.07-0.53-0.2-0.71-0.26 6.18-6 8.24-14.9 7.94-23.25-0.3-4.05 1.14-7.99 3.89-10.95 4.97-5.46 9.2-11.52 13.28-17.64 2.75-4.17 5.31-8.85 9.91-11.26z"/>
 </g>
 <g id="#054991ff" fill="#054991">
  <path d="m226.99 16.12c3.18-2.42 7.22-2.7 10.99-1.59-0.14 1.02-0.33 2.03-0.56 3.03-3.48 3.05-8.13 4.27-11.88 6.91-2.05 1.43-3.13 3.76-4.4 5.82-1.06-0.35-2.12-0.68-3.18-1-3.24 6.26-8.35 14.12-16.49 13.07-0.42 4.67-2.3 9.1-5.26 12.71-2.43 3.56-6.19 6.44-7 10.88 1.45-0.16 2.91-0.32 4.37-0.5 0.18-0.48 0.54-1.44 0.72-1.92 0.38 3.54-3.43 5.23-4.78 8.08-2.21 4.48-4.38 9.29-4.13 14.41 2-0.27 4.28-0.34 5.73-1.98 2.43-2.84 2.45-6.78 2.47-10.32 2.78-2.72 5.92-5.4 7.26-9.19 1.06-2.56 0.97-5.38 1-8.1 5.07-3.59 11.01-6.87 13.64-12.82 1.83-4.53 5.44-7.93 8.37-11.74 2.8-3.65 6.1-6.87 9.43-10.03 0.1 0.38 0.31 1.13 0.41 1.51-3.16 3.38-6.53 6.71-8.58 10.92-1.15 2.22-0.98 4.8-1.69 7.15-7.2 7.07-16.2 12.99-20.44 22.51-2.81 5.49-5.34 11.12-6.94 17.1l0.64 2.44c1.57 0.07 3.25 0.56 4.72-0.25 8.08-3.81 15.99-7.97 24.14-11.64 2.47-1.26 5.27-1.12 7.78-0.07 0.26 0.64 0.78 1.92 1.03 2.57-0.97 2.28-2.26 4.41-3.52 6.54 3.93-0.77 8.23-1.08 11.63 1.45-0.16 5.07-5.55 6.42-9.23 8.29-0.7-0.44-1.38-0.89-2.05-1.34 2.69-0.86 4.88-2.59 6.48-4.9l-1.28-1.92c-3.71-0.5-8.06 1.66-8.58 5.66 0.6 0.4 1.81 1.2 2.41 1.6l1-0.22c-0.02 0.53-0.06 1.59-0.09 2.12-4.52 1.16-7.97 4.67-9.97 8.77-7.65 0.16-13.78 5.62-18.25 11.33-6.97 0.14-13.72 2.05-20.36 4-3.32 0.95-6.66 2.55-8.68 5.46-1.8 2.68-2.48 5.98-4.5 8.53-3.12 3.97-8.32 5.52-11.32 9.63 0.88 0.58 1.75 1.18 2.62 1.78-2.26 1.46-0.83 4.14-0.77 6.21 0.96 4.72-2.57 9.41-6.91 10.96 1.05-2.63 3.78-5.03 2.71-8.09-0.83-3.2-3.13-6.4-1.73-9.79 2.52-7.11 12.48-7.76 14-15.55-1.57-0.67-3.24-1.74-4.92-0.68-5.45 2.43-9.6 7.68-16.05 7.69-0.73-0.45-1.46-0.91-2.18-1.36-0.54 0.97-1.08 1.94-1.61 2.91-7.88 1.52-15.44 4.32-22.86 7.31-6.06 2.56-12.11 5.35-17.28 9.48-0.86-0.73-1.72-1.43-2.61-2.09-0.4 1.12-0.79 2.25-1.17 3.39-6.98 1.27-13.37 4.7-18.53 9.54-2.27 2.15-4.69-0.59-6.67-1.72 5.79-2.59 10.61-6.88 16.43-9.43 3.94-1.92 7.97-3.68 12.19-4.86 7.14-1.88 13.53-5.69 19.83-9.42 2.34-1.75 5.51-0.49 7.96-2.06 6.67-3.34 14.34-4.22 20.74-8.09 0.07-0.56 0.21-1.67 0.28-2.22-3.5 0.84-6.68 2.58-9.63 4.6l-2.18-0.43c4.41-3.49 9.43-7 15.26-7.2 7.59-0.55 14.8-3.27 21.62-6.48 7.96-3.14 16.5-4.4 24.83-6.13 4.78-3.9 8.95-9.02 15.1-10.87 2.94-0.75 5.11-2.93 7.33-4.86-0.29-2.11-0.84-4.44 0.47-6.34 2.12-3.63 5.78-6.66 5.67-11.23-4.93-0.32-9.37 2.16-13.59 4.37-7.49 3.9-14.25 9.48-22.63 11.4-3.75 1.05-7.6-1.69-11.29-0.11-2.76 0.59 0.45 2.99 1.19 4.32-5.78 3.57-12.16 6.46-16.87 11.48 3.1 0.6 5.83-1.05 8.61-2.11 0.11 0.47 0.32 1.42 0.43 1.89-3.11 1.21-6.2 2.48-9.36 3.56 0.72 1.17 1.75 1.93 3.09 2.28-4.3 0.21-7.48 3.32-10.81 5.65 1.39-6 4.37-11.42 8.01-16.34-5.75-1.03-11.35 1.06-16.78 2.66-4.36 1.18-8 4.17-12.49 4.95-0.07-0.48-0.21-1.43-0.28-1.91-3.02 4.58-5.17 9.84-9.15 13.71 0.57-0.84 1.15-1.67 1.74-2.5-0.25-2.48-0.19-5.74-2.76-7.06-4.56 0.4-8.31 3.42-12.05 5.78-4.1 2.85-8.98 4.84-14.06 4.48-1.19-0.91-2.22-2.84-4.01-2.28-6.13 1.3-12.2 3.1-17.86 5.83-5.64 3.13-12.3 2.13-18.48 2.58-0.09 0.39-0.26 1.17-0.34 1.56 2.42 0.4 4.64 1.45 6.62 2.87-1.72 2.38-4.41 0.55-6.6 0.16 0.13-0.44 0.38-1.31 0.5-1.74-2.01-0.61-4.05-1.16-6.1-1.62 1.89-1.8 4.19-3.07 6.27-4.62 4.52-0.03 9.05-0.55 13.43-1.67 16.61-4.1 33.11-8.65 49.55-13.37 5.28-1.69 10.86-2.73 15.69-5.56 3.76-2.03 8.15-1.98 12.18-3.11 9.61-2.52 19.36-6.08 26.73-12.99 4.88-4.4 7.9-10.99 7.31-17.61 0.08-2.57-0.75-5.7 1.37-7.69 4.55-4.97 9.42-10.37 10.7-17.2 0.13-6.03-4.39-11.76-10.03-13.63-3.78-1.23-7.47 0.53-10.66 2.43 3.13 4.61 6.63 9.32 7.26 15.04 0.99 5.7-0.47 11.8-4.25 16.24-3.21 4.24-8.72 5.95-11.75 10.37-1.66 2.54-3.37 5.17-6.1 6.67-5.51 3.4-9.41 8.88-14.97 12.18-7.17 2.72-15.03 4.09-21.3 8.8-4.75 2.74-9.51 7.01-15.34 6.43-2.12-2.32-0.09-5.29 1.11-7.51-4.56 1.9-9.03 4.14-13.92 5.1-5.25 1.39-10.78 1.13-15.98 2.73-4.23 1.13-7.88 3.63-11.83 5.41-0.7-0.24-2.1-0.71-2.81-0.95 0.1-0.84 0.2-1.67 0.31-2.5 5.2-4.61 11.62-8.85 13.52-15.97 2.18-8.02 1.19-16.92 5.4-24.38 2.25-4.93 7.77-7.33 9.83-12.37 2.86-6.34 5.04-13.6 10.95-17.87 6.54-4.57 14.59-7.85 22.7-6.73 2.7 0.28 4.97 2.22 7.69 2.28 2.53-2.56 4.07-5.96 6.79-8.35 4.81-4.68 12.25-7.35 18.74-4.84 4.06 1.68 8.24 5.38 7.36 10.23-8.22 2.26-14.31 9.77-14.83 18.28-0.81 7.69-7.57 13.28-14.9 14.53 2.89-2.72 6.44-4.77 8.86-7.96 4.15-5.5 2.07-13.28 6.12-18.83 1.99-2.87 5.57-3.77 8.17-5.9 1.57-1.38 1.47-3.55 1.62-5.45-2.84-2.85-7.06-4.27-10.94-2.81-6.69 1.88-9.97 8.69-12.23 14.67-3.89 10.91-17.12 13.81-22.3 23.84-5.81 9.82 1.46 21.41-2.57 31.65-1.42 3.67-4.34 6.77-4.41 10.91 2.55-0.1 5.05-0.81 7.15-2.27 4.81-3.25 9.3-6.96 14.19-10.1 4.94-3.04 10.63-4.48 15.92-6.77 4.76-2.13 7.14-7.07 10.52-10.75 3.54-4.2 8.37-6.93 12.45-10.52 5.34-4.67 8.04-12.38 6.22-19.31-1.31-4.94-3.66-9.66-7.35-13.26 3.74-3.44 8.44-6.14 13.64-6.19 5.7-0.33 10.96 3.15 13.94 7.83l1-0.17-0.66 0.98c1.88 0.43 3.72 1.15 5.67 1.32 5.68-2.25 9.21-7.88 10.99-13.5 1-3.76 3.9-6.91 7.76-7.74 0.59 0.18 1.76 0.56 2.34 0.74m1.33 0.33l0.12 1.6c-1.43-0.2-2.75-0.75-3.61-1.97-1.43 1.68-2.75 3.44-3.76 5.4 4.46 1.07 10.24-0.8 12.18-5.24-1.65 0.03-3.29 0.12-4.93 0.21m-113.02 21.74c-4.6 2.41-7.16 7.09-9.91 11.26-4.08 6.12-8.31 12.18-13.28 17.64-2.75 2.96-4.19 6.9-3.89 10.95 0.3 8.35-1.76 17.25-7.94 23.25 0.18 0.06 0.54 0.19 0.71 0.26 4.26-3.51 9.38-5.65 13.9-8.74 5.29-3.95 4.54-11.57 8.66-16.35 2.59-3.22 6.5-5 10.45-5.88-0.65 0.36-1.31 0.72-1.98 1.07-6.38 5.1-5.68 14.43-11.47 19.91-2.37 2.5-5.59 3.87-8.6 5.4-5.21 2.6-9.53 6.64-14.68 9.34-2.62 1.39-5.12 2.98-7.6 4.6 0.94 0.58 1.87 1.16 2.81 1.74-0.02-0.45-0.04-1.36-0.05-1.82 2.95-1.12 5.72-2.62 8.65-3.79 7.48-3.19 16-3.52 22.97-7.98 6.08-3.43 10.94-9.79 10.61-17.04-0.46-7.87 0.58-16.32 5.56-22.73 3.61-5.02 9.47-8.25 12.06-14.01 1.48-3.58-0.58-7.91-4.35-8.88-4.25-0.73-8.87-0.48-12.63 1.8z"/>
  <path d="m132.48 73.46c2.73-2.77 6.41-4.99 10.42-4.92-2.63 1.73-5.36 3.52-7.09 6.23-2.85 3.95-1.93 9.35-4.59 13.39-2.32 3.13-6.38 3.74-9.71 5.3 0.94-0.69 1.87-1.39 2.8-2.09 1.62-1.96 3.88-3.69 4.26-6.37 1-3.91 0.95-8.43 3.91-11.54z"/>
  <path d="m218.2 81.12c1.99-1.36 3.91-4.2 6.62-3.12-0.07 1.21-0.15 2.6-1.21 3.4-4.64 4.15-10.96 5.33-16.57 7.63-3.73 1.5-6.84 4.11-10.26 6.17 0.71-3.12 3.79-4.61 6.21-6.26 4.8-3.17 11.06-3.57 15.21-7.82z"/>
  <path d="m178.61 106.9c7.64-3.45 15.73-6.72 24.27-6.44-0.08 0.55-0.23 1.66-0.31 2.21-0.74 0.63-1.48 1.26-2.23 1.89-7.5-1.33-14.93 1.36-21.82 4.07 0.03-0.43 0.07-1.3 0.09-1.73z"/>
  <path d="m107.88 128.94c11.65-2.23 22.22-8.17 33.68-11.05 0.32 0.82 0.64 1.63 0.96 2.45-4.64 3.19-10.26 4.11-15.15 6.77-7.23 2.32-14.4 4.81-21.55 7.34-0.31-1.53-0.61-3.05-0.9-4.58-0.06 0.34-0.18 1.03-0.24 1.37-7.25 1.46-14.15 4.24-21.23 6.32-4.25 1.37-8.61 2.48-12.72 4.26-0.37 1.41-0.75 2.82-1.13 4.23 0.29-0.41 0.85-1.22 1.14-1.63 1.8-0.52 3.62-1 5.47-1.36-1.17 4.43-7.02 3.62-10.06 5.96-2.99 4.52-7.67 7.48-10.8 11.89 0.44 0.62 1.33 1.86 1.78 2.48 0.68-0.05 2.04-0.16 2.71-0.21 3-4.28 8.7-1.95 12.94-3.69 0.65 0.48 1.3 0.96 1.96 1.44-5.5 2.03-9.68 7.74-16.01 7.15-3.09-0.94-5.79-2.83-8.8-3.99-2.01-4.51-4.31-9.56-3.25-14.57 1.1 2.44 2.14 4.91 3.42 7.27 4.44 0.62 7.69-2.55 10.58-5.4-0.11-0.64-0.34-1.93-0.45-2.58 0.56-0.46 1.69-1.4 2.25-1.86-0.32-0.68-0.97-2.03-1.29-2.71-3.44 1.28-6.73 3.02-10.32 3.87-2.49-0.16-1-2.69-0.88-4.21 1.93-0.23 4.1-0.18 5.33-2.01-0.83-0.17-2.51-0.5-3.34-0.67-0.78-1.48-1.57-2.95-2.35-4.42 1.47-0.72 2.97-1.38 4.49-2 0.02 2.39 1.92 2.76 3.76 2.95 1.04-1.11 2.11-2.34 3.75-2.4 1.2 2.28-1.35 3.02-2.89 3.91 0.99 0.15 1.98 0.34 2.96 0.56 1.9-1.86 5.19-4 7.27-1.17 11.54-3.31 22.79-7.54 34.11-11.51 1.24-0.45 2.52-0.74 3.83-0.88 0.24 0.67 0.73 2.01 0.97 2.68z"/>
  <path d="m40.52 133.84c0.87-1.58 2.45-2.6 3.7-3.86 1 0.55 1.99 1.11 2.98 1.67 2.28 0.07 4.29-0.95 6.01-2.36 1.08 0.58 2.16 1.16 3.26 1.7-5.05 1.25-9.39 5.72-14.87 4.4 2.84 2.64 5.79 6.77 3.41 10.69-0.62 2.12-3.02 1.64-4.71 1.81-0.19-2 0.08-3.98 0.34-5.95 0.38-2.7-0.77-5.44-0.12-8.1z"/>
  <path d="m159.85 139.07c3.63-1.26 8.27-2.97 11.81-0.62 2.6 2.21 0.91 6.01 2.29 8.75 4.18 1.22 5.64-4.36 7.72-6.93 0.33 5.47-3.88 12.01-10.04 10.44-1.81-2.91-0.16-7.08-2.95-9.38-2.37-2.41-6.2-0.26-8.83-2.26z"/>
  <path d="m82.81 146.83c5.9-4.22 12.66-7.08 19.48-9.44-0.22 1.29-0.44 2.58-0.66 3.88-9.94 1.18-17.28 10.86-27.84 9.11-0.12-0.44-0.34-1.32-0.45-1.76 3.21-0.05 6.74 0.27 9.47-1.79z"/>
 </g>
</svg>
