<svg height="180pt" viewBox="0 0 280 180" width="280pt" xmlns="http://www.w3.org/2000/svg"><g fill="#fefefe"><path d="m0 0h280v180h-280zm138.27 11.97c1.73 4.53 2.71 9.96.03 14.33-1.25 2.14-3.46 4.93-6.28 3.92-1.98-1.04-3.68-2.51-5.56-3.7-7.37-4.88-16.81-6.22-25.35-4.2-4.39 1.33-8.4 3.94-13.06 4.33-4.35.91-8.74.28-13.12.09-10.87-.07-20.88 8.55-22.7 19.17 1.3-.94 2.54-1.97 3.94-2.77 2.01-1.58 4.79-.08 6.09 1.72.72 2.32-.18 4.72-.27 7.07-.47 4.39 1.25 8.56 2.95 12.5 6.21.47 11.81-2.79 16.63-6.33 1.03 2.11 2.16 4.17 3.39 6.17 2 .01 4.2-.01 5.66-1.61 6.13-5.58 9.02-14.45 7.96-22.6-.28-3.46-2.94-6.06-3.52-9.44 1.8-.45 3.59-.93 5.4-1.32l-.07-.99c8.87.17 16.31 6.11 21.15 13.11 2.25 5.9-4.49 10.03-5.49 15.52-1.91 4.07 1.33 8.83-1.5 12.53-1.51 2.22-.19 4.91.08 7.31-1.67 2.9.17 6.06-.41 9.12-.2 1.71-.39 3.41-.59 5.12-3.32.63-4.71 3.72-6.59 6.12-1.86 2.07-1.06 5.04-1.2 7.56.43.03 1.27.09 1.7.13.55-2.01.66-4.6 2.93-5.49 5.14-2.74 11.1-.11 16.57-1.05 2.7-.51 5.71-.15 8.14-1.65-5.1-.97-10.44.33-15.44-1.25-1.56-.32-1.38-2.21-1.83-3.35 6.67-1.48 13.64.21 20.26-1.81.11-.44.34-1.32.45-1.77-2.58-1.3-4.96 1.22-7.57 1.18-4.87-.01-10.68-.89-13.48-5.4 1.1.23 3.31.69 4.41.92 3.1.29 6.22.47 9.33.31-1.27-1.59-3.52-1.01-5.26-1.51-2.58-.6-5.91-1.63-6.36-4.72 5.21.82 10.54.78 15.73-.18-4.01-1.01-8.32-.43-12.19-2.06-2.34-.91-4.33-2.47-6.24-4.05.17-.61.51-1.81.68-2.41.42-.01 1.25-.02 1.67-.02 1.76 1.63 3.47 3.48 5.81 4.27 3.84 1.39 8 .72 11.96.41 1.42 1.85 3.1 3.67 5.67 3.37-.08.29-.23.86-.31 1.15 3.71-1.53 7.75-1.89 11.71-2.2-.05.63-.16 1.9-.21 2.53-2.5 2.8-6.46 4.09-10.15 3.52-.27-.42-.83-1.28-1.11-1.71-.11.6-.35 1.8-.47 2.4 3.98 1.94 8.86 1.82 12.94.26.43.66 1.29 1.97 1.72 2.63-4.05 3.06-9.32 3.43-13.85 1.19 2.14 5.17 8.6 4.1 13.04 3.46 2.18-1.03 2.38 2.12 2.61 3.44-5.83.23-14.02.28-16.66 6.62 4.48-3.08 10.01-2.62 15.16-2.5 1.81-.92 3.5-2.05 5.2-3.17-2.56-3.7-.74-8.45-3.6-11.94.16-2.52.81-5.25-1.22-7.32-.04-2.73 1.3-5.75-.27-8.25-1.1-2-3.34-2.79-5.23-3.8.37-6.1 3.42-12.9 9.44-15.25 7.7-2.52 15.75.85 23.57-.75 7.22-.59 13.54-6.24 15.42-13.14-1.5-2.25-3.88-3.5-6.35-4.4-.37-2.81 2.09-4.96 4.79-4.94 6.8.17 14.41 3.71 16.56 10.63 1.2 3.49-1.88 6.67-.71 10.11 2.24-4.05 3.49-9.04 1.39-13.42-2.74-7.73-11.14-12.51-19.16-11.99-4.62.04-9.93 1.75-11.95 6.28-1.5 2.6.5 5.21 1.87 7.33-1.46 1.01-3.19 1.47-4.94 1.23-8.12-.36-15.98-2.64-24.01-3.68-3.57-.31-7.09.63-10.61 1.08 1.12-7.99-1.52-18.03-9.12-22m57.49 34.78c-3.04 2.16-6.28 6.15-4.12 9.96 1.27-.27 2.77-.15 3.73-1.2 4.14-3.46 7.52-9.29 13.6-9.07 1.08.76 2.29 1.17 3.63 1.22-3.99-5.16-12.09-4.78-16.84-.91m19.83 2.78c2.03 1.59 4.3 2.91 6.1 4.78 1.82 1.95 2.37 4.65 3.14 7.12 2.73.52 4.71-2.22 3.48-4.71-2.17-4.57-7.66-7.73-12.72-7.19m-14.23 4.73c-4.33 2.6-8.15 8.27-5.75 13.32 2.41.68 5.35.04 6.08-2.69 1.36-4.26 1.71-10.66 7.54-10.94.11-.41.33-1.22.45-1.62-2.86.15-5.9.18-8.32 1.93m9.28 4.23c-.5 3.5-2.24 6.85-5.24 8.84-3.82 2.76-8.8 6.13-7.68 11.62 2.26.98 4.6 2.27 5.39 4.79 1.22 2.55 2.76 6.79 6.4 5.67 3.43-1.53 3.86-5.92 6.36-8.43 1.77-2.27 5.32-2.01 6.77-4.64-2.89-2.26-5.82-4.48-8.2-7.29-1 2.81 1.46 5.06 3.17 6.94-3.01 1.78-5.4 4.37-7.69 6.97-1.75-3.06-4.03-5.77-6.85-7.9 3.4-1.61 6.96-3.97 8.06-7.79.66-2.72.49-5.56.69-8.33l1.6.38c1.82 4.47 4 9.55 8.86 11.42 3.19 1.23 8.6 2.17 9.91-2.04-3.5-.47-5.83-3.13-8.64-4.86-3.52-.21-7.54-1.09-8.57-5.01-1.45-.11-2.9-.22-4.34-.34m-152.7 46.82c-3.8 1.69-6.74-1.92-9.87-3.42.37 6.46 10.01 9.14 14.26 4.5 4.34-4.38 10.84-5.19 16.71-4.97 8.17-.03 15.59 4.04 22.34 8.14 1.1 2.96.26 6.24.18 9.32-2.47 2.98-2.73 6.96-4.09 10.45-3.57 2.82-8.15 1.87-12.28 2.8-12.17 4.63-15.91 23.1-6.32 31.99 5.57 5.29 14.63 4.44 20.6.27 4.58-3.15 7.24-8.14 10.57-12.43 1.84-2.9 8.27-2.73 7.86 1.52l-1.67.08c.16.7.46 2.11.62 2.82.72-1.29 1.45-2.59 1.73-4.05.49-.06 1.48-.18 1.97-.25-.46-.14-1.39-.43-1.86-.57.09-2.15-1.45-3.88-3.65-3.86-5.06-.93-8.58 3.45-11.85 6.52-3.57 3.73-8.76 6.9-14.1 5.41-5.3-1.63-7.38-9.04-3.63-13.16 1.8-2.24 4.92-2.02 7.43-2.77 2.86-.63 4.93-2.89 7.49-4.12 2.11-.1 4.22-.01 6.32-.14 1.04-1.15 2.1-2.29 3.15-3.43 4.76 2.12 10.87 2.63 14.95-1.17 1.32-1.07 1.64-3.9 3.76-3.4-.36 2.82-.85 5.91.42 8.59 2.12 4.33 8.18 4.19 10.28 8.54 1.22 1.86-.48 3.86-2.09 4.73-2.7 1.26-5.98 1.5-8.16 3.7-3.92 3.66-.54 11.86 5.06 10.83 3.45.26 5.18-3.31 7.76-4.95-2.92.27-5.3 1.98-7.59 3.66-1.15-.45-2.3-.89-3.45-1.33-.4-1.42-.8-2.83-1.21-4.24l1.4-2.12c2.32-.4 4.66-.63 6.98-1.05 5.52-.91 8.38-9.06 4.2-12.96-2.91-2.9-8.29-1.44-10.45-5.29-1.54-3.1 1.38-5.82 2.69-8.4-.28-.69-.82-2.08-1.09-2.78-1.83.18-4.16.25-4.59 2.66-.81-1.9-1.19-3.94-1.41-5.99-2.02.67-4.05 1.33-6.09 1.94.22 1.54.54 3.06 1 4.55-2.24 3.87-7.31 3.41-11.15 3.16-2.17-.38-4.7.45-6.57-1.01-1-1.46-1.02-3.29-1.34-4.97-.78.01-2.33.02-3.1.02l.68-1.89c3.61-2.46 8.18-1.22 12.23-1.06 3.7.5 6.92-1.64 10.34-2.63.05-.44.14-1.34.18-1.78-2 .9-4.14 1.52-6.35 1.01 1.12-2.08 2.96-3.55 5.24-4.13.01-.48.04-1.44.05-1.92-5.85.47-9.49 5.43-14.63 7.45-.45-1.41-2.3-3.18-.84-4.57 1.72-1.68 3.87-2.93 5.15-5.02-1.88.6-3.72 2.17-5.8 1.51-1.83-1.18-2.08-3.41-2.53-5.34.75.04 2.24.13 2.98.17l-.37 1.12c4.47-.19 9.01-.96 12.99-3.12 1.93-.85 3.45-2.51 3.15-4.76-3.79-.21-7.13 1.56-10.24 3.51-3.17 2.14-7.11 1.43-10.66 1.05-6.61-3.61-11.68-10.55-19.68-11.09-8.9-.84-16.13 5.15-24.01 8.12m100.7-5.75.09 1.1-.81.02c-2.82 1.36-6.35 1.16-8.64 3.55-1.97 1.65-3.28 4.89-6.29 4.59-3.14.04-6.14-1.77-9.28-1.08-.23.56-.7 1.68-.93 2.24.99.41 1.99.82 2.99 1.22 1.74-.26 3.5-.64 5.26-.41 6.71 1.11 13.16-2.45 18.18-6.6 4.43 1.75 7.06 6.51 11.89 7.44 7.8 1.9 15.05-3.21 22.85-2.45 5.49-.16 10.22 3.2 13.64 7.2 3.56 4.34 9.31 6.9 14.92 6.24l.3.51c1.26-.42 2.58-.52 3.9-.58l-.5-.97c1.34-.01 2.82.12 3.76-1.04-3.96-.11-8.15.77-11.88-.97-6.96-3.24-10.31-11.46-17.8-13.86-6.38-2.42-12.85 1.15-18.89 2.98-3.95 1.43-8.24.32-11.98-1.21-3.78-1.55-5.88-5.36-7.43-8.92-.93.76-1.98 1.66-3.35 1m7.34 13.22c.12 5.1-2.87 9.34-6.89 12.16 2.08 2.09 3.94 4.77 7.13 5.11.17.79.52 2.36.69 3.15-.67.62-1.34 1.25-2 1.88 3.19.75 5.44 3.06 7.83 5.1 2.31.55 4.9.6 6.41 2.74-1.29.71-2.57 1.41-3.85 2.13 1.19 1.18 2.41 2.33 3.63 3.48 1.29-.8 3.35-1.14 3.71-2.89.91-3.63-2.95-5.73-4.44-8.56.2-.64.59-1.91.79-2.54-2.24-.38-5.03.01-6.58-2.02-2.11-2.58-4.99-4.3-8.15-5.27 3.28-1.82 4.82-5.39 4.61-9.03l1.48.8c-.07-.76-.2-2.28-.26-3.04l-.8.69c-.66-1.38-1.31-2.75-1.97-4.12-.34.06-1.01.17-1.34.23m-23.67 2.92c0 1.67.43 3.27 1.41 4.64 1.57-.11 3.14-.21 4.71-.3-.26 2.71-1.41 5.79.32 8.25 2.08 2.95 6.78 3.16 9.27.64-2.02-.99-4.37-.29-6.52-.48-1.37-4.2 1.98-8.05 1.13-12.16-1.46-4.43-7.89-3.85-10.32-.59m29.86 1.89c-.62.5-1.22 1.02-1.81 1.56 5.47 3.8 12.17 3.01 18.31 1.74-.27 1.03-.81 3.11-1.07 4.15-.45 3.06 3.23 3.72 5.24 4.94.09 2.97-1.4 5.53-2.98 7.91 3.01-1.88 6.23-5.15 5.49-8.99-1.4-3.07-5.96-3.3-6.08-7.32 2.05-.44 4.36-1.75 6.33-.34 4.28 2.29 6.69 6.58 9.18 10.54-1.16-6.9-7.22-12.75-13.93-14.39-6.2-2.19-12.45 2.4-18.68.2m-42.26 1.49c.41 2.85 3.64 3.76 4.67 6.3 2.79 5.19 4.32 12.1 10.33 14.58 3.8 1.83 8 .03 11.92.45 2.97 2.79 6.69 4.51 10.72 5.09.36 2.89.9 5.8 2.55 8.25.07 3.35-.33 7.42 2.93 9.52 5.06 1.9 10.12-3.78 8.56-8.72 5.19-1.39 9.36-5.18 11.37-10.15-4.28 3.91-9.67 7.8-15.81 5.92.97 2.69 2.03 6.41-1.1 8.17-3.06.42-4.88-4.63-2.74-6.52-.02-.29-.06-.85-.07-1.13-1-.68-2.03-1.31-2.91-2.13-.3-1.97-.08-3.98-.03-5.96-2.88-.49-6.18-.39-8.43-2.53-1.57-1.25-2.05-3.27-2.74-5.04-4.09.53-8.3 2.52-12.4.98-8.04-3.22-7.74-15.39-16.82-17.08z"/><path d="m88.79 28.41c6.12-1.26 11.71-5.02 18.15-4.84 9.2-.1 17.39 5.13 23.87 11.2-.13 2.53-3.1 6.69-5.69 4.16-4.74-5.02-10.62-9.16-17.38-10.87-5.27-1.36-11.21-.83-15.58 2.63.13.76.27 1.52.41 2.28 3.86 2.71 3.85 7.87 3.3 12.07-.49 5.24-2.9 10.23-6.8 13.77-.57-.16-1.72-.5-2.29-.66-.42-1.12-1.88-2.31-.98-3.55 3.31-4.6 7.04-9.48 7.42-15.36-.48-2.23-1.24-5.85-4.36-4.9-.01-1.98-.03-3.95-.07-5.93z"/><path d="m188.3 28.45c1.11-1.44 2.78-2.28 4.26-3.29-.27 2.29-.97 4.58-.69 6.9.71 2.65 5.39 3.13 4.47 6.31-1.75 5.53-8.14 7.17-13.28 7.58-8.63 1.05-17.91-1.93-26.03 2.13-5.86 2.84-9.13 8.79-11.51 14.56-3.53 8.67-16.65 12.29-23.24 5.04-2.87-2.68-2.67-7.1-1.01-10.38 4.23-9.45 11.96-18.45 22.58-20.44 13.07-2.75 25.79 4.23 38.87 2.78 2.59-.2 5.03-1.56 6.44-3.76.66-2.49-1.67-4.96-.86-7.43z"/><path d="m142.89 25.65c1.8 2.37 2.82 5.19 4.04 7.88-2.75 1.32-5.67 2.21-8.62 2.95.65-3.93 3.18-7.16 4.58-10.83z"/><path d="m68.86 31.66c6.18-2.45 12.99-.74 19.31-2.52.13 1.2.28 2.4.47 3.6-4.66-.94-9.32.33-13.92 1.01-3.57.82-7.87 2.88-8.27 7 2.25.86 3.75 2.69 4.35 5l1.57.04c1.03-3.36 2.12-7.19 5.34-9.09 3.4-1.85 7.25-2.6 10.94-3.63.75 4.02-1.04 7.95-.33 11.98.36 2.17-1.07 4.04-2.75 5.22-.08-2.48.58-5.15-.63-7.46-.9 2.22-1.49 4.56-1.45 6.97l-1-.49c.05 1.25.09 2.49.14 3.74-4.77 2.7-9.43 5.9-14.84 7.14-.89-4.79 1.14-10.05-1.42-14.48-1.57-2.68-4.24-4.45-6.37-6.65 2.65-2.77 5.09-6.07 8.86-7.38m5.34 22.75c2.18-.82 4.29-1.8 6.31-2.96-.12-5.17.58-11.23 5.23-14.42-.1-.22-.29-.66-.38-.87-6.34 3.76-11.53 10.58-11.16 18.25z"/><path d="m142.59 75.14c3.3-2.01 4.78-5.61 7.4-8.24.77 1.61 1.97 3.28 1.34 5.17-1.69 3.64-5.92 4.7-9.32 6.07.15-.75.43-2.25.58-3z"/><path d="m94.01 133.22c2.65-.62 4.26-2.98 6.45-4.39 1.48 4.77-2.37 8.22-5.99 10.47-3.33 1.75-7.36 2.31-10.1 5.1-3.78 3.33-4.14 9.49-1.36 13.55 2.14 2.91 5.85 3.65 9.08 4.68-.22.5-.67 1.51-.89 2.01-6.24.69-11.8-4.06-13.6-9.77-.86-4.42-.87-9.53 2.02-13.25 3.35-4.73 9.06-6.81 14.39-8.4z"/></g><g fill="#064992"><path d="m138.27 11.97c7.6 3.97 10.24 14.01 9.12 22 3.52-.45 7.04-1.39 10.61-1.08 8.03 1.04 15.89 3.32 24.01 3.68 1.75.24 3.48-.22 4.94-1.23-1.37-2.12-3.37-4.73-1.87-7.33 2.02-4.53 7.33-6.24 11.95-6.28 8.02-.52 16.42 4.26 19.16 11.99 2.1 4.38.85 9.37-1.39 13.42-1.17-3.44 1.91-6.62.71-10.11-2.15-6.92-9.76-10.46-16.56-10.63-2.7-.02-5.16 2.13-4.79 4.94 2.47.9 4.85 2.15 6.35 4.4-1.88 6.9-8.2 12.55-15.42 13.14-7.82 1.6-15.87-1.77-23.57.75-6.02 2.35-9.07 9.15-9.44 15.25 1.89 1.01 4.13 1.8 5.23 3.8 1.57 2.5.23 5.52.27 8.25 2.03 2.07 1.38 4.8 1.22 7.32 2.86 3.49 1.04 8.24 3.6 11.94-1.7 1.12-3.39 2.25-5.2 3.17-5.15-.12-10.68-.58-15.16 2.5 2.64-6.34 10.83-6.39 16.66-6.62-.23-1.32-.43-4.47-2.61-3.44-4.44.64-10.9 1.71-13.04-3.46 4.53 2.24 9.8 1.87 13.85-1.19-.43-.66-1.29-1.97-1.72-2.63-4.08 1.56-8.96 1.68-12.94-.26.12-.6.36-1.8.47-2.4.28.43.84 1.29 1.11 1.71 3.69.57 7.65-.72 10.15-3.52.05-.63.16-1.9.21-2.53-3.96.31-8 .67-11.71 2.2.08-.29.23-.86.31-1.15-2.57.3-4.25-1.52-5.67-3.37-3.96.31-8.12.98-11.96-.41-2.34-.79-4.05-2.64-5.81-4.27-.42 0-1.25.01-1.67.02-.17.6-.51 1.8-.68 2.41 1.91 1.58 3.9 3.14 6.24 4.05 3.87 1.63 8.18 1.05 12.19 2.06-5.19.96-10.52 1-15.73.18.45 3.09 3.78 4.12 6.36 4.72 1.74.5 3.99-.08 5.26 1.51-3.11.16-6.23-.02-9.33-.31-1.1-.23-3.31-.69-4.41-.92 2.8 4.51 8.61 5.39 13.48 5.4 2.61.04 4.99-2.48 7.57-1.18-.11.45-.34 1.33-.45 1.77-6.62 2.02-13.59.33-20.26 1.81.45 1.14.27 3.03 1.83 3.35 5 1.58 10.34.28 15.44 1.25-2.43 1.5-5.44 1.14-8.14 1.65-5.47.94-11.43-1.69-16.57 1.05-2.27.89-2.38 3.48-2.93 5.49-.43-.04-1.27-.1-1.7-.13.14-2.52-.66-5.49 1.2-7.56 1.88-2.4 3.27-5.49 6.59-6.12.2-1.71.39-3.41.59-5.12.58-3.06-1.26-6.22.41-9.12-.27-2.4-1.59-5.09-.08-7.31 2.83-3.7-.41-8.46 1.5-12.53 1-5.49 7.74-9.62 5.49-15.52-4.84-7-12.28-12.94-21.15-13.11l.07.99c-1.81.39-3.6.87-5.4 1.32.58 3.38 3.24 5.98 3.52 9.44 1.06 8.15-1.83 17.02-7.96 22.6-1.46 1.6-3.66 1.62-5.66 1.61-1.23-2-2.36-4.06-3.39-6.17-4.82 3.54-10.42 6.8-16.63 6.33-1.7-3.94-3.42-8.11-2.95-12.5.09-2.35.99-4.75.27-7.07-1.3-1.8-4.08-3.3-6.09-1.72-1.4.8-2.64 1.83-3.94 2.77 1.82-10.62 11.83-19.24 22.7-19.17 4.38.19 8.77.82 13.12-.09 4.66-.39 8.67-3 13.06-4.33 8.54-2.02 17.98-.68 25.35 4.2 1.88 1.19 3.58 2.66 5.56 3.7 2.82 1.01 5.03-1.78 6.28-3.92 2.68-4.37 1.7-9.8-.03-14.33m-49.48 16.44c.04 1.98.06 3.95.07 5.93 3.12-.95 3.88 2.67 4.36 4.9-.38 5.88-4.11 10.76-7.42 15.36-.9 1.24.56 2.43.98 3.55.57.16 1.72.5 2.29.66 3.9-3.54 6.31-8.53 6.8-13.77.55-4.2.56-9.36-3.3-12.07-.14-.76-.28-1.52-.41-2.28 4.37-3.46 10.31-3.99 15.58-2.63 6.76 1.71 12.64 5.85 17.38 10.87 2.59 2.53 5.56-1.63 5.69-4.16-6.48-6.07-14.67-11.3-23.87-11.2-6.44-.18-12.03 3.58-18.15 4.84m99.51.04c-.81 2.47 1.52 4.94.86 7.43-1.41 2.2-3.85 3.56-6.44 3.76-13.08 1.45-25.8-5.53-38.87-2.78-10.62 1.99-18.35 10.99-22.58 20.44-1.66 3.28-1.86 7.7 1.01 10.38 6.59 7.25 19.71 3.63 23.24-5.04 2.38-5.77 5.65-11.72 11.51-14.56 8.12-4.06 17.4-1.08 26.03-2.13 5.14-.41 11.53-2.05 13.28-7.58.92-3.18-3.76-3.66-4.47-6.31-.28-2.32.42-4.61.69-6.9-1.48 1.01-3.15 1.85-4.26 3.29m-45.41-2.8c-1.4 3.67-3.93 6.9-4.58 10.83 2.95-.74 5.87-1.63 8.62-2.95-1.22-2.69-2.24-5.51-4.04-7.88m-74.03 6.01c-3.77 1.31-6.21 4.61-8.86 7.38 2.13 2.2 4.8 3.97 6.37 6.65 2.56 4.43.53 9.69 1.42 14.48 5.41-1.24 10.07-4.44 14.84-7.14-.05-1.25-.09-2.49-.14-3.74l1 .49c-.04-2.41.55-4.75 1.45-6.97 1.21 2.31.55 4.98.63 7.46 1.68-1.18 3.11-3.05 2.75-5.22-.71-4.03 1.08-7.96.33-11.98-3.69 1.03-7.54 1.78-10.94 3.63-3.22 1.9-4.31 5.73-5.34 9.09l-1.57-.04c-.6-2.31-2.1-4.14-4.35-5 .4-4.12 4.7-6.18 8.27-7 4.6-.68 9.26-1.95 13.92-1.01-.19-1.2-.34-2.4-.47-3.6-6.32 1.78-13.13.07-19.31 2.52m73.73 43.48c-.15.75-.43 2.25-.58 3 3.4-1.37 7.63-2.43 9.32-6.07.63-1.89-.57-3.56-1.34-5.17-2.62 2.63-4.1 6.23-7.4 8.24z"/><path d="m74.2 54.41c-.37-7.67 4.82-14.49 11.16-18.25.09.21.28.65.38.87-4.65 3.19-5.35 9.25-5.23 14.42-2.02 1.16-4.13 2.14-6.31 2.96z"/><path d="m195.76 46.75c4.75-3.87 12.85-4.25 16.84.91-1.34-.05-2.55-.46-3.63-1.22-6.08-.22-9.46 5.61-13.6 9.07-.96 1.05-2.46.93-3.73 1.2-2.16-3.81 1.08-7.8 4.12-9.96z"/><path d="m215.59 49.53c5.06-.54 10.55 2.62 12.72 7.19 1.23 2.49-.75 5.23-3.48 4.71-.77-2.47-1.32-5.17-3.14-7.12-1.8-1.87-4.07-3.19-6.1-4.78z"/><path d="m201.36 54.26c2.42-1.75 5.46-1.78 8.32-1.93-.12.4-.34 1.21-.45 1.62-5.83.28-6.18 6.68-7.54 10.94-.73 2.73-3.67 3.37-6.08 2.69-2.4-5.05 1.42-10.72 5.75-13.32z"/><path d="m210.64 58.49c1.44.12 2.89.23 4.34.34 1.03 3.92 5.05 4.8 8.57 5.01 2.81 1.73 5.14 4.39 8.64 4.86-1.31 4.21-6.72 3.27-9.91 2.04-4.86-1.87-7.04-6.95-8.86-11.42l-1.6-.38c-.2 2.77-.03 5.61-.69 8.33-1.1 3.82-4.66 6.18-8.06 7.79 2.82 2.13 5.1 4.84 6.85 7.9 2.29-2.6 4.68-5.19 7.69-6.97-1.71-1.88-4.17-4.13-3.17-6.94 2.38 2.81 5.31 5.03 8.2 7.29-1.45 2.63-5 2.37-6.77 4.64-2.5 2.51-2.93 6.9-6.36 8.43-3.64 1.12-5.18-3.12-6.4-5.67-.79-2.52-3.13-3.81-5.39-4.79-1.12-5.49 3.86-8.86 7.68-11.62 3-1.99 4.74-5.34 5.24-8.84z"/><path d="m57.94 105.31c7.88-2.97 15.11-8.96 24.01-8.12 8 .54 13.07 7.48 19.68 11.09 3.55.38 7.49 1.09 10.66-1.05 3.11-1.95 6.45-3.72 10.24-3.51.3 2.25-1.22 3.91-3.15 4.76-3.98 2.16-8.52 2.93-12.99 3.12l.37-1.12c-.74-.04-2.23-.13-2.98-.17.45 1.93.7 4.16 2.53 5.34 2.08.66 3.92-.91 5.8-1.51-1.28 2.09-3.43 3.34-5.15 5.02-1.46 1.39.39 3.16.84 4.57 5.14-2.02 8.78-6.98 14.63-7.45-.01.48-.04 1.44-.05 1.92-2.28.58-4.12 2.05-5.24 4.13 2.21.51 4.35-.11 6.35-1.01-.04.44-.13 1.34-.18 1.78-3.42.99-6.64 3.13-10.34 2.63-4.05-.16-8.62-1.4-12.23 1.06l-.68 1.89c.77 0 2.32-.01 3.1-.02.32 1.68.34 3.51 1.34 4.97 1.87 1.46 4.4.63 6.57 1.01 3.84.25 8.91.71 11.15-3.16-.46-1.49-.78-3.01-1-4.55 2.04-.61 4.07-1.27 6.09-1.94.22 2.05.6 4.09 1.41 5.99.43-2.41 2.76-2.48 4.59-2.66.27.7.81 2.09 1.09 2.78-1.31 2.58-4.23 5.3-2.69 8.4 2.16 3.85 7.54 2.39 10.45 5.29 4.18 3.9 1.32 12.05-4.2 12.96-2.32.42-4.66.65-6.98 1.05l-1.4 2.12c.41 1.41.81 2.82 1.21 4.24 1.15.44 2.3.88 3.45 1.33 2.29-1.68 4.67-3.39 7.59-3.66-2.58 1.64-4.31 5.21-7.76 4.95-5.6 1.03-8.98-7.17-5.06-10.83 2.18-2.2 5.46-2.44 8.16-3.7 1.61-.87 3.31-2.87 2.09-4.73-2.1-4.35-8.16-4.21-10.28-8.54-1.27-2.68-.78-5.77-.42-8.59-2.12-.5-2.44 2.33-3.76 3.4-4.08 3.8-10.19 3.29-14.95 1.17-1.05 1.14-2.11 2.28-3.15 3.43-2.1.13-4.21.04-6.32.14-2.56 1.23-4.63 3.49-7.49 4.12-2.51.75-5.63.53-7.43 2.77-3.75 4.12-1.67 11.53 3.63 13.16 5.34 1.49 10.53-1.68 14.1-5.41 3.27-3.07 6.79-7.45 11.85-6.52 2.2-.02 3.74 1.71 3.65 3.86.47.14 1.4.43 1.86.57-.49.07-1.48.19-1.97.25-.28 1.46-1.01 2.76-1.73 4.05-.16-.71-.46-2.12-.62-2.82l1.67-.08c.41-4.25-6.02-4.42-7.86-1.52-3.33 4.29-5.99 9.28-10.57 12.43-5.97 4.17-15.03 5.02-20.6-.27-9.59-8.89-5.85-27.36 6.32-31.99 4.13-.93 8.71.02 12.28-2.8 1.36-3.49 1.62-7.47 4.09-10.45.08-3.08.92-6.36-.18-9.32-6.75-4.1-14.17-8.17-22.34-8.14-5.87-.22-12.37.59-16.71 4.97-4.25 4.64-13.89 1.96-14.26-4.5 3.13 1.5 6.07 5.11 9.87 3.42m36.07 27.91c-5.33 1.59-11.04 3.67-14.39 8.4-2.89 3.72-2.88 8.83-2.02 13.25 1.8 5.71 7.36 10.46 13.6 9.77.22-.5.67-1.51.89-2.01-3.23-1.03-6.94-1.77-9.08-4.68-2.78-4.06-2.42-10.22 1.36-13.55 2.74-2.79 6.77-3.35 10.1-5.1 3.62-2.25 7.47-5.7 5.99-10.47-2.19 1.41-3.8 3.77-6.45 4.39z"/><path d="m158.64 99.56c1.37.66 2.42-.24 3.35-1 1.55 3.56 3.65 7.37 7.43 8.92 3.74 1.53 8.03 2.64 11.98 1.21 6.04-1.83 12.51-5.4 18.89-2.98 7.49 2.4 10.84 10.62 17.8 13.86 3.73 1.74 7.92.86 11.88.97-.94 1.16-2.42 1.03-3.76 1.04l.5.97c-1.32.06-2.64.16-3.9.58l-.3-.51c-5.61.66-11.36-1.9-14.92-6.24-3.42-4-8.15-7.36-13.64-7.2-7.8-.76-15.05 4.35-22.85 2.45-4.83-.93-7.46-5.69-11.89-7.44-5.02 4.15-11.47 7.71-18.18 6.6-1.76-.23-3.52.15-5.26.41-1-.4-2-.81-2.99-1.22.23-.56.7-1.68.93-2.24 3.14-.69 6.14 1.12 9.28 1.08 3.01.3 4.32-2.94 6.29-4.59 2.29-2.39 5.82-2.19 8.64-3.55l.81-.02z"/><path d="m165.98 112.78c.33-.06 1-.17 1.34-.23.66 1.37 1.31 2.74 1.97 4.12l.8-.69c.06.76.19 2.28.26 3.04l-1.48-.8c.21 3.64-1.33 7.21-4.61 9.03 3.16.97 6.04 2.69 8.15 5.27 1.55 2.03 4.34 1.64 6.58 2.02-.2.63-.59 1.9-.79 2.54 1.49 2.83 5.35 4.93 4.44 8.56-.36 1.75-2.42 2.09-3.71 2.89-1.22-1.15-2.44-2.3-3.63-3.48 1.28-.72 2.56-1.42 3.85-2.13-1.51-2.14-4.1-2.19-6.41-2.74-2.39-2.04-4.64-4.35-7.83-5.1.66-.63 1.33-1.26 2-1.88-.17-.79-.52-2.36-.69-3.15-3.19-.34-5.05-3.02-7.13-5.11 4.02-2.82 7.01-7.06 6.89-12.16z"/><path d="m142.31 115.7c2.43-3.26 8.86-3.84 10.32.59.85 4.11-2.5 7.96-1.13 12.16 2.15.19 4.5-.51 6.52.48-2.49 2.52-7.19 2.31-9.27-.64-1.73-2.46-.58-5.54-.32-8.25-1.57.09-3.14.19-4.71.3-.98-1.37-1.41-2.97-1.41-4.64z"/><path d="m172.17 117.59c6.23 2.2 12.48-2.39 18.68-.2 6.71 1.64 12.77 7.49 13.93 14.39-2.49-3.96-4.9-8.25-9.18-10.54-1.97-1.41-4.28-.1-6.33.34.12 4.02 4.68 4.25 6.08 7.32.74 3.84-2.48 7.11-5.49 8.99 1.58-2.38 3.07-4.94 2.98-7.91-2.01-1.22-5.69-1.88-5.24-4.94.26-1.04.8-3.12 1.07-4.15-6.14 1.27-12.84 2.06-18.31-1.74.59-.54 1.19-1.06 1.81-1.56z"/><path d="m129.91 119.08c9.08 1.69 8.78 13.86 16.82 17.08 4.1 1.54 8.31-.45 12.4-.98.69 1.77 1.17 3.79 2.74 5.04 2.25 2.14 5.55 2.04 8.43 2.53-.05 1.98-.27 3.99.03 5.96.88.82 1.91 1.45 2.91 2.13.01.28.05.84.07 1.13-2.14 1.89-.32 6.94 2.74 6.52 3.13-1.76 2.07-5.48 1.1-8.17 6.14 1.88 11.53-2.01 15.81-5.92-2.01 4.97-6.18 8.76-11.37 10.15 1.56 4.94-3.5 10.62-8.56 8.72-3.26-2.1-2.86-6.17-2.93-9.52-1.65-2.45-2.19-5.36-2.55-8.25-4.03-.58-7.75-2.3-10.72-5.09-3.92-.42-8.12 1.38-11.92-.45-6.01-2.48-7.54-9.39-10.33-14.58-1.03-2.54-4.26-3.45-4.67-6.3z"/></g></svg>