<svg height="180pt" viewBox="0 0 280 180" width="280pt" xmlns="http://www.w3.org/2000/svg"><g fill="#fefefe"><path d="m0 0h280v180h-280zm89.09 5.14c-13.42.85-26.77 3.33-39.47 7.78-5.8 2.13-11.94 4.52-15.85 9.57 3.96.86 8.07.72 11.99 1.78 6.4 1.67 12.66 3.82 18.92 5.97 14.67 5.34 26.76 15.75 41.07 21.84 6.09 2.66 12.89 2.17 19.35 1.75 6.36-.55 13.04-1.56 18.38-5.33 3.3-2.18 6.91-4.25 11-4.15l-.03.9c3.81.64 7.27 2.48 10.19 4.98 1.29 1.22 3.36 2.35 3.05 4.43-2.79 1.76-6.08 3.09-7.52 6.32 1.3 2.18 2.73 4.43 5.38 5.09.08 1.25.09 2.5.07 3.76-2.42-.81-4.82-1.66-7.26-2.39l-.28 1.6c-2.59 2.77-5.43-1.07-6.7-3.22 3.07-.01 6.81-1.43 8.81 1.78l1.68-2.96c-2.44-1.09-4.9-2.16-7.41-3.09-1.38-1.68-2.56-3.68-4.55-4.73-1.76-.92-2.79 1.16-3.79 2.15 1.48 1.3 3.08 2.47 4.46 3.88-1.01 3.32-.76 6.62 1.03 9.65-1.66-.4-3.31-.8-4.96-1.22-.39-1.63-.7-3.27-1.22-4.85-1.6-.72-3.41-1.05-4.84-2.1-2.07-1.88-3.73-4.39-6.45-5.41-2.11-.82-4.89-1.3-6.61.56-2.49 2.01-1.5 5.85.82 7.57-.28 1.69-.56 3.38-.79 5.09 2.19.15 4.37.31 6.55.53.04-.59.13-1.79.18-2.38 1.56-1.02 3.14-2 4.72-2.99 3.71 1.34 3.96 5.95 6.8 8.31 2.32.2 4.96.02 6.79 1.74 6.17 4.57 8 12.58 13.39 17.82 3.69 4 8.5 6.74 13.49 8.79-.65-4.48-1.45-8.98-1.33-13.53 3.66 1.25 7.65 1.58 10.89 3.86 3.84.22 6.97-2.83 10.54-3.96.7-7.7 2.86-16.35-1.68-23.32-4.3-7.13-12.19-10.79-19.87-13.06-3.31-2.27-5.71-5.75-9.27-7.77.51 2.11.93 4.47 3.45 4.98-.29.11-.89.32-1.18.42-3.17-2.46-6.37-4.94-10.13-6.45-7.12-2.99-15.37-2.41-22.49.27-11.13 5.01-24.38 5.89-35.79 1.26-9.73-3.7-18.78-8.96-27.28-14.92-3.4-2.32-7.41-3.41-11.31-4.53.35-.28 1.06-.85 1.42-1.13-.48-.63-.95-1.26-1.42-1.88-1.56.5-3.06 1.87-4.79 1.22-3.52-.87-7.05-1.72-10.6-2.43.81-.33 2.44-.99 3.26-1.32 4.9-.3 9.87-.18 14.71.67.06.58.18 1.74.23 2.32 3.79-1.07 7.7-1.65 11.49-2.73-.02-.49-.05-1.46-.07-1.94-10.73-1.07-21.53-.07-32.26-.75 2.94-4.21 8.45-4.83 13.04-6.13 5.38-1.77 10.13 2.08 14.5 4.63 0-.28.02-.84.02-1.12l-.69-.14c-.87-1.54-2.17-2.75-3.66-3.68.07-.6.2-1.78.27-2.38 6.3 1.27 12.02 4.22 17.48 7.49-1.4-3.62-5.13-5.23-8.16-7.21 4.59-2.54 10.26-.69 14.11 2.4 2.49 1.83 4.13 4.72 7.07 5.92-1.12-3.46-3.77-6.03-6.45-8.34-.05-.58-.16-1.73-.22-2.31 3.5.46 7.34.63 10.17 3.02 3.41 2.32 4.8 6.58 8.3 8.8-1.18-4.81-4.67-8.42-7.7-12.14 4.36.38 8.91 1.55 12.15 4.67 2.84 2.54 4.25 6.16 5.79 9.53.46.13 1.36.39 1.81.53-1.28-3.94-2.99-7.73-3.91-11.78 5.1.75 9.61 4.33 11.53 9.1.83 1.96.95 4.44 3.04 5.59-.12-2.64-.48-5.26-.8-7.88 6.92 3.02 12.9 8.43 16.16 15.29 1.46 3.06 3.82 5.65 6.95 7.04 3.15 1.28 5.23 4.93 8.99 4.37-1.66-5.18-8.63-4.54-11.28-8.91-1.3-2.71-2.05-5.71-3.85-8.17-2.73-3.96-6.98-6.42-10.51-9.57-2.98-2.34-5.74-5.13-9.21-6.72-6.05-1.25-11.23-4.83-17.12-6.62-1.22.47-2.45 1.48-3.83 1.04-6.89-1.21-14.07-2.68-20.9-.42m2.15 18.07c-4.79 2.95-10.68 1.71-15.89 3.36.09.47.27 1.4.36 1.87 4.38-.77 8.82-.57 13.24-.69 2.52-.03 4.26-2.1 6.43-3.06 1.69-.68 3.64-.86 5.01-2.19-3.03-.43-6.4-1-9.15.71m5.31 7.36c-3.36 2.3-7.55 2.01-11.41 1.95.14.45.42 1.37.55 1.83 4.84.08 9.74-.17 14.43-1.43 3.86-1.04 6.25-4.58 9.83-6.13 2.34-.64 4.58.83 6.89 1 .06-4.17-4.92-3.69-7.81-3.92-5.17-.16-8.55 4.1-12.48 6.7m69.6-4.49c1.03 3.6 3.18 6.76 4.03 10.43-1.71-.44-3.39-.52-5.05-.22.45 2.31 1.26 4.54 1.88 6.81-.56-4 3.34-2.12 5.4-2.47-.1-2.64-.52-5.41.55-7.93.48 1.04 1.45 3.12 1.94 4.15.64-.73 1.28-1.48 1.92-2.22-2.03-4.28-5.71-8.14-10.67-8.55m-51.81 4.38c-2.47 1.35-3.91 4.05-6.42 5.36-3.53 1.79-7.56 2.03-11.44 2.08-.04.48-.12 1.44-.16 1.93 5.1-.32 10.25-.76 15.15-2.29 3.06-.96 5.05-3.7 7.88-5.06 2.63-.78 5.41-.79 8.12-1.17-.05-.98-.09-1.96-.13-2.95-4.28 1.04-8.68 1.36-13 2.1m17.88 3.6c-4.64 1.25-7.36 5.46-11.17 8.01-3.93 2.03-8.47 2.13-12.8 2.17.01.38.03 1.14.04 1.53 6.31.35 13.17.66 18.83-2.64 3.54-2.63 6.1-7.12 10.88-7.6 2.79.24 5.14 2.21 8 2.22-2.39-5.02-9.15-5.31-13.78-3.69m44.68 3.3c-3.25-.66-2.38 4.24-3.46 6.13.45 0 1.36.01 1.82.02.82-1.29 1.1-3.33 3.09-3.35 0 3.06-1.46 6.71.89 9.28 1.05-4.57 2.52-9.05 3.1-13.71-.97.01-2.9.04-3.87.05-.51.54-1.03 1.07-1.57 1.58m-42.61 35.63c5.14 1.82 7.37 7.11 11.29 10.47 4.08 3.91 9.25 6.31 14.37 8.55-3.48-3.51-6.81-7.16-9.96-10.96-3.6-4.35-8.68-7.02-13.64-9.5-.7.47-1.38.95-2.06 1.44m7.88 26.03c.59.32 1.76.96 2.34 1.28 5.69 1.67 11.28 4.42 14.83 9.36 8.1 9.66 5.96 26.11-4.33 33.34-6.12-9.25-8.53-20.25-10.02-31.08-.7-2.81-.52-6.23-2.76-8.36-1.52-.59-3.47-.41-4.56.91-3.44 3.58-4.23 8.78-4.45 13.54-.45 9.27 4.87 18.06 12.14 23.46-5.72 1.72-10.65-2.78-13.79-7.02-4.48-6.68-6.2-15.5-3.67-23.23 2.09-5.57 6.43-10.6 12.29-12.28-1.08-.47-2.41-.92-3.5-.25-7.36 3.46-12.71 11.17-12.92 19.36-.35 6.4 1.17 12.99 4.99 18.22 4.82 7.23 13.87 11.62 22.55 10.08 1.99 1.73 4.31 5.61 7.3 3.26 6.72-4.52 9.56-12.91 10.68-20.59 1.62-10.07-3.67-20.64-12.37-25.82-3.2-1.96-7-4.6-10.85-2.58-.25-3.76 3.81-2.99 6.36-3.52.2-1.58.75-3.76-1.31-4.35-4.35-1.77-8.72 1.88-8.95 6.27m13.34 1.57c2.36.31 4.17-1.05 5.71-2.66 5.05 1.97 8.32 6.52 10.98 11.01 1.95 3.25 5.56 4.8 8.97 6.02 4.13 1.47 8.02 3.52 11.63 6.02-.9 1.07-1.81 2.14-2.71 3.22 1.95 1.71 4.54 2.41 6.5 4.11-3.71.1-7.53-.12-11.03 1.32-.1.47-.29 1.42-.38 1.89 7.88-.55 16.23-.02 23.25 3.92 4.27 2.27 3.65 8 6.99 11.12 2.88 4.05 8.42 3.98 12.02 7.09 4.57 3.05 6.41 8.89 11.35 11.46 2.13.8 4.72 1.66 6.83.35 2.43-1.61 2.61-4.87 2.48-7.5-.59-5.24-3.46-10.13-7.56-13.4.11 3.08-.33 6.32.75 9.28 1.32 2.52 3.14 4.75 4.46 7.29-1.12.82-2.01 2.76-3.67 2.29-3.68-.98-6.27-4.07-8.53-6.94-1.95-2.42-2.38-6.07-5.28-7.67-2.84-1.75-6.3-1.6-9.36-2.7-4.03-2.56-1.69-8.2-4.55-11.51-3.61-4.48-9.87-5.06-15.21-5.37.11-.78.22-1.56.34-2.34 3.28.02 1.63-3.15.09-4.4-5.22-5.89-13.72-6.63-19.62-11.56-2.66-2.35-4.55-5.41-7.21-7.77-3.8-3.45-7.47-7.65-12.78-8.6-3.29-.28-5.1 3.15-4.46 6.03m34.68-4.37c-.74 3.77-.44 7.88.09 11.71 2.02 4.44 7.63 4.14 11 6.99 3.24 2.42 7.34 2.99 11.23 3.56.32.82.96 2.47 1.28 3.29-5.96.16-11.76-2.27-16.74-5.36-.74.12-1.46.26-2.19.41 6.11 3.59 11.59 8.31 18.16 11.11 2.08.95 4.39.73 6.59.51.43-5.69-3.59-11.93-9.57-12.49-4.45-.39-6.78-4.87-10.98-5.89-5.66-2.16-5.71-9.21-7.61-14.08-.31.06-.95.18-1.26.24m31.02 35.36c1.77 3.02 3.7 6.48 7.22 7.68 1.48.78 3.78.83 4.25 2.78 1.15 4.36.13 9.14 1.85 13.42.92 1.04 2.43.98 3.67 1.35-.51-.41-1.53-1.24-2.04-1.66.46-1.39.97-2.75 1.54-4.1-1.07-1.94-2.67-3.9-2.11-6.26.78-1.1 1.72-2.08 2.66-3.04-1.8-5.14-8.47-3.75-11.9-7.05-1.69-1.17-2.62-4.05-5.14-3.12z"/><path d="m178.64 57.22c7.32 2.97 14.22 8.28 17.29 15.74 2.03 5.44.46 13.7-5.88 15.3-1.4-3.92-3.82-7.29-6.31-10.57-.68-4.07.53-8.33-.53-12.38-.76-2.24-3.04-3.21-4.97-4.21.13-1.29.27-2.59.4-3.88z"/><path d="m160.93 61.01c3.17-1.56 6.43-3.29 10.1-2.93 1.04 1.86 2.02 3.75 2.82 5.73-1.11.8-1.57 1.88-1.36 3.24.06 3.74 1.61 7.27 1.67 11.01-.07 2.31-.35 4.61-.56 6.91-6.34-2.21-11.53-7.76-13.7-14.09 2.05 1.28 4.02 2.68 6.18 3.76 2.16-1.13 3.21-3.22 3.64-5.52-2.09-3.5-4.86-6.65-8.79-8.11z"/><path d="m128.4 60.22c4.36-.83 7.56 2.68 10.3 5.49-3.68.66-7.34-.18-10.48-2.16z"/><path d="m174.42 63.53c6.14-.45 6.05 7.34 6.43 11.58-5.87-.21-7.02-6.95-6.43-11.58z"/><path d="m153.9 72.33c.8-.11 2.39-.33 3.18-.44 1.41 1.09 1.72 3 2.58 4.49 2.85 6.53 8.48 11.64 15.06 14.27.41 2.45.66 4.93.51 7.42-.21-.32-.65-.95-.86-1.27-7.87-4.02-11.58-12.62-17.35-18.87-1.55-1.54-2.61-3.48-3.12-5.6z"/><path d="m176 78.18c2.76 1.31 6.02 2.2 7.9 4.8 1.45 1.94 1.83 4.39 1.95 6.75-5.69-.75-10.43-5.54-9.85-11.55z"/><path d="m137.48 121.89c-.62-4.86-.52-10.37 2.72-14.36 2.05 10.64 4.3 21.23 7.61 31.56-4.79-4.73-9.14-10.41-10.33-17.2z"/></g><g fill="#064a91"><path d="m89.09 5.14c6.83-2.26 14.01-.79 20.9.42 1.38.44 2.61-.57 3.83-1.04 5.89 1.79 11.07 5.37 17.12 6.62 3.47 1.59 6.23 4.38 9.21 6.72 3.53 3.15 7.78 5.61 10.51 9.57 1.8 2.46 2.55 5.46 3.85 8.17 2.65 4.37 9.62 3.73 11.28 8.91-3.76.56-5.84-3.09-8.99-4.37-3.13-1.39-5.49-3.98-6.95-7.04-3.26-6.86-9.24-12.27-16.16-15.29.32 2.62.68 5.24.8 7.88-2.09-1.15-2.21-3.63-3.04-5.59-1.92-4.77-6.43-8.35-11.53-9.1.92 4.05 2.63 7.84 3.91 11.78-.45-.14-1.35-.4-1.81-.53-1.54-3.37-2.95-6.99-5.79-9.53-3.24-3.12-7.79-4.29-12.15-4.67 3.03 3.72 6.52 7.33 7.7 12.14-3.5-2.22-4.89-6.48-8.3-8.8-2.83-2.39-6.67-2.56-10.17-3.02.06.58.17 1.73.22 2.31 2.68 2.31 5.33 4.88 6.45 8.34-2.94-1.2-4.58-4.09-7.07-5.92-3.85-3.09-9.52-4.94-14.11-2.4 3.03 1.98 6.76 3.59 8.16 7.21-5.46-3.27-11.18-6.22-17.48-7.49-.07.6-.2 1.78-.27 2.38 1.49.93 2.79 2.14 3.66 3.68l.69.14c0 .28-.02.84-.02 1.12-4.37-2.55-9.12-6.4-14.5-4.63-4.59 1.3-10.1 1.92-13.04 6.13 10.73.68 21.53-.32 32.26.75.02.48.05 1.45.07 1.94-3.79 1.08-7.7 1.66-11.49 2.73-.05-.58-.17-1.74-.23-2.32-4.84-.85-9.81-.97-14.71-.67-.82.33-2.45.99-3.26 1.32 3.55.71 7.08 1.56 10.6 2.43 1.73.65 3.23-.72 4.79-1.22.47.62.94 1.25 1.42 1.88-.36.28-1.07.85-1.42 1.13 3.9 1.12 7.91 2.21 11.31 4.53 8.5 5.96 17.55 11.22 27.28 14.92 11.41 4.63 24.66 3.75 35.79-1.26 7.12-2.68 15.37-3.26 22.49-.27 3.76 1.51 6.96 3.99 10.13 6.45.29-.1.89-.31 1.18-.42-2.52-.51-2.94-2.87-3.45-4.98 3.56 2.02 5.96 5.5 9.27 7.77 7.68 2.27 15.57 5.93 19.87 13.06 4.54 6.97 2.38 15.62 1.68 23.32-3.57 1.13-6.7 4.18-10.54 3.96-3.24-2.28-7.23-2.61-10.89-3.86-.12 4.55.68 9.05 1.33 13.53-4.99-2.05-9.8-4.79-13.49-8.79-5.39-5.24-7.22-13.25-13.39-17.82-1.83-1.72-4.47-1.54-6.79-1.74-2.84-2.36-3.09-6.97-6.8-8.31-1.58.99-3.16 1.97-4.72 2.99-.05.59-.14 1.79-.18 2.38-2.18-.22-4.36-.38-6.55-.53.23-1.71.51-3.4.79-5.09-2.32-1.72-3.31-5.56-.82-7.57 1.72-1.86 4.5-1.38 6.61-.56 2.72 1.02 4.38 3.53 6.45 5.41 1.43 1.05 3.24 1.38 4.84 2.1.52 1.58.83 3.22 1.22 4.85 1.65.42 3.3.82 4.96 1.22-1.79-3.03-2.04-6.33-1.03-9.65-1.38-1.41-2.98-2.58-4.46-3.88 1-.99 2.03-3.07 3.79-2.15 1.99 1.05 3.17 3.05 4.55 4.73 2.51.93 4.97 2 7.41 3.09l-1.68 2.96c-2-3.21-5.74-1.79-8.81-1.78 1.27 2.15 4.11 5.99 6.7 3.22l.28-1.6c2.44.73 4.84 1.58 7.26 2.39.02-1.26.01-2.51-.07-3.76-2.65-.66-4.08-2.91-5.38-5.09 1.44-3.23 4.73-4.56 7.52-6.32.31-2.08-1.76-3.21-3.05-4.43-2.92-2.5-6.38-4.34-10.19-4.98l.03-.9c-4.09-.1-7.7 1.97-11 4.15-5.34 3.77-12.02 4.78-18.38 5.33-6.46.42-13.26.91-19.35-1.75-14.31-6.09-26.4-16.5-41.07-21.84-6.26-2.15-12.52-4.3-18.92-5.97-3.92-1.06-8.03-.92-11.99-1.78 3.91-5.05 10.05-7.44 15.85-9.57 12.7-4.45 26.05-6.93 39.47-7.78m89.55 52.08c-.13 1.29-.27 2.59-.4 3.88 1.93 1 4.21 1.97 4.97 4.21 1.06 4.05-.15 8.31.53 12.38 2.49 3.28 4.91 6.65 6.31 10.57 6.34-1.6 7.91-9.86 5.88-15.3-3.07-7.46-9.97-12.77-17.29-15.74m-17.71 3.79c3.93 1.46 6.7 4.61 8.79 8.11-.43 2.3-1.48 4.39-3.64 5.52-2.16-1.08-4.13-2.48-6.18-3.76 2.17 6.33 7.36 11.88 13.7 14.09.21-2.3.49-4.6.56-6.91-.06-3.74-1.61-7.27-1.67-11.01-.21-1.36.25-2.44 1.36-3.24-.8-1.98-1.78-3.87-2.82-5.73-3.67-.36-6.93 1.37-10.1 2.93m-32.53-.79-.18 3.33c3.14 1.98 6.8 2.82 10.48 2.16-2.74-2.81-5.94-6.32-10.3-5.49m46.02 3.31c-.59 4.63.56 11.37 6.43 11.58-.38-4.24-.29-12.03-6.43-11.58m-20.52 8.8c.51 2.12 1.57 4.06 3.12 5.6 5.77 6.25 9.48 14.85 17.35 18.87.21.32.65.95.86 1.27.15-2.49-.1-4.97-.51-7.42-6.58-2.63-12.21-7.74-15.06-14.27-.86-1.49-1.17-3.4-2.58-4.49-.79.11-2.38.33-3.18.44m22.1 5.85c-.58 6.01 4.16 10.8 9.85 11.55-.12-2.36-.5-4.81-1.95-6.75-1.88-2.6-5.14-3.49-7.9-4.8z"/><path d="m91.24 23.21c2.75-1.71 6.12-1.14 9.15-.71-1.37 1.33-3.32 1.51-5.01 2.19-2.17.96-3.91 3.03-6.43 3.06-4.42.12-8.86-.08-13.24.69-.09-.47-.27-1.4-.36-1.87 5.21-1.65 11.1-.41 15.89-3.36z"/><path d="m96.55 30.57c3.93-2.6 7.31-6.86 12.48-6.7 2.89.23 7.87-.25 7.81 3.92-2.31-.17-4.55-1.64-6.89-1-3.58 1.55-5.97 5.09-9.83 6.13-4.69 1.26-9.59 1.51-14.43 1.43-.13-.46-.41-1.38-.55-1.83 3.86.06 8.05.35 11.41-1.95z"/><path d="m166.15 26.08c4.96.41 8.64 4.27 10.67 8.55-.64.74-1.28 1.49-1.92 2.22-.49-1.03-1.46-3.11-1.94-4.15-1.07 2.52-.65 5.29-.55 7.93-2.06.35-5.96-1.53-5.4 2.47-.62-2.27-1.43-4.5-1.88-6.81 1.66-.3 3.34-.22 5.05.22-.85-3.67-3-6.83-4.03-10.43z"/><path d="m114.34 30.46c4.32-.74 8.72-1.06 13-2.1.04.99.08 1.97.13 2.95-2.71.38-5.49.39-8.12 1.17-2.83 1.36-4.82 4.1-7.88 5.06-4.9 1.53-10.05 1.97-15.15 2.29.04-.49.12-1.45.16-1.93 3.88-.05 7.91-.29 11.44-2.08 2.51-1.31 3.95-4.01 6.42-5.36z"/><path d="m132.22 34.06c4.63-1.62 11.39-1.33 13.78 3.69-2.86-.01-5.21-1.98-8-2.22-4.78.48-7.34 4.97-10.88 7.6-5.66 3.3-12.52 2.99-18.83 2.64-.01-.39-.03-1.15-.04-1.53 4.33-.04 8.87-.14 12.8-2.17 3.81-2.55 6.53-6.76 11.17-8.01z"/><path d="m176.9 37.36c.54-.51 1.06-1.04 1.57-1.58.97-.01 2.9-.04 3.87-.05-.58 4.66-2.05 9.14-3.1 13.71-2.35-2.57-.89-6.22-.89-9.28-1.99.02-2.27 2.06-3.09 3.35-.46-.01-1.37-.02-1.82-.02 1.08-1.89.21-6.79 3.46-6.13z"/><path d="m134.29 72.99c.68-.49 1.36-.97 2.06-1.44 4.96 2.48 10.04 5.15 13.64 9.5 3.15 3.8 6.48 7.45 9.96 10.96-5.12-2.24-10.29-4.64-14.37-8.55-3.92-3.36-6.15-8.65-11.29-10.47z"/><path d="m142.17 99.02c.23-4.39 4.6-8.04 8.95-6.27 2.06.59 1.51 2.77 1.31 4.35-2.55.53-6.61-.24-6.36 3.52 3.85-2.02 7.65.62 10.85 2.58 8.7 5.18 13.99 15.75 12.37 25.82-1.12 7.68-3.96 16.07-10.68 20.59-2.99 2.35-5.31-1.53-7.3-3.26-8.68 1.54-17.73-2.85-22.55-10.08-3.82-5.23-5.34-11.82-4.99-18.22.21-8.19 5.56-15.9 12.92-19.36 1.09-.67 2.42-.22 3.5.25-5.86 1.68-10.2 6.71-12.29 12.28-2.53 7.73-.81 16.55 3.67 23.23 3.14 4.24 8.07 8.74 13.79 7.02-7.27-5.4-12.59-14.19-12.14-23.46.22-4.76 1.01-9.96 4.45-13.54 1.09-1.32 3.04-1.5 4.56-.91 2.24 2.13 2.06 5.55 2.76 8.36 1.49 10.83 3.9 21.83 10.02 31.08 10.29-7.23 12.43-23.68 4.33-33.34-3.55-4.94-9.14-7.69-14.83-9.36-.58-.32-1.75-.96-2.34-1.28m-4.69 22.87c1.19 6.79 5.54 12.47 10.33 17.2-3.31-10.33-5.56-20.92-7.61-31.56-3.24 3.99-3.34 9.5-2.72 14.36z"/><path d="m155.51 100.59c-.64-2.88 1.17-6.31 4.46-6.03 5.31.95 8.98 5.15 12.78 8.6 2.66 2.36 4.55 5.42 7.21 7.77 5.9 4.93 14.4 5.67 19.62 11.56 1.54 1.25 3.19 4.42-.09 4.4-.12.78-.23 1.56-.34 2.34 5.34.31 11.6.89 15.21 5.37 2.86 3.31.52 8.95 4.55 11.51 3.06 1.1 6.52.95 9.36 2.7 2.9 1.6 3.33 5.25 5.28 7.67 2.26 2.87 4.85 5.96 8.53 6.94 1.66.47 2.55-1.47 3.67-2.29-1.32-2.54-3.14-4.77-4.46-7.29-1.08-2.96-.64-6.2-.75-9.28 4.1 3.27 6.97 8.16 7.56 13.4.13 2.63-.05 5.89-2.48 7.5-2.11 1.31-4.7.45-6.83-.35-4.94-2.57-6.78-8.41-11.35-11.46-3.6-3.11-9.14-3.04-12.02-7.09-3.34-3.12-2.72-8.85-6.99-11.12-7.02-3.94-15.37-4.47-23.25-3.92.09-.47.28-1.42.38-1.89 3.5-1.44 7.32-1.22 11.03-1.32-1.96-1.7-4.55-2.4-6.5-4.11.9-1.08 1.81-2.15 2.71-3.22-3.61-2.5-7.5-4.55-11.63-6.02-3.41-1.22-7.02-2.77-8.97-6.02-2.66-4.49-5.93-9.04-10.98-11.01-1.54 1.61-3.35 2.97-5.71 2.66z"/><path d="m190.19 96.22c.31-.06.95-.18 1.26-.24 1.9 4.87 1.95 11.92 7.61 14.08 4.2 1.02 6.53 5.5 10.98 5.89 5.98.56 10 6.8 9.57 12.49-2.2.22-4.51.44-6.59-.51-6.57-2.8-12.05-7.52-18.16-11.11.73-.15 1.45-.29 2.19-.41 4.98 3.09 10.78 5.52 16.74 5.36-.32-.82-.96-2.47-1.28-3.29-3.89-.57-7.99-1.14-11.23-3.56-3.37-2.85-8.98-2.55-11-6.99-.53-3.83-.83-7.94-.09-11.71z"/><path d="m221.21 131.58c2.52-.93 3.45 1.95 5.14 3.12 3.43 3.3 10.1 1.91 11.9 7.05-.94.96-1.88 1.94-2.66 3.04-.56 2.36 1.04 4.32 2.11 6.26-.57 1.35-1.08 2.71-1.54 4.1.51.42 1.53 1.25 2.04 1.66-1.24-.37-2.75-.31-3.67-1.35-1.72-4.28-.7-9.06-1.85-13.42-.47-1.95-2.77-2-4.25-2.78-3.52-1.2-5.45-4.66-7.22-7.68z"/></g></svg>