<svg clip-rule="evenodd" fill-rule="evenodd" stroke-linejoin="round" stroke-miterlimit="1.41421" viewBox="0 0 280 180" xmlns="http://www.w3.org/2000/svg"><g fill="#064a91" fill-rule="nonzero"><path d="m110.252 60.147c4.903-.871 11.56 1.774 14.418 2.061.917.092 1.875-.671 2.731-.342 2.34.898 7.226 4.408 11.31 5.731 2.272 1.321 3.958 3.355 5.832 5.117 2.19 2.332 4.932 4.28 6.504 7.065 1.048 1.739 1.327 3.735 2.01 5.592 1.483 3.042 2.923 3.207 3.658 6.686-2.645.038-.361-2.471-2.437-3.566-2.053-1.163-3.479-3.033-4.244-5.129-1.707-4.698-5.41-8.695-9.954-11.233.012 1.715.052 3.433-.076 5.144-1.353-.92-1.238-2.528-1.655-3.861-.947-3.237-3.78-5.929-7.247-6.849.313 2.687 1.193 5.275 1.764 7.922-.3-.129-2.692-5.251-4.453-7.131-1.991-2.287-7.416-4.787-8.028-4.049-.613.739 3.923 5.28 4.355 8.479-2.243-1.729-2.864-4.592-5.037-6.379-1.766-1.782-5.654-2.598-6.791-2.816-.529-.102-.264 1.049-.032 1.506.627 1.239 3.296 3.6 3.794 5.925-1.937-1.025-2.84-3.027-4.416-4.419-2.416-2.32-6.189-3.997-9.565-2.755 1.937 1.535 4.387 2.892 5.067 5.343-3.515-2.574-9.512-5.52-11.49-6.322-.512-.208-.59 1.028-.376 1.51.31.699 1.758 1.618 2.237 2.684 0 0 .385.689.363.869-2.819-2.017-5.796-4.904-9.657-4.224-3.278.444-7.137.371-9.506 2.831 7.365 1.357 18.557 2.496 22.247 3.247.441.089.327 1.149-.107 1.255-1.378.338-6.806.897-8.163.774-.539-.049.541-1.35.027-1.514-1.682-.534-8.039-1.505-10.118-1.692-.814-.073-1.774.428-2.36.571 2.398.762 4.771 1.611 7.136 2.473 1.144.567 2.702-.534 3.409-.375.534.12.872 1.01.832 1.333s-.808.455-1.072.606c2.607 1.055 5.293 2.101 7.459 3.887 5.402 4.567 11.24 8.73 17.673 11.947 7.52 3.96 16.752 4.528 24.848 2.255 5.137-1.116 10.888-.783 15.573 1.753 2.479 1.294-4.171-1.083-4.377-1.053-1.308.193-5.482.609-7.938 1.731-3.993 1.97-8.693 2.049-13.134 1.858-4.501-.283-9.242-.55-13.241-2.785-9.409-5.149-16.938-12.89-26.655-17.586-4.157-1.921-8.314-3.842-12.607-5.466-2.626-1.019-5.479-1.281-8.148-2.174 3.106-2.918 7.543-3.931 11.723-4.806 9.137-1.778 18.566-2.232 27.914-1.629"/><path d="m109.743 73.374c2.038-.866 5.927.108 6.384.326.458.218-2.416.688-3.639.982-1.577.432-2.945 1.616-4.69 1.42-3.066-.302-7.659-.37-9.211-.69-.432-.09-.531-1.157-.099-1.236 1.859-.339 7.708.687 11.255-.802z"/><path d="m112.828 78.569c2.925-1.338 5.602-3.792 9.164-3.246 1.98.396 5.462.513 5.088 3.194-1.584-.307-3.016-1.446-4.685-1.234-2.599.691-4.534 2.766-7.286 3.106-3.344.409-8.371-.059-10.092-.316-.439-.065-.667-1.142-.235-1.226 1.302-.25 5.539.916 8.046-.278z"/><path d="m125.138 80.022c2.337-.523 7.655-.517 9.157-.238.674.125.495 1.695-.146 1.911-.976.328-3.867-.363-5.708.058-1.927.44-3.66 2.228-5.853 2.584-3.51.565-8.926.352-10.658.177-.448-.046-.174-1.146.264-1.23 1.391-.265 5.493.491 8.077-.359 1.84-.629 2.988-2.482 4.867-2.903z"/><path d="m137.529 82.384c2.933-.107 8.588 3.317 9.234 3.558.647.24-2.34.639-5.443-.898-2.026-1.003-5.034 2.175-8.041 2.745-3.56.675-11.042.238-13.231.087-.355-.024-.256-.939.094-.989 1.52-.215 6.135.448 9.024-.301 2.898-.75 5.431-4.094 8.363-4.202z"/><path d="m185.258 60.41c-3.856.498-8.196 4.025-10.258 4.907-.662.282-1.553-.062-2.115.384-1.533 1.216-4.352 4.972-7.084 6.913-1.384 1.515-2.165 3.424-3.148 5.175-1.086 2.248-2.674 4.341-3.193 6.783-.375 1.54-.116 3.093-.19 4.635-.394 2.613-1.428 3.073-1.162 5.836 1.979-.59-.309-1.925.982-3.226 1.257-1.347 1.881-3.073 1.962-4.813.173-3.899 1.997-7.742 4.788-10.695.392 1.281.764 2.57 1.259 3.814.793-1.001.332-2.172.331-3.263-.051-2.632 1.429-5.3 3.797-6.796.395 2.075.344 4.208.538 6.314.194-.166.777-4.541 1.65-6.353.948-2.169 4.405-5.3 5.034-4.893.628.407-1.689 4.85-1.263 7.334 1.267-1.812 1.06-4.09 2.261-5.929.899-1.74 3.604-3.257 4.4-3.686.371-.199.442.72.377 1.115-.178 1.069-1.614 3.452-1.442 5.3 1.204-1.216 1.409-2.918 2.257-4.324 1.257-2.293 3.675-4.424 6.481-4.288-1.084 1.596-2.593 3.18-2.525 5.165 2.016-2.739 5.794-6.336 7.08-7.396.333-.275.68.628.633 1.037-.067.593-.931 1.616-1.038 2.522 0 0-.126.603-.068.732 1.628-2.161 3.171-5.007 6.206-5.404 2.546-.436 5.403-1.392 7.743-.114-5.169 2.733-13.239 6.198-15.813 7.62-.308.17.025.933.373.91 1.106-.07 5.28-.923 6.262-1.331.39-.163-.719-.88-.374-1.122 1.128-.791 5.636-3.001 7.142-3.626.589-.245 1.421-.096 1.891-.126-1.608 1.128-3.177 2.315-4.737 3.51-.72.69-2.139.234-2.628.518-.369.214-.413.956-.308 1.187s.708.151.94.201c-1.695 1.396-3.451 2.802-4.647 4.639-2.956 4.665-6.332 9.131-10.371 13.031-4.676 4.708-11.421 7.29-17.983 7.489-4.087.37-8.293 1.962-11.19 4.947-1.544 1.544 2.854-1.782 3.014-1.808 1.019-.162 4.226-.827 6.318-.566 3.435.534 6.954-.506 10.218-1.687 3.286-1.263 6.755-2.57 9.212-5.17 5.805-6.035 9.603-13.561 15.744-19.331 2.647-2.403 5.295-4.806 8.112-7.02 1.718-1.372 3.782-2.234 5.562-3.524-2.996-1.447-6.538-1.165-9.856-.839-7.222.812-14.352 2.678-21.174 5.312"/><path d="m189.558 70.103c-1.721-.169-4.389 1.466-4.679 1.736-.29.269 1.96-.053 2.94-.12 1.276-.047 2.572.515 3.826-.039 2.213-.941 5.618-2.065 6.699-2.667.302-.168.126-.986-.214-.944-1.465.182-5.582 2.314-8.572 2.034z"/><path d="m188.475 74.694c-2.492-.313-5.06-1.515-7.586-.275-1.382.757-3.948 1.659-3.043 3.568 1.108-.599 1.908-1.782 3.201-2.015 2.098-.092 4.025 1.001 6.154.611 2.586-.477 6.222-2.001 7.444-2.595.311-.151.23-1.007-.112-.968-1.029.118-3.912 1.977-6.058 1.674z"/><path d="m179.645 78.655c-1.864.156-5.823 1.404-6.877 1.963-.473.25.027 1.378.555 1.389.804.017 2.796-1.174 4.266-1.291 1.538-.123 3.247.804 4.964.556 2.747-.399 6.731-1.824 7.98-2.36.323-.138-.138-.894-.484-.854-1.098.128-3.977 1.65-6.1 1.621-1.518-.038-2.806-1.15-4.304-1.024z"/><path d="m171.671 83.642c-2.21.605-5.622 4.478-6.047 4.808-.426.331 1.893-.07 3.845-1.941 1.275-1.221 4.258.443 6.631.165 2.81-.329 8.281-2.405 9.877-3.028.258-.101-.03-.76-.302-.715-1.182.195-4.465 1.768-6.792 1.886-2.334.118-5.003-1.781-7.212-1.175z"/><path d="m138.598 43.327c3.027.305 6.5 2.968 8.132 3.613.524.206 1.213-.082 1.662.254 1.226.917 3.514 3.793 5.694 5.251 1.115 1.156 1.768 2.632 2.576 3.98.898 1.735 2.186 3.337 2.646 5.235.327 1.197.158 2.417.25 3.622.366 2.035 1.184 2.372 1.037 4.539-1.561-.418.199-1.513-.839-2.502-1.013-1.026-1.539-2.362-1.64-3.722-.221-3.045-1.732-6.011-3.98-8.26-.279 1.01-.541 2.027-.901 3.011-.643-.766-.307-1.692-.331-2.545-.017-2.06-1.234-4.115-3.118-5.233-.264 1.632-.178 3.3-.283 4.951-.155-.126-.708-3.535-1.43-4.933-.789-1.676-3.562-4.049-4.045-3.717-.482.332 1.427 3.757 1.148 5.709-1.03-1.39-.918-3.176-1.898-4.588-.741-1.342-2.891-2.469-3.523-2.787-.294-.147-.329.573-.27.881.163.832 1.338 2.664 1.244 4.114-.968-.925-1.165-2.252-1.86-3.333-1.033-1.766-2.972-3.38-5.163-3.212.883 1.225 2.097 2.43 2.088 3.984-1.637-2.098-4.671-4.828-5.7-5.629-.267-.208-.518.506-.473.825.066.462.764 1.243.868 1.95 0 0 .112.469.069.571-1.321-1.655-2.59-3.847-4.973-4.091-2.001-.285-4.257-.97-6.059.081 4.103 2.024 10.492 4.558 12.536 5.613.244.127.001.73-.272.72-.866-.03-4.15-.606-4.927-.904-.309-.119.543-.704.268-.886-.9-.594-4.475-2.223-5.666-2.679-.466-.178-1.113-.044-1.482-.057 1.283.847 2.536 1.741 3.782 2.642.579.524 1.678.135 2.067.347.293.159.344.738.267.922-.077.183-.551.133-.731.177 1.357 1.055 2.761 2.117 3.737 3.527 2.415 3.584 5.153 7.004 8.398 9.966 3.761 3.579 9.093 5.451 14.23 5.463 3.206.199 6.531 1.353 8.862 3.624 1.242 1.174-2.272-1.331-2.398-1.348-.8-.105-3.323-.555-4.953-.305-2.676.494-5.451-.243-8.03-1.095-2.598-.915-5.341-1.862-7.319-3.841-4.673-4.594-7.809-10.397-12.739-14.776-2.124-1.822-4.247-3.643-6.5-5.312-1.374-1.036-3.007-1.666-4.427-2.635 2.311-1.198 5.088-1.055 7.691-.873 5.667.477 11.284 1.78 16.678 3.691"/><path d="m137.363 50.623c1.342-.169 3.465 1.051 3.698 1.255.232.204-1.535.002-2.303-.029-.999-.009-2 .46-2.993.054-1.752-.688-4.44-1.493-5.299-1.94-.239-.125-.12-.768.147-.742 1.15.109 4.417 1.687 6.75 1.402z"/><path d="m138.311 54.191c1.942-.3 3.924-1.297 5.927-.382 1.098.562 3.125 1.211 2.458 2.724-.879-.444-1.531-1.352-2.547-1.505-1.643-.027-3.126.871-4.801.612-2.033-.316-4.91-1.428-5.879-1.866-.247-.112-.202-.783.066-.76.807.07 3.103 1.461 4.776 1.177z"/><path d="m145.304 57.095c1.461.081 4.586.97 5.422 1.384.376.186.009 1.079-.403 1.099-.629.031-2.213-.857-3.365-.916-1.206-.062-2.523.7-3.871.544-2.157-.252-5.305-1.279-6.294-1.671-.256-.101.088-.702.36-.678.861.075 3.147 1.203 4.807 1.133 1.187-.063 2.17-.961 3.344-.895z"/><path d="m151.651 60.821c1.742.425 4.495 3.379 4.835 3.628s-1.482-.014-3.05-1.434c-1.024-.927-3.321.44-5.183.275-2.205-.196-6.53-1.699-7.792-2.152-.204-.074.006-.595.22-.566.929.127 3.532 1.285 5.355 1.326 1.828.041 3.873-1.503 5.615-1.077z"/><path d="m168.56 49.907c-1.421.633-2.681 2.482-3.371 3.056-.221.185-.602.155-.767.39-.448.642-1.099 2.405-1.924 3.462-.357.739-.437 1.56-.614 2.344-.159.987-.528 1.971-.447 2.967.033.633.31 1.199.458 1.799.148 1.046-.196 1.341.223 2.37.691-.453-.339-.703.007-1.349.328-.661.369-1.394.201-2.07-.38-1.515-.121-3.197.611-4.649.296.446.587.898.919 1.318.19-.475-.122-.871-.247-1.289-.321-1.003-.059-2.196.677-3.04.39.75.615 1.574.93 2.359.055-.086-.222-1.83-.095-2.625.115-.94 1.082-2.536 1.369-2.452.288.084-.091 2.053.356 2.956.278-.84-.062-1.69.188-2.532.145-.77 1.009-1.662 1.265-1.917.119-.119.252.225.272.384.054.43-.223 1.508.054 2.197.322-.604.206-1.28.37-1.916.219-1.023.902-2.117 1.994-2.386-.233.736-.63 1.516-.377 2.269.459-1.281 1.496-3.093 1.867-3.646.097-.144.333.162.362.324.042.236-.172.727-.109 1.086 0 0 .02.246.058.289.376-1.015.642-2.283 1.76-2.783.926-.459 1.912-1.153 2.955-.931-1.668 1.64-4.365 3.893-5.189 4.733-.099.101.116.355.247.306.416-.153 1.919-.958 2.248-1.227.131-.107-.376-.255-.272-.388.342-.432 1.818-1.796 2.323-2.208.198-.161.534-.199.711-.265-.488.617-.953 1.252-1.414 1.889-.197.347-.793.334-.948.499-.117.124-.05.414.017.49.067.077.289-.023.384-.03-.49.729-1.002 1.47-1.251 2.311-.598 2.127-1.381 4.226-2.483 6.184-1.253 2.34-3.543 4.102-6.036 4.931-1.525.61-2.955 1.702-3.724 3.178-.415.769.89-1.01.949-1.038.372-.179 1.525-.802 2.357-.941 1.378-.189 2.608-.991 3.724-1.817 1.115-.861 2.296-1.759 2.939-3.038 1.535-2.978 2.129-6.299 3.822-9.214.74-1.225 1.48-2.449 2.307-3.621.501-.723 1.194-1.29 1.728-1.988-1.314-.212-2.64.302-3.875.807-2.676 1.139-5.195 2.671-7.509 4.462"/><path d="m170.328 53.253c-.679.132-1.515 1.065-1.595 1.201-.08.137.746-.244 1.113-.382.484-.164 1.045-.097 1.463-.453.74-.615 1.917-1.436 2.263-1.79.096-.099-.065-.393-.191-.338-.54.238-1.874 1.527-3.053 1.762z"/><path d="m170.439 55.137c-.992.166-2.114-.001-2.94.763-.443.449-1.324 1.089-.758 1.717.356-.356.527-.902.996-1.139.794-.276 1.658-.077 2.43-.471.937-.479 2.156-1.479 2.556-1.847.102-.094-.027-.412-.154-.358-.38.163-1.273 1.206-2.13 1.335z"/><path d="m167.507 57.667c-.697.274-2.072 1.205-2.412 1.54-.152.151.169.526.372.47.31-.086.938-.771 1.488-.984.576-.223 1.337-.064 1.967-.355 1.007-.468 2.371-1.471 2.789-1.819.108-.09-.155-.327-.284-.272-.406.174-1.335 1.088-2.153 1.32-.586.159-1.207-.12-1.767.1z"/><path d="m164.871 60.925c-.777.486-1.642 2.361-1.767 2.536-.125.176.718-.243 1.252-1.184.349-.614 1.683-.318 2.561-.697 1.04-.448 2.899-1.87 3.44-2.292.087-.068-.099-.288-.198-.239-.431.21-1.509 1.189-2.388 1.501-.881.312-2.122-.11-2.9.375z"/><path d="m164.038 37.766c-.837.372-1.581 1.46-1.987 1.798-.131.108-.355.091-.452.229-.265.378-.649 1.416-1.136 2.038-.21.435-.258.919-.363 1.38-.094.581-.312 1.161-.265 1.747.019.373.182.706.269 1.06.086.617-.116.79.129 1.396.408-.266-.199-.414.005-.794.194-.389.219-.821.12-1.22-.223-.892-.069-1.883.363-2.737.174.263.345.529.54.777.112-.28-.071-.513-.144-.76-.189-.591-.034-1.293.401-1.79.228.442.36.927.546 1.39.032-.051-.13-1.078-.055-1.546.069-.554.639-1.493.808-1.444.17.05-.055 1.21.208 1.742.164-.495-.035-.995.112-1.491.086-.454.595-.978.746-1.129.071-.07.149.133.16.227.032.253-.132.888.031 1.294.19-.356.122-.754.219-1.128.13-.603.533-1.247 1.176-1.405-.138.434-.372.893-.223 1.337.271-.755.883-1.821 1.102-2.147.057-.084.196.096.213.192.024.138-.102.427-.066.639 0 0 .013.145.035.17.222-.597.379-1.344 1.038-1.638.546-.269 1.127-.677 1.741-.546-.984.965-2.574 2.29-3.059 2.784-.058.059.068.209.145.181.245-.09 1.131-.564 1.325-.722.077-.063-.221-.15-.16-.228.202-.255 1.072-1.057 1.37-1.299.116-.095.314-.117.418-.156-.287.363-.562.737-.834 1.111-.116.205-.467.197-.558.294-.069.073-.03.244.01.289.039.045.17-.014.226-.018-.289.429-.592.865-.738 1.36-.354 1.253-.817 2.489-1.467 3.641-.74 1.378-2.09 2.414-3.558 2.9-.899.359-1.742 1.001-2.196 1.87-.245.453.525-.594.56-.611.219-.105.899-.471 1.389-.552.812-.111 1.536-.582 2.194-1.068.658-.506 1.354-1.035 1.734-1.787.905-1.754 1.257-3.709 2.256-5.425.437-.721.873-1.442 1.361-2.131.296-.426.704-.759 1.019-1.17-.774-.126-1.555.176-2.282.473-1.577.669-3.062 1.57-4.426 2.623"/><path d="m165.077 39.738c-.4.077-.893.626-.94.706-.047.081.439-.143.656-.224.285-.097.616-.057.862-.266.436-.362 1.13-.845 1.334-1.053.056-.058-.038-.231-.112-.199-.319.14-1.105.898-1.8 1.036z"/><path d="m165.141 40.848c-.584.096-1.245-.002-1.732.447-.261.264-.78.641-.447 1.011.21-.21.311-.531.587-.67.468-.162.977-.045 1.431-.276.553-.282 1.271-.87 1.507-1.087.061-.055-.015-.242-.09-.211-.224.096-.751.71-1.256.786z"/><path d="m163.413 42.336c-.411.16-1.221.708-1.422.906-.089.088.099.309.219.276.183-.05.553-.453.877-.578.339-.131.788-.037 1.159-.208.593-.275 1.398-.865 1.644-1.07.063-.053-.092-.193-.167-.16-.239.102-.787.64-1.269.776-.345.093-.711-.071-1.041.058z"/><path d="m161.947 43.998c-.459.286-.969 1.39-1.043 1.493s.423-.143.738-.697c.206-.361.992-.186 1.509-.408.613-.264 1.709-1.1 2.028-1.348.051-.041-.058-.17-.117-.142-.253.124-.889.7-1.407.883-.519.184-1.25-.066-1.708.219z"/><path d="m84.452 102.504c6.304-3.468 16.593-2.546 20.626-3.4 1.295-.273 2.257-1.822 3.576-1.721 3.603.278 11.864 3.261 18.041 3.386 3.702.931 6.924 3.17 10.281 4.928 4.045 2.453 8.673 4.096 12.079 7.492 2.219 2.09 3.504 4.903 5.276 7.33 3.403 3.814 5.444 3.415 8.021 8.205-3.594 1.236-1.611-3.474-4.941-4.158-3.331-.796-6.124-2.912-8.118-5.655-4.456-6.15-11.323-10.378-18.678-12.085.793 2.517 1.625 5.028 2.224 7.602-2.264-.75-2.835-3.166-4.008-4.942-2.758-4.34-7.846-7.037-12.997-6.844 1.643 3.814 4.016 7.229 5.993 10.869-.468-.056-6.052-6.526-9.307-8.505-3.755-2.477-12.296-3.735-12.798-2.375-.502 1.359 7.747 6.017 9.785 10.531-3.846-1.544-5.99-5.479-9.766-7.138-3.218-1.834-8.898-1.3-10.55-1.114-.769.087.114 1.661.638 2.231 1.416 1.543 6.13 3.826 7.863 7.024-3.11-.644-5.25-3.186-8.032-4.531-4.349-2.336-10.261-3.121-14.311.214 3.341 1.394 7.302 2.296 9.339 5.6-5.965-2.219-15.489-3.878-18.553-4.176-.795-.077-.342 1.776.168 2.39.74.89 3.134 1.595 4.27 2.95 0 0 .838.842.889 1.117-4.762-1.71-10.135-4.629-15.102-1.907-4.275 2.115-9.58 3.73-11.703 8.406 10.674-1.289 26.476-4.606 31.856-5.148.644-.065.967 1.545.423 1.895-1.73 1.112-8.891 4.357-10.8 4.78-.758.168.128-2.228-.649-2.239-2.539-.036-11.66 1.372-14.585 2.025-1.145.255-2.229 1.42-2.965 1.892 3.62.051 7.246.242 10.866.456 1.819.323 3.449-1.993 4.487-2.074.783-.06 1.647 1.097 1.739 1.59.091.493-.897 1.031-1.19 1.37 4.039.39 8.18.73 11.946 2.391 9.445 4.309 19.303 7.83 29.544 9.693 12.063 2.471 24.931-.811 34.96-7.767 6.512-3.934 14.517-6.009 22.063-4.368 3.973.799-6.187.268-6.454.404-1.699.866-7.212 3.342-10.059 6.087-4.562 4.681-10.946 6.892-17.099 8.593-6.275 1.592-12.872 3.314-19.345 1.809-15.18-3.377-28.967-11.407-44.364-13.982-6.548-.972-13.095-1.944-19.692-2.418-4.048-.327-8.063.56-12.114.437 2.924-5.679 8.525-9.149 13.839-12.301 11.675-6.692 24.349-11.565 37.388-14.849"/><path d="m93.206 123.335c2.217-2.36 7.929-3.103 8.659-3.042s-2.819 2.314-4.277 3.406c-1.85 1.487-2.998 3.935-5.426 4.613-4.24 1.254-10.375 3.682-12.616 4.075-.625.11-1.358-1.363-.829-1.714 2.277-1.509 10.62-3.254 14.489-7.338z"/><path d="m100.232 129.08c3.128-3.525 5.297-8.511 10.334-9.688 2.852-.522 7.541-2.268 8.556 1.777-2.276.431-4.819-.413-6.915.808-3.06 2.419-4.458 6.455-7.92 8.454-4.208 2.425-11.146 4.519-13.575 5.097-.62.148-1.53-1.269-1.003-1.626 1.587-1.075 7.869-1.735 10.523-4.822z"/><path d="m117.394 124.393c2.807-2.035 9.87-4.95 12.021-5.377.965-.191 1.614 2.156.885 2.817-1.11 1.007-5.338 1.607-7.545 3.222-2.309 1.69-3.602 5.203-6.311 6.918-4.341 2.74-11.651 5.412-14.05 6.114-.619.181-.877-1.546-.342-1.906 1.696-1.144 7.568-2.317 10.519-4.956 2.088-1.912 2.566-5.196 4.823-6.832z"/><path d="m134.583 122.331c3.833-1.766 13.271.029 14.265.018.994-.012-2.746 2.202-7.733 1.708-3.256-.323-5.455 5.882-9.125 8.351-4.345 2.924-14.524 6.411-17.515 7.4-.485.16-.87-1.205-.433-1.468 1.896-1.144 8.396-2.733 11.81-5.393 3.423-2.668 4.898-8.85 8.731-10.616z"/><path d="m204.567 84.923c-5.239-.354-11.764 3.424-14.697 4.101-.94.217-2.055-.511-2.896-.038-2.299 1.293-6.848 5.811-10.897 7.795-2.163 1.756-3.606 4.23-5.287 6.427-1.922 2.869-4.478 5.381-5.687 8.677-.824 2.066-.809 4.324-1.234 6.476-1.078 3.571-2.552 3.935-2.783 7.899 2.76-.289-.003-2.795 1.99-4.273 1.96-1.553 3.157-3.813 3.632-6.242 1.055-5.442 4.298-10.354 8.64-13.749.25 1.911.473 3.828.868 5.716 1.268-1.193.902-2.968 1.132-4.505.489-3.721 3.025-7.072 6.493-8.53.087 3.03-.432 6.02-.619 9.038.292-.181 1.996-6.182 3.541-8.494 1.722-2.795 6.987-6.258 7.738-5.513s-3.275 6.368-3.233 9.983c2.07-2.206 2.277-5.47 4.265-7.731 1.565-2.204 5.488-3.6 6.639-3.986.535-.179.436 1.135.265 1.673-.463 1.457-2.879 4.42-3.041 7.069 1.859-1.383 2.493-3.724 3.92-5.471 2.159-2.885 5.83-5.225 9.537-4.265-1.782 1.951-4.125 3.768-4.456 6.582 3.264-3.305 9.056-7.335 10.993-8.476.502-.296.772 1.07.624 1.633-.216.817-1.583 2.021-1.918 3.268 0 0-.295.814-.244 1.012 2.625-2.598 5.282-6.183 9.407-5.911 3.481.083 7.488-.482 10.333 1.959-7.461 2.434-18.94 5.104-22.667 6.402-.446.155-.164 1.32.304 1.384 1.487.204 7.225.146 8.618-.162.554-.122-.77-1.435-.259-1.681 1.669-.806 8.139-2.683 10.276-3.151.835-.184 1.912.254 2.544.339-2.38 1.148-4.72 2.392-7.05 3.647-1.105.775-2.897-.256-3.608.01-.537.201-.753 1.232-.662 1.587.092.355.911.406 1.21.54-2.553 1.502-5.189 3.002-7.17 5.261-4.924 5.76-10.363 11.125-16.568 15.511-7.222 5.35-16.748 7.139-25.527 5.624-5.521-.599-11.458.493-15.947 3.902-2.382 1.752 4.178-1.728 4.396-1.72 1.391.05 5.802-.009 8.531.932 4.461 1.692 9.367 1.191 13.962.422 4.643-.879 9.539-1.77 13.359-4.759 9.007-6.909 15.658-16.468 25.056-22.913 4.033-2.659 8.067-5.318 12.287-7.663 2.578-1.463 5.508-2.112 8.151-3.44-3.683-2.858-8.458-3.43-12.945-3.88-9.787-.834-19.675-.158-29.316 1.684"/><path d="m206.336 96.087c-2.255-.708-6.154.864-6.597 1.164s2.622.463 3.94.636c1.709.284 3.316 1.43 5.102.993 3.146-.72 7.918-1.371 9.485-1.922.437-.154.376-1.354-.086-1.388-1.989-.145-7.921 1.731-11.844.517z"/><path d="m203.922 102.256c-3.251-1.122-6.415-3.518-10.041-2.464-2 .688-5.608 1.255-4.807 4.192 1.602-.541 2.918-1.987 4.689-1.961 2.812.444 5.146 2.511 8.064 2.544 3.544.037 8.707-1.114 10.46-1.616.447-.127.519-1.355.056-1.393-1.395-.116-5.627 1.712-8.421.698z"/><path d="m191.327 105.416c-2.514-.289-8.05.384-9.571.882-.683.224-.255 1.949.445 2.109 1.066.243 3.971-.889 5.953-.651 2.074.249 4.153 2.021 6.491 2.142 3.742.19 9.348-.726 11.125-1.138.459-.107.006-1.297-.464-1.335-1.488-.121-5.644 1.234-8.465.612-2.013-.47-3.492-2.388-5.514-2.621z"/><path d="m179.655 110.256c-3.071.248-8.433 4.768-9.069 5.116-.636.349 2.535.419 5.531-1.68 1.955-1.371 5.575 1.789 8.794 2.047 3.81.305 11.533-1.119 13.79-1.561.366-.072.122-1.078-.25-1.089-1.616-.049-6.319 1.267-9.443.796-3.132-.472-6.283-3.877-9.353-3.629z"/></g></svg>