<svg height="180pt" viewBox="0 0 280 180" width="280pt" xmlns="http://www.w3.org/2000/svg"><path d="m0 0h280v180h-280zm100.49 8.35c2.51 5.51 4.01 11.51 3.62 17.61-.04 10.92-7.07 20.01-8.89 30.56-5.19-5.52-5.94-13.5-10.09-19.67-3.36-4.81-7.79-9.61-13.69-11.06 2.55 3.38 6.31 5.85 8.03 9.83 2.42 5.8 2.37 12.2 2.46 18.37.32 17.76 7.92 35.47 21.34 47.25-4.62.67-6.02 5.77-6.12 9.75-3.91 4.46-8.27 9.7-7.62 16.03.2 2.85 3.29 2.73 5.38 2.97 1.14 2.38 3.14 4.03 5.51 5.12-3.04 2.32-7.24 3.94-8.53 7.88-.94 2.35-.14 5.7 2.59 6.37 4.78 1.56 8.12-3.69 12.67-3.8 2.09 1.17 1.19 4.16-.98 4.51-3.47.4-7.85-.14-10.1 3.19-1.64 3.45 1.02 6.52 3.29 8.83-.66-2.49-1.52-5.14-.29-7.6 4.42-.72 8.94-3.32 13.41-1.77-.08 2.74-1.61 5.12-2.35 7.7 2.09 1.33 4.17 2.91 6.84 2.82l-2.47-1.92c-2.51-2.57 1.27-5.43 1.44-8.21-.77-2.26-3.49-2.71-5.34-3.77.05-2.03.35-4.89-2.15-5.61-4.56-.33-8.65 3.86-13.24 2.04.18-2-.11-4.45 1.78-5.75 3.12-3.17 7.85-2.36 11.78-1.74 1.91 1.8 3.32 4.36 6.05 5.04 2.8-.09 5.47-1.13 8.28-1.18.61 1.92.87 4.02 1.94 5.76 1.04 1.66 3.12 1.98 4.77 2.74.95 2.65 1.96 5.27 2.97 7.89.68-.99 1.32-2.01 2.09-2.94 1.04-.63 1.97.87 2.94 1.18-1.84 2.86-4.43 5.05-7.42 6.64-2.52 1.19-3.56 4.22-2.65 6.78 1.35 2.74 5.12 2.22 7.34.93 5.36-3.22 8.39-9.09 13.52-12.6 1.87-1.09 4.14-.67 6.2-.82 1.12.78 2.25 1.54 3.41 2.26-1.22-4.56-7.67-5.77-10.95-2.72-4.22 3.5-6.88 8.69-11.8 11.38-1.35 1-4.28 1.66-4.16-.86-.33-3.56 3.97-4.68 6.24-6.47 3.35-1.84 4.32-5.73 4.92-9.2 1.59.15 3.18.28 4.77.4.85-.74 1.7-1.48 2.55-2.21 1.53.53 3.06 1.06 4.6 1.6.66-.72 1.33-1.44 1.99-2.16 2.37.28 4.65-.22 6.7-1.41 1.88.78 3.9 1.9 5.96.98 3.88-1.83 3.17-7.26 6.51-9.66 2.43-2.06 5.74-2.18 8.75-1.81-.2 1.18-.47 2.34-.8 3.49-3.45 4.05-10.18 2.91-13.04 7.7.06.76.17 2.29.23 3.05 2.23 1.31 4.74 1.69 7.28 1.28 2.65-1.64 5.45-3.27 7.07-6.07-3.18 2.02-6.45 4.23-10.43 3.53.95-6.41 10.29-4.17 11.73-10.22 1.38-2.62-.6-4.94-2.81-6.11-3.1 1.02-6.26 1.88-9.2 3.31.06-.96.12-1.92.19-2.88 1.97-.4 4.17-.34 5.89-1.52 1.64-1.81 2.02-4.32 2.65-6.58 4.35-.54 9.74-4.24 7.61-9.21.58-1.11 1.15-2.21 1.73-3.31-5.02-1.35-10.27-1.9-15.43-2.34-5.23 2.67-10.22 6.03-14.49 10.09 6.09-1.53 11.11-6.28 17.54-6.6 3.68-.06 5.52 3.75 5.73 6.92-.64.1-1.92.28-2.55.38-1.52-.74-3.05-1.44-4.55-2.2.71 2.13 1.62 4.23 1.9 6.47-.82 1.68-1.76 4.12-4.07 3.72-1.7-1.71-2.6-4.01-3.96-5.97-.75 3.28.79 7.66-2.42 9.93-4.31-1.17-6.47-5.68-9.39-8.73-.13.51-.41 1.53-.54 2.04 2.28 3.48 5.4 6.35 7.4 10.01-.02 1.36-1.54 1.86-2.32 2.74-2.15-1.29-4.38-2.76-7.02-2.47 1.06 1.46 2.23 2.85 3.13 4.42.92 1.51-.73 2.88-1.23 4.25-2.2-1.83-4.2-3.98-5.23-6.7-.85-1.5-1.11-4.33-3.42-3.96.42 3.93 2.36 7.98 1.07 11.93-4.16-2.43-3.7-7.56-5.76-11.35-.5 3.87-.61 7.79-1.31 11.63-1.02 0-2.04-.01-3.05-.02-.52-5.37-.34-10.78.06-16.16-.45.09-1.35.26-1.8.34-.43 3.07-.76 6.15-1.34 9.19-.62 2.38-1.53 5.59-4.67 5.25.82-3.09 1.6-6.18 2.51-9.24-3.67 2.33-4.01 7.65-8.33 9.18-.41-1.67-.92-3.33-1.08-5.04 1.98-3.4 4.98-6.05 7.18-9.3-.96.33-1.93.65-2.9.97-2.52 2.45-5.04 4.98-8.12 6.73-1.34-3.16-2.16-6.5-2.86-9.85-.37-.08-1.12-.24-1.49-.32.19 3.54-.29 7.09-2.49 9.99-1.66-1.53-3.22-3.16-4.69-4.87.63-2.11 1.22-4.24 1.81-6.36.03-1.19.04-2.37.06-3.56-1.13 2.22-2.17 4.47-3.18 6.74-1.06.42-2.11.84-3.15 1.27-1.31-.5-2.62-.99-3.92-1.47 2.62-5.06 4.28-10.52 6.71-15.67-4.97 3.59-5.51 10.44-10.2 14.25-.83-.35-2.5-1.06-3.33-1.42 1.93-2.6 4.66-5.09 4.48-8.62-.39.64-1.17 1.93-1.56 2.57-2.06 1.38-4.26 2.62-6.81 2.72-.82-7.34 4.77-13.66 10.41-17.59l-.58-.51c1.12-.26 2.23-.54 3.35-.84-1.77-.11-3.54-.14-5.3-.19.57-1.57 1.18-3.12 1.78-4.67 2.69.67 4.78 2.54 7.06 4-1.02-5.21-5.5-8.61-8.03-13.05-1.94-2.75-2.51-6.12-2.76-9.4-2.32-.81-5.01-1.14-6.76-3.02-2.88-2.85-4.56-6.65-5.57-10.51-2.73-9.26-3-19.05-2.26-28.61 3.64 7.26 5.52 15.26 9.46 22.38 1.69 4.95 1.61 11.4 6.58 14.48 1.88 1.55 4.19.43 6.27.05-1.33 6.25-2.75 13.76 1.93 19 .89-.02 2.65-.05 3.54-.07.52-1.8.92-3.62 1.27-5.46-1.44-1.27-2.88-2.53-4.33-3.78.47-5.8 1.25-11.69 3.61-17.06 3.53-8.84 13.6-14.31 13.83-24.59l1.1.32-.8-1.28c.62-.02 1.84-.06 2.46-.07.07 1.55.14 3.1.24 4.66 1.04 13.63.06 27.98-6.64 40.19-2.5 4.89-7.27 8.19-9.34 13.35 2.97.55 7.16-.66 8.85 2.62-2.89 2.83-6.76 4.51-9.26 7.77 3.5-.75 6.98-1.59 10.48-2.34 2.43-.35 3.44-3.37 2.65-5.46-.9-2.72-3.78-3.88-6.15-5.03 8-8.66 12.38-20.37 12.86-32.09.44-7.63-1.7-15.08-1.88-22.68l-.8.47c-.04-10.14-.78-20.44 1.92-30.36-.42.1-1.28.29-1.71.39-4.75 11.29-3.41 24.43-9.73 35.15-3.24 4.58-6.3 9.28-9.23 14.06-.28.63-.85 1.88-1.14 2.5 1.51-5.45-.42-10.97-.43-16.47-.34-9.08 2.76-18.07 1.17-27.14-1.31-6.2-4.97-11.55-8.89-16.41-.68-.05-1.37-.1-2.05-.15m44.32 74.32c-3.28 5-9.55 6.41-13.74 10.4-2.9 2.27-4.06 5.88-3.44 9.46 5.93 1.81 9.85-3.85 15.22-4.79.44.63 1.32 1.88 1.77 2.51-.26 3.95-3.11 6.73-6.29 8.67.4 1 .78 2 1.17 3.01-2.62-.11-5.04-1.1-7.53-1.81-3.15-.27-5.5 2.22-7.49 4.3-1.95 2.47-4.69 6.35-1.33 8.96 1.07-2.65.59-6.23 3.3-7.96 1.63-1.48 3.96-1.12 5.98-1.35.92 1.32 1.85 2.63 2.77 3.95.52-1.51 1.03-3.03 1.56-4.54 1.4.76 3.26 1.16 3.95 2.79 1.29 2.14.35 4.82.76 7.15 1.79-2.66 3.06-5.62 3.56-8.8.93-.05 1.87-.1 2.8-.15.05 3.78-1.42 7.31-2.29 10.92.41.12 1.23.34 1.64.45.43-1.28.87-2.56 1.32-3.83 1.8-1.18 3.29-2.74 3.58-4.96.21-2.52 2.67-3.38 4.72-4.01 1.39 1.74 2.84 3.44 4.29 5.13-.39-1.69-.81-3.41-.86-5.15 1.25-3.34 4.94-4.72 8.23-4.91-.57 2.14-1.16 4.26-1.74 6.41 4.32-2.62 5.49-7.47 5.95-12.11 1.33-4.47-.27-9.24-3.2-12.7.21 2.66.63 5.29.75 7.96-3.26-.4-5.52-4.09-9.23-3.26-1.06.58-2.12 1.15-3.19 1.7-.19.28-.57.83-.75 1.1 3.14-.09 6.06.84 8.32 3.08-1.17 4.41-6.09 6.04-8.31 9.84-2.4 1.14-5.01 2.16-7.5.6-1.58.38-3.15.77-4.71 1.21-.53-.17-1.6-.49-2.13-.66-.78-.8-1.57-1.59-2.35-2.4 3.9-1.86 7.06-5.49 7.77-9.82.46-2.44-1.57-5.09-4.1-4.99-4.67 0-7.46 4.8-12.09 5.11.44-8.51 11.28-9.48 14.4-16.41 1.52-2.3 1.1-5.13.83-7.71-.68 2.56-.6 5.46-2.37 7.61m6.15 53.22c.91-1.42 1.72-2.9 2.71-4.28-.87-1.33-1.79-2.63-2.73-3.91-2.26 2.48-1.4 5.52.02 8.19m38.24 5.7c-.72.48-1.44.96-2.14 1.45 1.56.33 3.23.35 4.69 1.07 1.79 1.57 2.69 3.98 4.68 5.34 1.84.69 3.87-.07 5.79-.08-2.69-.63-4.98-2.12-6.17-4.68-1.12-2.79-4.31-2.82-6.85-3.1m-23.3 14.19c-.51 2.6.77 5.06 1.57 7.46-.57.74-1.71 2.23-2.28 2.98-2.04.13-4.08.27-6.12.39.07.51.21 1.52.28 2.02 3.54-1.14 8.15-.7 10.6-4.05 1.04-2.72-.77-5.45-1.9-7.84.47-1.61.97-3.2 1.46-4.8-1.27 1.21-2.69 2.32-3.61 3.84z" fill="#fefefe"/><path d="m105.69 33.98c1.11-4.94.44-10.06 1.27-15.04.29 1.72.58 3.44.87 5.15 2.56 10.27-3.14 20.56-.94 30.93 1.63 6.77 2.25 15.43-3.84 20.24-3.27-4.74-5.91-10.31-5.28-16.23.95-8.82 6.18-16.42 7.92-25.05z" fill="#fefefe"/><path d="m165.5 142.97c2.3-1.1 4.53-2.33 6.84-3.41-.59 3.55-3.21 7.08-7.19 6.52.1-1.04.22-2.08.35-3.11z" fill="#fefefe"/><path d="m132.89 152.31c-.65-1.66-2.17-3.44-.55-5.08 1.69 2.02 3.42 4.16 6.03 5.03v-1.85c.64.13 1.93.4 2.57.53-.35.12-1.06.36-1.41.48-.14.68-.41 2.02-.54 2.69-.1-.44-.3-1.32-.39-1.76-1.91 0-3.81-.02-5.71-.04z" fill="#fefefe"/><g fill="#0a4a90"><path d="m100.49 8.35c.68.05 1.37.1 2.05.15 3.92 4.86 7.58 10.21 8.89 16.41 1.59 9.07-1.51 18.06-1.17 27.14.01 5.5 1.94 11.02.43 16.47.29-.62.86-1.87 1.14-2.5 2.93-4.78 5.99-9.48 9.23-14.06 6.32-10.72 4.98-23.86 9.73-35.15.43-.1 1.29-.29 1.71-.39-2.7 9.92-1.96 20.22-1.92 30.36l.8-.47c.18 7.6 2.32 15.05 1.88 22.68-.48 11.72-4.86 23.43-12.86 32.09 2.37 1.15 5.25 2.31 6.15 5.03.79 2.09-.22 5.11-2.65 5.46-3.5.75-6.98 1.59-10.48 2.34 2.5-3.26 6.37-4.94 9.26-7.77-1.69-3.28-5.88-2.07-8.85-2.62 2.07-5.16 6.84-8.46 9.34-13.35 6.7-12.21 7.68-26.56 6.64-40.19-.1-1.56-.17-3.11-.24-4.66-.62.01-1.84.05-2.46.07l.8 1.28-1.1-.32c-.23 10.28-10.3 15.75-13.83 24.59-2.36 5.37-3.14 11.26-3.61 17.06 1.45 1.25 2.89 2.51 4.33 3.78-.35 1.84-.75 3.66-1.27 5.46-.89.02-2.65.05-3.54.07-4.68-5.24-3.26-12.75-1.93-19-2.08.38-4.39 1.5-6.27-.05-4.97-3.08-4.89-9.53-6.58-14.48-3.94-7.12-5.82-15.12-9.46-22.38-.74 9.56-.47 19.35 2.26 28.61 1.01 3.86 2.69 7.66 5.57 10.51 1.75 1.88 4.44 2.21 6.76 3.02.25 3.28.82 6.65 2.76 9.4 2.53 4.44 7.01 7.84 8.03 13.05-2.28-1.46-4.37-3.33-7.06-4-.6 1.55-1.21 3.1-1.78 4.67 1.76.05 3.53.08 5.3.19-1.12.3-2.23.58-3.35.84l.58.51c-5.64 3.93-11.23 10.25-10.41 17.59 2.55-.1 4.75-1.34 6.81-2.72.39-.64 1.17-1.93 1.56-2.57.18 3.53-2.55 6.02-4.48 8.62.83.36 2.5 1.07 3.33 1.42 4.69-3.81 5.23-10.66 10.2-14.25-2.43 5.15-4.09 10.61-6.71 15.67 1.3.48 2.61.97 3.92 1.47 1.04-.43 2.09-.85 3.15-1.27 1.01-2.27 2.05-4.52 3.18-6.74-.02 1.19-.03 2.37-.06 3.56-.59 2.12-1.18 4.25-1.81 6.36 1.47 1.71 3.03 3.34 4.69 4.87 2.2-2.9 2.68-6.45 2.49-9.99.37.08 1.12.24 1.49.32.7 3.35 1.52 6.69 2.86 9.85 3.08-1.75 5.6-4.28 8.12-6.73.97-.32 1.94-.64 2.9-.97-2.2 3.25-5.2 5.9-7.18 9.3.16 1.71.67 3.37 1.08 5.04 4.32-1.53 4.66-6.85 8.33-9.18-.91 3.06-1.69 6.15-2.51 9.24 3.14.34 4.05-2.87 4.67-5.25.58-3.04.91-6.12 1.34-9.19.45-.08 1.35-.25 1.8-.34-.4 5.38-.58 10.79-.06 16.16 1.01.01 2.03.02 3.05.02.7-3.84.81-7.76 1.31-11.63 2.06 3.79 1.6 8.92 5.76 11.35 1.29-3.95-.65-8-1.07-11.93 2.31-.37 2.57 2.46 3.42 3.96 1.03 2.72 3.03 4.87 5.23 6.7.5-1.37 2.15-2.74 1.23-4.25-.9-1.57-2.07-2.96-3.13-4.42 2.64-.29 4.87 1.18 7.02 2.47.78-.88 2.3-1.38 2.32-2.74-2-3.66-5.12-6.53-7.4-10.01.13-.51.41-1.53.54-2.04 2.92 3.05 5.08 7.56 9.39 8.73 3.21-2.27 1.67-6.65 2.42-9.93 1.36 1.96 2.26 4.26 3.96 5.97 2.31.4 3.25-2.04 4.07-3.72-.28-2.24-1.19-4.34-1.9-6.47 1.5.76 3.03 1.46 4.55 2.2.63-.1 1.91-.28 2.55-.38-.21-3.17-2.05-6.98-5.73-6.92-6.43.32-11.45 5.07-17.54 6.6 4.27-4.06 9.26-7.42 14.49-10.09 5.16.44 10.41.99 15.43 2.34-.58 1.1-1.15 2.2-1.73 3.31 2.13 4.97-3.26 8.67-7.61 9.21-.63 2.26-1.01 4.77-2.65 6.58-1.72 1.18-3.92 1.12-5.89 1.52-.07.96-.13 1.92-.19 2.88 2.94-1.43 6.1-2.29 9.2-3.31 2.21 1.17 4.19 3.49 2.81 6.11-1.44 6.05-10.78 3.81-11.73 10.22 3.98.7 7.25-1.51 10.43-3.53-1.62 2.8-4.42 4.43-7.07 6.07-2.54.41-5.05.03-7.28-1.28-.06-.76-.17-2.29-.23-3.05 2.86-4.79 9.59-3.65 13.04-7.7.33-1.15.6-2.31.8-3.49-3.01-.37-6.32-.25-8.75 1.81-3.34 2.4-2.63 7.83-6.51 9.66-2.06.92-4.08-.2-5.96-.98-2.05 1.19-4.33 1.69-6.7 1.41-.66.72-1.33 1.44-1.99 2.16-1.54-.54-3.07-1.07-4.6-1.6-.85.73-1.7 1.47-2.55 2.21-1.59-.12-3.18-.25-4.77-.4-.6 3.47-1.57 7.36-4.92 9.2-2.27 1.79-6.57 2.91-6.24 6.47-.12 2.52 2.81 1.86 4.16.86 4.92-2.69 7.58-7.88 11.8-11.38 3.28-3.05 9.73-1.84 10.95 2.72-1.16-.72-2.29-1.48-3.41-2.26-2.06.15-4.33-.27-6.2.82-5.13 3.51-8.16 9.38-13.52 12.6-2.22 1.29-5.99 1.81-7.34-.93-.91-2.56.13-5.59 2.65-6.78 2.99-1.59 5.58-3.78 7.42-6.64-.97-.31-1.9-1.81-2.94-1.18-.77.93-1.41 1.95-2.09 2.94-1.01-2.62-2.02-5.24-2.97-7.89-1.65-.76-3.73-1.08-4.77-2.74-1.07-1.74-1.33-3.84-1.94-5.76-2.81.05-5.48 1.09-8.28 1.18-2.73-.68-4.14-3.24-6.05-5.04-3.93-.62-8.66-1.43-11.78 1.74-1.89 1.3-1.6 3.75-1.78 5.75 4.59 1.82 8.68-2.37 13.24-2.04 2.5.72 2.2 3.58 2.15 5.61 1.85 1.06 4.57 1.51 5.34 3.77-.17 2.78-3.95 5.64-1.44 8.21l2.47 1.92c-2.67.09-4.75-1.49-6.84-2.82.74-2.58 2.27-4.96 2.35-7.7-4.47-1.55-8.99 1.05-13.41 1.77-1.23 2.46-.37 5.11.29 7.6-2.27-2.31-4.93-5.38-3.29-8.83 2.25-3.33 6.63-2.79 10.1-3.19 2.17-.35 3.07-3.34.98-4.51-4.55.11-7.89 5.36-12.67 3.8-2.73-.67-3.53-4.02-2.59-6.37 1.29-3.94 5.49-5.56 8.53-7.88-2.37-1.09-4.37-2.74-5.51-5.12-2.09-.24-5.18-.12-5.38-2.97-.65-6.33 3.71-11.57 7.62-16.03.1-3.98 1.5-9.08 6.12-9.75-13.42-11.78-21.02-29.49-21.34-47.25-.09-6.17-.04-12.57-2.46-18.37-1.72-3.98-5.48-6.45-8.03-9.83 5.9 1.45 10.33 6.25 13.69 11.06 4.15 6.17 4.9 14.15 10.09 19.67 1.82-10.55 8.85-19.64 8.89-30.56.39-6.1-1.11-12.1-3.62-17.61m5.2 25.63c-1.74 8.63-6.97 16.23-7.92 25.05-.63 5.92 2.01 11.49 5.28 16.23 6.09-4.81 5.47-13.47 3.84-20.24-2.2-10.37 3.5-20.66.94-30.93-.29-1.71-.58-3.43-.87-5.15-.83 4.98-.16 10.1-1.27 15.04m59.81 108.99c-.13 1.03-.25 2.07-.35 3.11 3.98.56 6.6-2.97 7.19-6.52-2.31 1.08-4.54 2.31-6.84 3.41m-32.61 9.34c1.9.02 3.8.04 5.71.04.09.44.29 1.32.39 1.76.13-.67.4-2.01.54-2.69.35-.12 1.06-.36 1.41-.48-.64-.13-1.93-.4-2.57-.53v1.85c-2.61-.87-4.34-3.01-6.03-5.03-1.62 1.64-.1 3.42.55 5.08z"/><path d="m144.81 82.67c1.77-2.15 1.69-5.05 2.37-7.61.27 2.58.69 5.41-.83 7.71-3.12 6.93-13.96 7.9-14.4 16.41 4.63-.31 7.42-5.11 12.09-5.11 2.53-.1 4.56 2.55 4.1 4.99-.71 4.33-3.87 7.96-7.77 9.82.78.81 1.57 1.6 2.35 2.4.53.17 1.6.49 2.13.66 1.56-.44 3.13-.83 4.71-1.21 2.49 1.56 5.1.54 7.5-.6 2.22-3.8 7.14-5.43 8.31-9.84-2.26-2.24-5.18-3.17-8.32-3.08.18-.27.56-.82.75-1.1 1.07-.55 2.13-1.12 3.19-1.7 3.71-.83 5.97 2.86 9.23 3.26-.12-2.67-.54-5.3-.75-7.96 2.93 3.46 4.53 8.23 3.2 12.7-.46 4.64-1.63 9.49-5.95 12.11.58-2.15 1.17-4.27 1.74-6.41-3.29.19-6.98 1.57-8.23 4.91.05 1.74.47 3.46.86 5.15-1.45-1.69-2.9-3.39-4.29-5.13-2.05.63-4.51 1.49-4.72 4.01-.29 2.22-1.78 3.78-3.58 4.96-.45 1.27-.89 2.55-1.32 3.83-.41-.11-1.23-.33-1.64-.45.87-3.61 2.34-7.14 2.29-10.92-.93.05-1.87.1-2.8.15-.5 3.18-1.77 6.14-3.56 8.8-.41-2.33.53-5.01-.76-7.15-.69-1.63-2.55-2.03-3.95-2.79-.53 1.51-1.04 3.03-1.56 4.54-.92-1.32-1.85-2.63-2.77-3.95-2.02.23-4.35-.13-5.98 1.35-2.71 1.73-2.23 5.31-3.3 7.96-3.36-2.61-.62-6.49 1.33-8.96 1.99-2.08 4.34-4.57 7.49-4.3 2.49.71 4.91 1.7 7.53 1.81-.39-1.01-.77-2.01-1.17-3.01 3.18-1.94 6.03-4.72 6.29-8.67-.45-.63-1.33-1.88-1.77-2.51-5.37.94-9.29 6.6-15.22 4.79-.62-3.58.54-7.19 3.44-9.46 4.19-3.99 10.46-5.4 13.74-10.4z"/><path d="m150.96 135.89c-1.42-2.67-2.28-5.71-.02-8.19.94 1.28 1.86 2.58 2.73 3.91-.99 1.38-1.8 2.86-2.71 4.28z"/><path d="m189.2 141.59c2.54.28 5.73.31 6.85 3.1 1.19 2.56 3.48 4.05 6.17 4.68-1.92.01-3.95.77-5.79.08-1.99-1.36-2.89-3.77-4.68-5.34-1.46-.72-3.13-.74-4.69-1.07.7-.49 1.42-.97 2.14-1.45z"/><path d="m165.9 155.78c.92-1.52 2.34-2.63 3.61-3.84-.49 1.6-.99 3.19-1.46 4.8 1.13 2.39 2.94 5.12 1.9 7.84-2.45 3.35-7.06 2.91-10.6 4.05-.07-.5-.21-1.51-.28-2.02 2.04-.12 4.08-.26 6.12-.39.57-.75 1.71-2.24 2.28-2.98-.8-2.4-2.08-4.86-1.57-7.46z"/></g></svg>