<svg clip-rule="evenodd" fill-rule="evenodd" stroke-linejoin="round" stroke-miterlimit="1.41421" viewBox="0 0 280 180" xmlns="http://www.w3.org/2000/svg"><g fill="#024790" fill-rule="nonzero"><path d="m149.281 18.801c1.893 2.404 5.707 5.099 6.322 6.654.46 1.164-1.577 2.678-2.631 2.678-1.053 0-2.494-2.649-3.691-2.678-1.196-.029-3.122 1.119-3.489 2.503-.581 2.198.408 8.703 0 10.683-2.597-2.441-3.383-10.856-4.411-13.986-4.666-4.341-7.528-10.076-9.996-15.846-.546-1.276 1.75-1.877 2.389-2.206 2.564 4.981 4.137 11.065 9.377 13.976 3.374-2.832-3.782-9.845 0-9.594"/><path d="m202.293 90.588c4.49.723 8.956 6.94 5.222 10.912-2.797 3.182-8.865 3.015-10.863-1.002-3.264-3.877.49-11.086 5.641-9.91"/><path d="m123.532 7.142c2.408-.805 4.627 1.91 5.134 4.377.894 2.804 1.269 5.585 2.775 8.182 1.351 2.331 3.951 4.608 5.676 6.619.777 2.64 2.132 9.865 2.132 9.865s-2.208 2.803-4.83-7.393c-3.066-1.609-10.215-2.473-10.264-5.385-.024-1.449 2.898-.929 4.511 0-1.437-5.495-3.332-9.582-5.134-14.969"/><path d="m153.258 31.659c8.783 11.635 15.449 24.331 23.543 36.411 6.87 10.255 14.55 19.964 21.158 30.39-1.022.737 5.597 22.322-3.079 2.212-3.957-5.538-38.506-55.978-45.021-58.706-.352.499-1.049 1.503-1.402 2.001 2.397 8.941 4.205 18.017 5.923 27.111 1.398 9.339 7.463 16.986 10.671 25.685-.071.643 3.023 3.893-.266 2.561-1.678-.679-3.368-1.521-4.071-3.316-5.115-9.443-10.487-19.126-11.88-29.948-.81-6.896-3.058-13.497-5.468-19.971-.53-1.723-1.985-2.85-3.214-4.054-5.417 2.261-8.387 7.593-11.973 11.911-10.777 13.661-19.206 30.05-20.191 47.685-.451 3.609 1.225 7.729-1.335 10.818-1.179-.44-2.356-.867-3.541-1.3.064-18.813 6.09-37.403 16.646-52.939 3.299-4.681 6.072-9.826 10.404-13.686 2.262-1.899 3.702-4.938 6.512-6.077 5.792-.291 11.366 1.675 17.14 1.65-.68-2.133-1.45-4.687-2.198-6.797.407-.519-3.062-2.964 0-3.323"/><path d="m174.353 81.901c-2.604 1.087-6.445 2.098-8.381-.705-1.957-2.637-2.457-7.406.802-9.25 2.408-1.9 5.56-1.22 8.315-.766 1.535 3.366 2.408 7.95-.736 10.721"/><path d="m112.333 28.356c-.857-1.125 5.621-6.389 8.891-7.029-.196 1.32-.397 2.648-.629 3.966 1.022 1.029 2.059 2.057 3.1 3.063-.781.544-1.768 1.982-2.791.888-2.076-1.436-8.086.273-8.571-.888"/><path d="m125.716 30.447c2.215.935 4.622.341 6.446 1.856-.013 1.354-5.137 2.473-7.569 3.68-1.545 1.698.077 5.813-2.585 6.219-.561-3.678-.19-7.428.69-11.032.554-1.064 2.197-.526 3.018-.723"/><path d="m187.741 87.541c1.981 3.796 5.308 7.429 4.948 11.982-1.017 5.902-10.801 5.9-12.13.141-2.491-5.546 3.391-9.313 7.182-12.123"/><path d="m194.337 76.246c2.629-3.047 6.614-3.546 10.376-3.889 1.318 3.052 3.864 6.241 2.516 9.745-.222.875-.712 1.687-1.286 2.384-.632.766-1.412 1.43-2.27 1.932-.838.49-1.803.732-2.738.994-3.418.956-5.628-3.623-6.974-5.706-2.164 1.773-4.474 4.803-7.66 3.794-2.757-1.118-5.248-3.451-6.086-6.355.076-3.129 1.658-7.111 5.217-7.423 3.639-.591 6.611 2.054 8.905 4.524"/><path d="m171.131 105.382c-.472 3.329-3.823 8.064-7.572 6.089-1.901-.861-4.212-2.002-4.499-4.33-.921-3.823 1.847-7.15 4.537-9.489 2.868 2.055 7.181 3.748 7.534 7.73"/><path d="m158.767 87.984c3.79 2.46 4.433 8.807.889 11.823-2.335 2.727-7.179 2.825-9.71.322-2.978-2.943-2.513-8.937 1.08-11.197 2.33-1.223 5.199-1.885 7.741-.948"/><path d="m123.445 91.537c-3.295-3.09-9.612-2.194-11.691 1.969-2.088 2.92-1.024 7.646 2.013 9.504 3.57 2.186 9.278.299 10.612-3.73.63-2.555.586-5.499-.934-7.743"/><path d="m107.815 61.38c3.789 2.46 4.432 8.807.888 11.824-2.335 2.726-7.178 2.824-9.71.321-2.977-2.943-2.512-8.937 1.081-11.197 2.33-1.223 5.198-1.885 7.741-.948"/><path d="m122.077 71.556c3.789 2.46 4.432 8.807.888 11.823-2.335 2.726-7.179 2.824-9.71.322-2.978-2.944-2.512-8.938 1.08-11.198 2.33-1.223 5.199-1.885 7.742-.947"/><path d="m157.519 134.73c-2.435-4.311 1.27-8.54 2.973-12.341 3.383 1.248 7.873 1.589 9.621 5.254 1.586 2.566 1.254 5.942-.541 8.301-3.385 2.956-9.695 3.19-12.053-1.214"/><path d="m94.318 90.404c4.909.642 7.441-4.379 10.327-7.382-2.427-2.669-4.426-6.703-8.478-6.95-2.974-.508-5.979 1.065-7.493 3.614-1.472 4.246.678 10.184 5.644 10.718"/><path d="m97.782 108.077c4.737-1.442 4.972-7.059 6.361-10.986-3.312-1.43-6.797-4.28-10.59-2.832-2.919.764-5.008 3.437-5.335 6.384.412 4.474 4.82 8.996 9.564 7.434"/><path d="m208.245 110.853c-1.929-3.877-6.506-3.47-9.903-4.228-.621 2.974-2.361 6.25-.579 9.323 1.087 2.403 3.584 3.892 6.018 3.852 3.549-.835 6.491-5.077 4.464-8.947"/><path d="m202.813 128.065c3.306-3.685.599-8.613-.246-12.692-3.573.491-8.031-.142-10.526 3.06-2.102 2.164-2.505 5.533-1.259 8.223 2.668 3.615 8.781 5.202 12.031 1.409"/><path d="m138.703 77.199c4.061-2.832 8.622.456 12.568 1.791-.923 3.487-.838 7.988-4.32 10.075-2.405 1.822-5.797 1.812-8.316.247-3.262-3.089-4.092-9.349.068-12.113"/><path d="m145.95 72.119c2.536-2.828.459-6.609-.189-9.739-2.742.377-6.162-.109-8.077 2.348-1.613 1.661-1.922 4.246-.966 6.31 2.048 2.774 6.738 3.991 9.232 1.081"/><path d="m158.88 119.15c-2.17 6.551-15.256 5.136-13.616-2.58.422-6.311 7.641-7.807 12.733-8.471.821 3.594 2.368 7.404.883 11.051"/><path d="m154.776 137.803c5.973 2.964 3.899 12.861-2.417 13.87-3.198 1.358-6.426-1.235-7.695-4.058-2.278-5.621 4.564-12.265 10.112-9.812"/><path d="m117.743 105.48c4.034 2.309 6.216 8.248 3.181 12.171-3.483 4.284-11.749 1.734-12.05-3.85-.881-4.793 3.971-10.291 8.869-8.321"/><path d="m153.67 61.189c-.509-3.764 3.532-7.015 7.1-5.732 1.585.872 2.883 2.157 4.296 3.272-1.379 2.396-2.437 5.642-5.479 6.312-2.586.924-5.878-1.018-5.917-3.852"/><path d="m98.51 122.012c-4.459-2.739-4.404-9.885.076-12.572 2.312-.93 4.815-1.195 7.237-1.729 1.353 3.56 3.893 7.52 1.955 11.348-1.27 3.565-6.212 5.382-9.268 2.953"/><path d="m188.093 64.6c-2.797 3.246-8.428 3.396-11.476.412-1.798-1.435-4.177-3.311-3.392-5.935 2.03-2.472 4.407-5.068 7.709-5.706 5.93-1.146 8.802 6.612 7.159 11.229"/><path d="m103.08 153.489c-.829-4.765 3.987-7.271 7.06-9.854 2.881 1.63 6.675 3.034 7.55 6.614 1.001 2.777-.538 5.721-2.379 7.744-4.102 2.949-11.712 1.143-12.231-4.504"/><path d="m107.644 127.499c-.004-5.898 7.609-10.071 12.397-6.194 2.287 2.821 2.485 6.672 3.43 10.054-3.403 1.361-7.099 3.954-10.853 2.309-2.822-.711-4.154-3.648-4.974-6.169"/><path d="m168.096 161.627c-3.424 4.92-13.314 2.535-13.093-3.781-.285-4.482 4.033-6.968 6.895-9.632 2.375 1.759 5.694 2.533 7.024 5.412 2.015 2.422.895 5.764-.826 8.001"/><path d="m103.944 129.382c6.122 3.803.837 16.262-6.21 13.699-3.458-.859-5.251-4.4-5.097-7.802.66-2.745 1.481-6.248 3.162-7.438 2.721-.122 5.819.048 8.145 1.541"/></g></svg>