<svg height="180pt" viewBox="0 0 280 180" width="280pt" xmlns="http://www.w3.org/2000/svg"><g fill="#fefefe"><path d="m0 0h280v180h-280zm121.46 50.4c-15.03 5.85-29.17 14.13-41.49 24.57-6.37 5.32-11.62 11.8-16.63 18.38-2.28 3.34-6.32 4.34-9.77 5.98l-.2 2.84c8.8 1.55 17.96.83 26.55 3.64-3.32 2.75-7.23 4.71-11.36 5.92-4.4 1.59-9.16.47-13.67 1.39 1.15 2.79 4.38 4.04 5.13 7.05-2.77 1.53-5.74 2.67-8.82 3.43.04.58.13 1.72.17 2.3 2.01.12 4.06.37 6.02-.22 3.18-.87 4.37-5.02 7.78-5.35 3.18-.34 6.4-.05 9.57.24-5.34 2.08-11.35 2.02-16.4 4.89.19.8.58 2.4.78 3.2 1.81.35 3.63.66 5.46.97-2.36 2.36-5.02 4.45-6.84 7.3 7.29-.44 14.05-3.73 21.31-4.33 9.06.02 17.88 2.61 26.93 2.89 11.7.47 23.4.93 35.08 1.65 10.81-.35 21.96-2.13 31.5-7.51 4.12-2.28 7.19-6.04 8.78-10.46 1.92-5.22 6.81-8.78 12.19-9.76 14.88-3.29 30.16-1.18 45.09.2 6.09 3.21 13.29 4.3 20.02 2.69.08-1.39.13-2.78.16-4.17-5.68-2.23-11.88-1.51-17.82-2.22-10.35-.59-20.65-2.28-31.05-1.62-5.75.62-11.26-1.44-16.89-2.14-6.25-.7-9.45-6.71-13.91-10.31-3.95-3.51-9.35-4.19-14.24-5.53 3.88-3.02 7.54-6.67 8.96-11.52 1.7-4.16 1.46-9.59 5.55-12.37 4.22-2.89 9.45-3.62 14.31-4.88 6.72-1.17 13.48-2.56 20.34-2.25 5.1-.05 9.86 2.36 14.98 2.16 3.55-.16 7.97.06 10-3.51-7.96-6.81-18.89-3.32-28.25-2.83-9.93.25-19.79 1.49-29.72 1.63-3.23.07-7.11 1.54-9.75-1.08-4.27-3.95-9.73-6.61-15.52-7.29-11.79-1.39-23.27 2.47-34.33 6.03z"/><path d="m119.54 54.47c10.61-4.45 21.86-8.24 33.5-8 4.88.03 9.71 1.86 13.46 4.97 2.02 1.54 1.24 4.53 2.57 6.51 1.46 2.35 3.24 4.54 4.19 7.17-1.18 5.05-1.12 11.11-5.34 14.78-2.66 2.51-5.44 5.19-9.09 6.11-8.04 1.42-16.32.83-24.27 2.8-3.17.81-6.29 2.01-9.62 1.91 4.9-3.92 11.1-5.53 16.76-8 6.07-2.6 12.37-4.56 18.75-6.17 3.88-3.19 7.29-7.02 9.89-11.32-4.71 2.63-9.02 5.94-13.95 8.17-11.39 5.34-23.68 8.67-34.46 15.3-1.59-1.23-3.2-2.44-4.8-3.66 3.5-2.26 7.17-4.28 11.12-5.63 8.98-3.14 17.88-6.57 26.61-10.36 3.53-1.69 7.43-3.61 8.98-7.46-7.26.29-13.12 5.11-19.72 7.58-8.38 3.01-16.1 7.59-24.53 10.5-6.62 2.3-13.73 1.4-20.59 1.81-3.87.16-7.67.9-11.51 1.3 5.43-6.01 10.59-12.26 16.23-18.07 4.5-4.46 9.97-7.84 15.82-10.24m15.84.88c-10.35 3.15-19.57 8.99-29.01 14.11-3.53 2.04-7.53 3.72-9.92 7.2 7.61-.6 13.86-5.48 20.42-8.89 7.28-4.46 15.28-7.54 23.15-10.77-1.21-1.3-2.82-2.4-4.64-1.65z"/><path d="m87 72.98c4.37-3.03 8.51-6.39 12.99-9.26-3.71 5.59-8.85 10.01-13.2 15.07-2.89 3.48-6.72 6.31-8.5 10.6 5.79-.6 10.86-3.95 16.65-4.51 6.48-.63 13.04-.78 19.54-.25-3.45 3.45-8.56 2.88-12.98 3.71-3.13.59-6.56-1.11-9.45.69-4.76 2.72-9.31 5.81-13.57 9.26 2.44 1.56 5.18 2.54 7.74 3.89-6.65 1.27-13.16-1.21-19.72-1.95 2.7-2.35 6.77-3.67 7.64-7.56-4.23 1.35-7.59 4.37-11.53 6.3 7.79-8.95 14.5-19.13 24.39-25.99z"/><path d="m149.6 88.73c7.95-.41 16.31-.46 23.68 2.99 5.33 2.28 9.19 7.54 9.9 13.27.11 2.93-2.63 4.26-5.04 4.92-10.97 2.92-22.59 2.08-33.52-.68-11.91-2.78-24.6-4.09-36.39-.03-8.77 2.55-15.72 8.73-22.74 14.25-.13.66-.4 1.98-.53 2.64 8.29-3.87 15.58-9.81 24.36-12.64 12.41-4.11 25.69-1.92 38.3-.02.76.46 2.3 1.38 3.06 1.84-4.57.79-9.22.87-13.84 1.14-7.81.42-15.3 2.86-22.95 4.26-4.21.8-8.51.47-12.76.64.05.66.15 1.97.2 2.63 4.13 2.21 9.01 1.82 13.45.95 6.81-1.72 13.28-4.86 20.35-5.45 8.73-.77 17.26-2.82 25.75-4.91-13.71 7.7-29.01 12.09-44.4 14.92-9.51 1.91-19.37 1-28.73-1.24-1.86-.23-2.59-2.31-4.24-2.9-2.86-.37-5.7.38-8.17 1.84 2.91 1.2 6.05 1.47 9.15 1.84-5.67.7-11.38.91-17.06 1.52 5.59-5.86 12.77-9.98 20.31-12.8 2.34-.79 4.15-2.48 5.58-4.43-5.23.12-10.05 2.56-15.25 2.95-4.21.29-8.44.38-12.66.16 2.89-3.24 7.21-4.29 10.95-6.17 4.37-2.14 8.81-4.34 13.66-5.13 4.37-.78 8.98-.05 13.21-1.66 5.26-1.89 9.93-5.09 15.16-7.06 10.05-3.81 20.65-5.82 31.21-7.64m6.09 9.57c7.03-.63 13.98.45 20.6 2.85-9.32 1.83-18.6-1.81-27.94-.64-2.14.15-3.72 1.72-5.25 3.05 6.63.49 13.27-.05 19.9.34 5.52.4 11.06.6 16.59.38-.49-1.97-.94-3.94-1.27-5.93-5.78-1.07-11.42-2.87-17.26-3.56-2.47-.4-4.16 1.7-5.37 3.51z"/><path d="m85.26 97.72c3.73-2.67 7.3-5.58 11.22-7.98-.98 1.73-1.81 3.55-2.51 5.42 4.25 2.56 9.26 1.19 13.9 1.41-5.32 5.86-14.04 3.57-21.04 3.87-.39-.68-1.18-2.04-1.57-2.72z"/><path d="m160.7 120.7c6.56-2.55 12.86-5.77 19.58-7.9-2.13 4.75-3 10.73-8.02 13.46-12.69 7.56-28.02 6.89-42.26 7.66-5.49.62-11.03.3-16.44-.77 4.88-1.98 10.19-2.19 15.3-3.23 10.84-2.18 21.63-4.88 31.84-9.22z"/><path d="m66.46 124.3c1.31.04 2.62.08 3.94.13-1.43 1.18-2.88 2.33-4.3 3.51.12-1.21.24-2.43.36-3.64z"/></g><g fill="#0d488e"><path d="m121.46 50.4c11.06-3.56 22.54-7.42 34.33-6.03 5.79.68 11.25 3.34 15.52 7.29 2.64 2.62 6.52 1.15 9.75 1.08 9.93-.14 19.79-1.38 29.72-1.63 9.36-.49 20.29-3.98 28.25 2.83-2.03 3.57-6.45 3.35-10 3.51-5.12.2-9.88-2.21-14.98-2.16-6.86-.31-13.62 1.08-20.34 2.25-4.86 1.26-10.09 1.99-14.31 4.88-4.09 2.78-3.85 8.21-5.55 12.37-1.42 4.85-5.08 8.5-8.96 11.52 4.89 1.34 10.29 2.02 14.24 5.53 4.46 3.6 7.66 9.61 13.91 10.31 5.63.7 11.14 2.76 16.89 2.14 10.4-.66 20.7 1.03 31.05 1.62 5.94.71 12.14-.01 17.82 2.22-.03 1.39-.08 2.78-.16 4.17-6.73 1.61-13.93.52-20.02-2.69-14.93-1.38-30.21-3.49-45.09-.2-5.38.98-10.27 4.54-12.19 9.76-1.59 4.42-4.66 8.18-8.78 10.46-9.54 5.38-20.69 7.16-31.5 7.51-11.68-.72-23.38-1.18-35.08-1.65-9.05-.28-17.87-2.87-26.93-2.89-7.26.6-14.02 3.89-21.31 4.33 1.82-2.85 4.48-4.94 6.84-7.3-1.83-.31-3.65-.62-5.46-.97-.2-.8-.59-2.4-.78-3.2 5.05-2.87 11.06-2.81 16.4-4.89-3.17-.29-6.39-.58-9.57-.24-3.41.33-4.6 4.48-7.78 5.35-1.96.59-4.01.34-6.02.22-.04-.58-.13-1.72-.17-2.3 3.08-.76 6.05-1.9 8.82-3.43-.75-3.01-3.98-4.26-5.13-7.05 4.51-.92 9.27.2 13.67-1.39 4.13-1.21 8.04-3.17 11.36-5.92-8.59-2.81-17.75-2.09-26.55-3.64l.2-2.84c3.45-1.64 7.49-2.64 9.77-5.98 5.01-6.58 10.26-13.06 16.63-18.38 12.32-10.44 26.46-18.72 41.49-24.57m-1.92 4.07c-5.85 2.4-11.32 5.78-15.82 10.24-5.64 5.81-10.8 12.06-16.23 18.07 3.84-.4 7.64-1.14 11.51-1.3 6.86-.41 13.97.49 20.59-1.81 8.43-2.91 16.15-7.49 24.53-10.5 6.6-2.47 12.46-7.29 19.72-7.58-1.55 3.85-5.45 5.77-8.98 7.46-8.73 3.79-17.63 7.22-26.61 10.36-3.95 1.35-7.62 3.37-11.12 5.63 1.6 1.22 3.21 2.43 4.8 3.66 10.78-6.63 23.07-9.96 34.46-15.3 4.93-2.23 9.24-5.54 13.95-8.17-2.6 4.3-6.01 8.13-9.89 11.32-6.38 1.61-12.68 3.57-18.75 6.17-5.66 2.47-11.86 4.08-16.76 8 3.33.1 6.45-1.1 9.62-1.91 7.95-1.97 16.23-1.38 24.27-2.8 3.65-.92 6.43-3.6 9.09-6.11 4.22-3.67 4.16-9.73 5.34-14.78-.95-2.63-2.73-4.82-4.19-7.17-1.33-1.98-.55-4.97-2.57-6.51-3.75-3.11-8.58-4.94-13.46-4.97-11.64-.24-22.89 3.55-33.5 8m-32.54 18.51c-9.89 6.86-16.6 17.04-24.39 25.99 3.94-1.93 7.3-4.95 11.53-6.3-.87 3.89-4.94 5.21-7.64 7.56 6.56.74 13.07 3.22 19.72 1.95-2.56-1.35-5.3-2.33-7.74-3.89 4.26-3.45 8.81-6.54 13.57-9.26 2.89-1.8 6.32-.1 9.45-.69 4.42-.83 9.53-.26 12.98-3.71-6.5-.53-13.06-.38-19.54.25-5.79.56-10.86 3.91-16.65 4.51 1.78-4.29 5.61-7.12 8.5-10.6 4.35-5.06 9.49-9.48 13.2-15.07-4.48 2.87-8.62 6.23-12.99 9.26m62.6 15.75c-10.56 1.82-21.16 3.83-31.21 7.64-5.23 1.97-9.9 5.17-15.16 7.06-4.23 1.61-8.84.88-13.21 1.66-4.85.79-9.29 2.99-13.66 5.13-3.74 1.88-8.06 2.93-10.95 6.17 4.22.22 8.45.13 12.66-.16 5.2-.39 10.02-2.83 15.25-2.95-1.43 1.95-3.24 3.64-5.58 4.43-7.54 2.82-14.72 6.94-20.31 12.8 5.68-.61 11.39-.82 17.06-1.52-3.1-.37-6.24-.64-9.15-1.84 2.47-1.46 5.31-2.21 8.17-1.84 1.65.59 2.38 2.67 4.24 2.9 9.36 2.24 19.22 3.15 28.73 1.24 15.39-2.83 30.69-7.22 44.4-14.92-8.49 2.09-17.02 4.14-25.75 4.91-7.07.59-13.54 3.73-20.35 5.45-4.44.87-9.32 1.26-13.45-.95-.05-.66-.15-1.97-.2-2.63 4.25-.17 8.55.16 12.76-.64 7.65-1.4 15.14-3.84 22.95-4.26 4.62-.27 9.27-.35 13.84-1.14-.76-.46-2.3-1.38-3.06-1.84-12.61-1.9-25.89-4.09-38.3.02-8.78 2.83-16.07 8.77-24.36 12.64.13-.66.4-1.98.53-2.64 7.02-5.52 13.97-11.7 22.74-14.25 11.79-4.06 24.48-2.75 36.39.03 10.93 2.76 22.55 3.6 33.52.68 2.41-.66 5.15-1.99 5.04-4.92-.71-5.73-4.57-10.99-9.9-13.27-7.37-3.45-15.73-3.4-23.68-2.99m-64.34 8.99c.39.68 1.18 2.04 1.57 2.72 7-.3 15.72 1.99 21.04-3.87-4.64-.22-9.65 1.15-13.9-1.41.7-1.87 1.53-3.69 2.51-5.42-3.92 2.4-7.49 5.31-11.22 7.98m75.44 22.98c-10.21 4.34-21 7.04-31.84 9.22-5.11 1.04-10.42 1.25-15.3 3.23 5.41 1.07 10.95 1.39 16.44.77 14.24-.77 29.57-.1 42.26-7.66 5.02-2.73 5.89-8.71 8.02-13.46-6.72 2.13-13.02 5.35-19.58 7.9m-94.24 3.6c-.12 1.21-.24 2.43-.36 3.64 1.42-1.18 2.87-2.33 4.3-3.51-1.32-.05-2.63-.09-3.94-.13z"/><path d="m135.38 55.35c1.82-.75 3.43.35 4.64 1.65-7.87 3.23-15.87 6.31-23.15 10.77-6.56 3.41-12.81 8.29-20.42 8.89 2.39-3.48 6.39-5.16 9.92-7.2 9.44-5.12 18.66-10.96 29.01-14.11z"/><path d="m155.69 98.3c1.21-1.81 2.9-3.91 5.37-3.51 5.84.69 11.48 2.49 17.26 3.56.33 1.99.78 3.96 1.27 5.93-5.53.22-11.07.02-16.59-.38-6.63-.39-13.27.15-19.9-.34 1.53-1.33 3.11-2.9 5.25-3.05 9.34-1.17 18.62 2.47 27.94.64-6.62-2.4-13.57-3.48-20.6-2.85z"/></g></svg>