<svg clip-rule="evenodd" fill-rule="evenodd" viewBox="0 0 600 600" xmlns="http://www.w3.org/2000/svg"><path d="m540.999 261.995c0-133.003-107.981-240.984-240.984-240.984-133.002 0-240.983 107.981-240.983 240.984 0 133.002 107.981 240.984 240.983 240.984 133.003 0 240.984-107.982 240.984-240.984z" fill="#edef39"/><path d="m407.61 491.16c2.18.12 4.36.33 6.53.66-.24 3.25.36 6.46 1.07 9.62 1.84-.94 3.59-2.06 5.32-3.19.21-1.55.42-3.11.65-4.64 2.1 1.04 4.15 2.18 6.15 3.43-3.6 3-8.84 3.7-11.9 7.35-.72 4.44 3.14 7.98 6.42 10.38-.08-4.22-.48-8.43-.34-12.64 1.5.47 3.06.86 4.48 1.58-.03 4.77.19 9.54.28 14.32 5.31 2.37 11.28 2.63 17.01 2.29-2.33 1.83-4.62 3.73-6.39 6.13-3.54-.91-6.94-2.21-10.4-3.33-1.31 5.78-3.61 11.36-7.39 15.98l-2.25 1.35c.67-1.35 1.39-2.68 2.15-3.98-1.94.63-3.86.22-5.72-.33 1.12-1.32 2.65-3 1.35-4.76-1.99-3.76-3.98-7.53-6.06-11.23-2.83.77-5.35 2.39-7.84 3.89.49.82 1 1.63 1.54 2.44 2.05-1.51 4.14-3.09 6.7-3.58-1.85 1.79-4 3.22-6.1 4.71.46 1.26.94 2.52 1.44 3.78 2.21-1.2 4.42-2.41 6.75-3.37-.41 3.05-3.75 3.79-5.99 5.16 1.12 3.16 2.48 6.24 3.52 9.45l-3.37-.71c-2.13-7.09-5.66-13.68-10.07-19.61 2.53-.45 5.48.28 7.56-1.57 2.25-1.68 4.98-2.97 6.24-5.65 1.9 1.46 2.52 3.77 3.3 5.93 2.19-4.02.63-8.57.05-12.79-1.11-5.13-1.87-10.59-4.97-14.97zm8.19 20.86c-.78 2.85-1.17 5.78-1.52 8.72-.43.04-1.3.13-1.74.18 2.71 4.89 5.68 9.83 6.53 15.47 3.51-4.7 4.03-10.51 4.04-16.17-2.62-2.57-4.83-5.51-7.31-8.2zm-240.47-17.95c1.45.3 2.89.63 4.33.98 1.29 1.82 2.69 3.57 4.14 5.27-3.48 1.2-5.97 3.83-7.44 7.17 1.47.47 2.97.9 4.47 1.31 1.85-.82 3.72-1.59 5.62-2.32 1.12 1.72 2.14 3.51 2.92 5.42-1.76.74-3.63 1.28-5.27 2.29-4.15 4.06-7.02 9.21-9.55 14.39-.97 1.9-1.47 3.99-1.7 6.1 2.92 1.54 5.86 3.09 9.03 4.08 2.51-2.27 4.42-5.12 7.02-7.28-1.73 3.92-3.8 7.89-2.98 12.35-1.21.47-2.42.95-3.62 1.45-3.84-1.8-7.86-3.17-11.66-5.05-2.43-.93-3.18-3.82-3.09-6.17 2.86-8.21 8.46-15.12 11.66-23.15-1.69-.2-3.37-.51-5.07-.36-5 4.83-8.35 11.64-14.89 14.73-5.76 3.27-12.49 3.84-18.9 4.87-1.29.29-2.48-.39-3.67-.76 5.86-1.58 12.21-1.88 17.47-5.19 5.86-3.15 9.86-8.69 13.28-14.21-2.72-.38-5.45-.63-8.19-.84.02-1.71.05-3.41.1-5.11 3.29.42 6.39 1.65 9.67 2.12 2.22.86 2.93-1.78 3.84-3.21 1.54-2.74 2.46-5.73 2.48-8.88zm219.84 4.81c.5-2.09 3.71-1.08 5.37-1.38.32 2.56 1.19 4.99 2.32 7.3.52-.58 1.54-1.75 2.05-2.34 1.04.6 2.15 1.2 3.15 1.91-1.35 1.05-2.8 1.95-4.21 2.91.63 1.36 1.27 2.72 1.93 4.08 1.22-1.96 3.22-2.75 5.49-2.85l-.06 2.63c-4.21 1.66-8.16 3.89-12.32 5.66-3.25 2.73-7.02 4.74-10.95 6.29l-1-1.89c2.74-1.11 5.4-2.41 7.89-4.02-.65-1.33-1.3-2.66-1.95-3.97-2.67 1.08-5.48 3.65-8.33 1.37 2.4-1.5 5.01-2.66 7.29-4.36-1.22-2.76-2.72-5.39-4.56-7.77 2.02.07 4.04.22 6.07.4.31 1.94.56 3.95 1.52 5.71 1.93.15 3.41-1.34 4.85-2.38-1.22-2.62-2.9-4.95-4.55-7.3m.84 12.54c.8 1.53 1.68 3.02 2.61 4.49 1.26-1.09 2.56-2.13 3.87-3.15-.78-1.27-1.56-2.52-2.38-3.75-1.38.78-2.75 1.58-4.1 2.41zm-46.76 1.52c.7-.33 2.1-.97 2.8-1.29 1.39.48 2.78.99 4.16 1.54-.87 2.66-2.41 5-3.84 7.37 2.76-.34 5.36-1.32 7.89-2.44.59-.83 1.19-1.66 1.79-2.48 1.35.5 2.7 1.07 3.98 1.76-2.01 6.39 5.34 13.24.06 18.95-.53-.77-1.57-2.29-2.09-3.06-1.14.37-2.29.74-3.42 1.14.63 3.14.78 6.37 1.67 9.46 1.33-2.61 1.6-5.53 1.68-8.4.96.54 1.91 1.1 2.88 1.67-.31 1.87-.6 3.76-.87 5.65.94-.32 1.88-.64 2.82-.95-.53-1.16-1.04-2.32-1.55-3.47 1.77.89 4.01 1.3 5.27 2.97 1.07 2.5-1.06 4.79-1.85 7.05 3.11-.7 5.77-2.2 6.61-5.46 1.02 1.47 2.01 2.95 3.01 4.45-.59.95-.59 2.47-1.75 2.95-4.35 1.95-9.06 3.03-13.7 4.04-1.73.69-3.11-.95-3.61-2.4-1.52-4.99-2.41-10.17-4.18-15.09l-2.47-1.11c.56 1.54 1.62 2.79 2.72 4-.29 3.9.04 7.9-.96 11.72-1.64 5.06-5.85 8.61-9.66 12.06l-.66-.85c2.5-2.8 5.31-5.51 6.6-9.12 1.75-3.85.95-8.15.83-12.21 0-1.65-1.51-2.52-2.5-3.58-.63-2.63-1.28-5.24-2.04-7.83-1.88.81-3.77 1.62-5.69 2.35l.05 2.93c2.29 1.94 5.38 2.98 7.13 5.5 1.42 2.41-.23 5.06-1.52 7.1-1.01-1.5-1.85-3.1-2.69-4.68-2.74 1.7-5.51 3.39-8.51 4.6-1.38.8-2.53-.68-3.61-1.28 1.3-1.1 3.85-1.2 4.13-3.24.82-3.15 1.45-6.39 1.3-9.65-3.66.82-8.03 4.58-11.27.97 4.89-1.71 10.03-2.67 14.8-4.73 1.22-.55 1.74-1.92 2.6-2.85l2.83 1.68c-.57-2.82-1.64-5.49-2.6-8.18.86.23 2.59.67 3.45.89.91-2.15 1.62-4.38 2.28-6.62-.58-.46-1.73-1.37-2.3-1.83m8.26 9.4c.04 1.27.29 2.53.49 3.8 1.32-.5 2.64-1.03 3.9-1.65-.45-1.35-.92-2.68-1.38-4.01-.98.62-2.45.76-3.01 1.86m-6.73 1.72c.25 1.41.54 2.82.85 4.23l3.19-1.1c-.42-1.24-.86-2.47-1.29-3.68-.92.17-1.84.36-2.75.55m8.02 3.91c.26 1.54.55 3.09.87 4.63 1.08-.75 3.28-.52 3.57-2.12.11-1.3-.51-2.53-.77-3.77-1.23.41-2.45.83-3.67 1.26m-6.15 2.12c.22 1.57.59 3.11 1.03 4.64.98-.28 1.97-.55 2.96-.82-.31-1.47-.64-2.93-.97-4.37-1.01.17-2.02.36-3.02.55m-9.94 6.82c-.74 2.06-1.32 4.18-1.67 6.35 1.45-.55 3.11-.8 4.3-1.87.58-1.84-1.72-3.08-2.63-4.48m20.29 8.86c.29 1.38.6 2.75.91 4.14 2.08-.36 4.12-.92 6.16-1.46-.39-.27-1.18-.8-1.57-1.06-.23-.61-.7-1.82-.94-2.42-1.52.26-3.05.54-4.56.8zm-142.77-31.93c.82-.21 1.65-.41 2.48-.61 2.25 2.55.29 5.42-.52 8.13 1.7-.63 3.39-1.27 5.09-1.89-.14 1.33 1.2 3.29-.25 4.16-1.77-.11-3.53-.39-5.3-.53-.28 1.73-.53 3.47-.74 5.22 1.79.01 3.57-.2 5.34-.46-.17 5.48-2.24 10.72-2.83 16.19-1.03.52-2.05 1.04-3.07 1.57l.4-4.07c-2.45 0-3.66 1.97-3.59 4.32.26 2.89 3.59-.07 5.22-.1.24 1.15.47 2.32.7 3.49-2.16-.18-4.32-.36-6.48-.55-1.35 3.79-.94 9.16-5.3 10.97.53-3.83 1.78-7.48 2.89-11.17-3.27-.46-6.56-.71-9.84-1.04-.15-.61-.46-1.84-.62-2.46 3.43 1.52 7.24 1.48 10.91 1.37.34-1.56.66-3.13.97-4.69-.59-.11-1.77-.34-2.36-.46-1.31 1.13-2.71 2.16-4.16 3.1.12-7.02 2.73-13.73 2.72-20.79 1.98 1.36 2.97 5.29 5.8 4.41.73-1.63 1.21-3.34 1.68-5.05-3.01-1.2-7.94.59-9.16-3.23 3.19.07 6.37 1.69 9.52 1.19.67-2.28.55-4.68.5-7.02m-5.22 15.77c-.45 1.41-.88 2.82-1.27 4.26 1.2-.15 2.4-.3 3.61-.47l.33-3.49c-.89-.11-1.78-.21-2.67-.3m4.44 4.87c.96.03 1.92.04 2.89.03.62-1.34.86-2.83.45-4.26-2.69-.76-2.89 2.42-3.34 4.23m-6.16 5.63c2.14-.14 3.02-1.9 3.66-3.68-1.08-.6-2.16-1.18-3.24-1.75-.26 1.8-.4 3.6-.42 5.43m5.58-.33c.62.05 1.84.14 2.45.18.23-1.45.44-2.9.64-4.35-2.29.13-3.9 1.9-3.09 4.17zm19.21-24.97c.68-.21 1.36-.42 2.05-.62 1.27 1.07 2.57 2.09 3.88 3.1-.66 1.64-1.29 3.28-1.89 4.95 1.75.43 3.52.81 5.29 1.2.92-.72 1.84-1.44 2.76-2.15.92 1.22 1.83 2.5 2.44 3.92-3.26.14-6.46-.82-9.71-.64-1.71.06-1.18 2.27-1.77 3.34 2.61 1.43 4.86-.24 6.7-2.03.66 1.07 1.34 2.15 2.02 3.22-2.21 4.01-.6 9.54-4.8 12.35 1.14.94 2.54 1.79 2.73 3.43-1.21.91-2.49 1.72-3.77 2.52-.6-1.27-1.18-2.54-1.76-3.81l-.89.42c.46 1.68.9 3.37 1.35 5.08 1.65-.32 3.28-.72 4.9-1.18 1.11 1.08 2.18 2.21 3.22 3.38-3.06.47-6.08-.31-9.1-.65-.55 3.04-.96 6.18-2.27 9.02-1.21 1.46-3.1 2.04-4.76 2.84-.59-2.5-2.42-4.18-4.19-5.85l-1.12.53c.27-2.75.15-5.5-.12-8.23-2.3-.45-5.25-.27-5.35-3.4 4.78.68 9.56 1.45 14.31 2.36.32-1.49.7-2.99.64-4.52-4-1.62-9.15.6-12.45-2.65 2.34-3.01 5.65.67 8.64.23l.74-3.37-2.64-1.65c-1.22.97-2.42 1.94-3.55 3.02-2.35-4.89.92-10.18.95-15.27.81.34 1.62.69 2.43 1.04l.9 2.5 2.98.41c.54-1.27 1.05-2.57 1.56-3.85-2.86-.65-7.1.71-8.26-2.85 2.65.26 5.29.57 7.95.82.11-2.32.11-4.64-.04-6.96m-5.68 15.9c1.18.25 2.38.5 3.58.72l1.04-2.35c-1.4-.07-2.8-.13-4.19-.17zm7.35-.44c1.02 1.71 2.96 1.94 4.75 2.24l.28-2.43c-1.68-.01-3.36.04-5.03.19m-8.35 2.96c1.27 1.57 3.25 1.8 5.14 1.95-.83-2.43-3.04-2.3-5.14-1.95m7.28.52c1.49 1.94 4.31 2.98 6.36 1.12-2.07-.64-4.21-.99-6.36-1.12m.62 3.12c-.27 1.32-.53 2.66-.78 3.99 1.34.26 2.67.57 4.04.69.57-1.23.92-2.53 1.3-3.81-1.52-.3-3.05-.59-4.56-.87m-8.91 12.06c.72 2.48 3.56 5.37.76 7.59 1.48.44 2.99.69 4.53.81.45-2.4 2.32-4.97 1.52-7.34-2.23-.58-4.55-.72-6.81-1.06zm72.71-25.87c1.01-1.27 2.1-2.47 3.23-3.63 1.62 1.28 3.12 2.7 4.47 4.27-4.07 3.84-1.24 9.46-1.58 14.25-.49 8.23 1.57 16.4.47 24.62-1.28 1.39-2.47 3.58-4.64 2.24-.62-1.46-.95-3.01-1.51-4.47-8.26.06-16.5.94-24.75 1.45-.37 2.22-.36 6.21-3.57 6.02-1.41-.79-1.13-2.48-1.1-3.82.43-10.71.75-21.47-.45-32.14-.22-2.83.13-6.04-2.26-8.09 1.54-.61 3.06-1.29 4.68-1.63 2.03.79 3.46 3.06 5.88 2.63 7.06-.1 14.1-1.05 21.13-1.7m-25.41 4.02.5 13.91c.27 6.35-1.11 13.08.69 19.21 8.61-.5 17.2-1.59 25.84-1.89-.87-11 .3-22.12-1.72-33.03-8.45.43-16.87 1.34-25.31 1.8zm66.08-6.98 2.27 1.99c-4.72 2.23-9.84 3.68-14.95 4.66-.54-.43-1.62-1.29-2.16-1.73 4.87-1.83 10.63-1.56 14.84-4.92zm-47.23 10.74c1.42.99 2.81 2.01 4.19 3.07-.38.43-1.13 1.29-1.51 1.71-.07 4.59.43 9.19.31 13.79-.88.83-1.76 1.67-2.63 2.52-.87-1.46-1.71-2.94-2.47-4.45-1.93.29-4.47-.71-5.96.78-.08 3 .47 6.49-2.75 8.06-2.73-7.23.47-15.29-2.76-22.41 4.62-.18 10.3 1.14 13.58-3.07m-9.05 6.87c.36 2.68.57 5.38.9 8.07 2.3-.19 4.62-.33 6.93-.58-.23-3.17-.59-6.32-1.04-9.45-1.7-.02-3.4-.03-5.09-.03-.42.5-1.27 1.5-1.7 1.99z" fill="#e3cc64"/><path d="m231 31.04c45.72-13.68 95.52-13.36 141.05.93 43.31 13.48 82.54 39.62 111.83 74.25 22.35 26.33 38.98 57.51 48.24 90.8 12.69 45.31 11.75 94.34-2.75 139.11-18.55 58.07-60.21 108.24-113.75 137.36-25.98 14.32-54.68 23.47-84.02 27.62-38.1 4.59-77.32.82-113.43-12.37-35.58-12.83-68.03-34.2-93.88-61.8-25.85-27.48-45.14-61.11-55.67-97.34-9.46-32.05-11.67-66-7.73-99.13 5.44-39.42 20.38-77.57 43.86-109.75 30.77-42.63 75.82-74.76 126.25-89.68m36.49 23.78c-46.8 3.84-92.1 23.26-127.27 54.37-34.37 30.13-59.07 71.13-69.39 115.68-10.63 45.29-6.65 93.92 11.55 136.76 18.94 45.03 53.29 83.38 95.96 107.16 33.82 19.11 72.81 28.84 111.63 28.18 38.25-.52 76.32-11.18 109.19-30.77 30.58-17.99 56.64-43.54 75.41-73.64 19.41-31.04 30.88-66.99 33.01-103.53 2.44-39.2-5.72-79.02-23.63-113.99-21.39-42.14-56.65-77.05-99.01-98-36.13-18.02-77.24-25.72-117.45-22.22z" fill="#1c1c1c"/><path d="m192.911 140.018c-1.754.716-4.795 1.793-8.639 3.391-4.89 2.032-11.097 4.554-17.322 8.284-11.047 6.619-19.712 14.028-27.111 21.463-19.816 19.913-24.928 41.564-22.593 45.939-3.54-6.632-1.277-20.29.753-25.982 10.745-30.133 35.199-47.126 47.822-56.859 15.93-12.282 23.503-24.634 24.475-27.111 4.904-12.491 12.849-20.119 24.476-22.97 8.097-1.985 17.822-1.529 25.311 1.699 15.416 5.384 33.98 21.1 21.758 54.784-4.108 10.597-13.157 19.885-19.225 25.252-1.419 1.571-3.605 3.077-7.887 7.884-5.595 6.282-11.395 15.211-8.284 14.309 13.522-8.83 30.033-12.508 50.081-11.297 13.688.827 27.805 4.29 34.643 6.402 12.962 4.002 39.586 14.274 65.143 32.383 24.411 17.297 53.845 48.81 59.119 54.223 4.28 4.393 11.479 10.606 11.296 11.673-.104.608-1.691.923-2.683 1.063.091.024.006.049-.329.067l.329-.067c-.432-.111-4.835-.178-5.222.781-.47 1.162 3.729 3.26 9.035 7.194 5.494 4.072 9.757 8.016 9.79 9.037.033 1.02.628 3.299-5.272 1.506-.942-.287-7.454-3.14-8.231-2.066s5.055 3.31 4.089 4.325c-.965 1.015-7.409.379-12.802-1.506-9.189-3.212-18.722-9.696-23.723-11.673-4.161-1.645-12.775-3.498-21.84-4.142-9.689-.688-54.171 3.544-62.131 4.519-28.137 3.444-46.921-2.441-51.964-4.519-3.75-1.546-8.485-4.295-10.543-4.895 5.589 7.771 23.657 14.32 43.303 15.062 5.116.193 17.168-.155 28.994-.753 14.726-.746 29.662-3.078 42.927-3.389 9.784-.23 24.304.232 24.476 5.648.175 5.499-18.938 9.222-29.371 10.92-52.879 8.604-45.526 34.323-45.186 42.927.302 7.652 3.992 15.152 3.766 20.71-.352 8.62-2.815 11.939-3.766 21.84-.386 4.022-.872 14.245-.753 22.593.106 7.414.803 13.297.753 12.802 1.416 14.03 7.245 12.581 22.216 12.05 9.316-.33 18.12 1.051 17.322 6.401-.153 1.023-1.754-.67-4.142-.753-9.771-.34-24.526 2.437-25.982 2.636-4.611.631-6.054-1.727-8.661 0-3.005 1.991-4.208 4.19-6.401 6.778-1.911 2.255-2.409 6.465-4.142 6.401-2.671-.098-2.252-9.292-1.506-10.92.745-1.627 1.925-1.272 2.259-2.635.312-1.276-3.609.185-6.778-.377-5.764-1.09-24.13-5.031-27.112 2.636-.665 1.711-1.372.549-2.635-.753-1.264-1.302-.458-6.799 8.66-8.284 4.008-.653 11.878-1.37 15.439-1.13 10.602.716 13.747-1.469 14.309-6.778.455-4.307 1.33-10.887 1.506-18.074.203-8.286-.352-17.263-.753-22.593-.644-8.534-4.565-14.709-4.519-21.84.034-5.192 2.263-13.636 2.636-20.71.196-3.724-.585-14.326-3.389-20.711-3.114-7.091-9.94-20.02-42.174-30.124-15.95-4.999-28.277-10.368-37.278-17.321-5.981-4.62-12.74-11.497-18.828-21.087-2.859-4.504-5.238-9.242-7.531-15.815-2.227-6.386-7.127-24.145-.376-41.42 1.194-3.035 4.586-9.096 4.142-9.038-1.464.192-10.425 11.857-11.673 25.606-1.604 17.672 6.401 34.266 6.401 34.266.342.847-20.538-8.884-27.864-30.501-10.246-30.23 8.99-57.631 9.79-58.741 6.25-8.687 13.71-15.477 16.718-18.067l-.15-.008s1.663-1.898 1.13-1.129c2.163-3.12 3.233-6.044 1.882-8.661-.96-1.86-4.592-3.188-9.037-3.013-2.065.082-8.116 1.548-10.941 2.258zm8.305-27.11c-.596-1.229-.188-2.915.377-3.765.683-1.029 1.199-1.733 3.389-2.26 3.8-.914 5.496 1.892 5.648 3.013.229 1.686-.219 2.377-.753 3.012-.68.809-2.187 1.705-4.518 1.718-.663.003-3.266.088-4.143-1.718z" fill="#25569e"/></svg>