<svg viewBox="0 0 68 68" xmlns="http://www.w3.org/2000/svg"><circle cx="34" cy="34" fill="#2dc100" r="34"/><g fill="#fff"><path d="m42.78 27.35a16 16 0 0 0 -10.78 4.35 12.82 12.82 0 0 0 -4 10.84c-1.64-.2-3.13-.43-4.62-.55a2.88 2.88 0 0 0 -1.57.26c-1.43.82-2.81 1.75-4.47 2.75.3-1.37.5-2.57.84-3.72a1.42 1.42 0 0 0 -.64-1.88c-5-3.54-7.14-8.85-5.56-14.31 1.47-5.06 5.07-8.12 10-9.72a16.68 16.68 0 0 1 18.23 5.35 12.46 12.46 0 0 1 2.57 6.63zm-19.26-1.7a1.92 1.92 0 0 0 -1.85-1.93 1.87 1.87 0 0 0 -2 1.81 1.85 1.85 0 0 0 1.83 1.92 1.9 1.9 0 0 0 2.02-1.8zm10.05-1.93a1.94 1.94 0 0 0 -1.89 1.9 1.89 1.89 0 0 0 1.94 1.84 1.87 1.87 0 1 0 0-3.74z"/><path d="m52.18 53.43c-1.33-.59-2.54-1.48-3.84-1.61s-2.64.61-4 .75a13.35 13.35 0 0 1 -10.81-3.57c-5.77-5.34-5-13.52 1.73-17.9 5.93-3.88 14.63-2.59 18.82 2.8a10.69 10.69 0 0 1 -1.24 14.91c-1.29 1.15-1.75 2.09-.92 3.6a4.37 4.37 0 0 1 .26 1.02zm-15.08-14.6a1.56 1.56 0 1 0 0-3.12 1.59 1.59 0 0 0 -1.58 1.62 1.57 1.57 0 0 0 1.58 1.5zm9.72-3.11a1.55 1.55 0 0 0 -1.55 1.49 1.54 1.54 0 1 0 1.55-1.49z"/></g></svg>